<?xml version="1.0" encoding="UTF-8" standalone="no"?>
<!--
************* Copyright (c) 2017 Pareto Softare, LLC DBA Simplemaps.com *******************		
************* Free for Commercial Use, full terms at  http://simplemaps.com/resources/svg-license ************
************* Attribution is appreciated! http://simplemaps.com ***************************
-->

<svg
   baseprofile="tiny"
   fill="#7c7c7c"
   height="2036"
   stroke="#ffffff"
   stroke-linecap="round"
   stroke-linejoin="round"
   stroke-width="2"
   version="1.2"
   viewbox="0 0 1000 2036"
   width="1000"
   id="svg2451"
   sodipodi:docname="benin.svg"
   inkscape:version="1.1.1 (3bf5ae0d25, 2021-09-20)"
   xmlns:inkscape="http://www.inkscape.org/namespaces/inkscape"
   xmlns:sodipodi="http://sodipodi.sourceforge.net/DTD/sodipodi-0.dtd"
   xmlns="http://www.w3.org/2000/svg"
   xmlns:svg="http://www.w3.org/2000/svg">
  <defs
     id="defs2455">
    <marker
       style="overflow:visible;"
       id="Arrow2Mend"
       refX="0.0"
       refY="0.0"
       orient="auto"
       inkscape:stockid="Arrow2Mend"
       inkscape:isstock="true">
      <path
         transform="scale(0.6) rotate(180) translate(0,0)"
         d="M 8.7185878,4.0337352 L -2.2072895,0.016013256 L 8.7185884,-4.0017078 C 6.9730900,-1.6296469 6.9831476,1.6157441 8.7185878,4.0337352 z "
         style="stroke:context-stroke;fill-rule:evenodd;fill:context-stroke;stroke-width:0.62500000;stroke-linejoin:round;"
         id="path2290" />
    </marker>
    <marker
       style="overflow:visible;"
       id="Arrow2Lend"
       refX="0.0"
       refY="0.0"
       orient="auto"
       inkscape:stockid="Arrow2Lend"
       inkscape:isstock="true">
      <path
         transform="scale(1.1) rotate(180) translate(1,0)"
         d="M 8.7185878,4.0337352 L -2.2072895,0.016013256 L 8.7185884,-4.0017078 C 6.9730900,-1.6296469 6.9831476,1.6157441 8.7185878,4.0337352 z "
         style="stroke:context-stroke;fill-rule:evenodd;fill:context-stroke;stroke-width:0.62500000;stroke-linejoin:round;"
         id="path2284" />
    </marker>
    <marker
       style="overflow:visible"
       id="Arrow1Mstart"
       refX="0.0"
       refY="0.0"
       orient="auto"
       inkscape:stockid="Arrow1Mstart"
       inkscape:isstock="true">
      <path
         transform="scale(0.4) translate(10,0)"
         style="fill-rule:evenodd;fill:context-stroke;stroke:context-stroke;stroke-width:1.0pt"
         d="M 0.0,0.0 L 5.0,-5.0 L -12.5,0.0 L 5.0,5.0 L 0.0,0.0 z "
         id="path2269" />
    </marker>
    <marker
       style="overflow:visible;"
       id="Arrow1Mend"
       refX="0.0"
       refY="0.0"
       orient="auto"
       inkscape:stockid="Arrow1Mend"
       inkscape:isstock="true">
      <path
         transform="scale(0.4) rotate(180) translate(10,0)"
         style="fill-rule:evenodd;fill:context-stroke;stroke:context-stroke;stroke-width:1.0pt;"
         d="M 0.0,0.0 L 5.0,-5.0 L -12.5,0.0 L 5.0,5.0 L 0.0,0.0 z "
         id="path2272" />
    </marker>
    <marker
       style="overflow:visible"
       id="marker2541"
       refX="0.0"
       refY="0.0"
       orient="auto"
       inkscape:stockid="Arrow1Lstart"
       inkscape:isstock="true">
      <path
         transform="scale(0.8) translate(12.5,0)"
         style="fill-rule:evenodd;fill:context-stroke;stroke:context-stroke;stroke-width:1.0pt"
         d="M 0.0,0.0 L 5.0,-5.0 L -12.5,0.0 L 5.0,5.0 L 0.0,0.0 z "
         id="path2539" />
    </marker>
    <marker
       style="overflow:visible;"
       id="Arrow1Lend"
       refX="0.0"
       refY="0.0"
       orient="auto"
       inkscape:stockid="Arrow1Lend"
       inkscape:isstock="true">
      <path
         transform="scale(0.8) rotate(180) translate(12.5,0)"
         style="fill-rule:evenodd;fill:context-stroke;stroke:context-stroke;stroke-width:1.0pt;"
         d="M 0.0,0.0 L 5.0,-5.0 L -12.5,0.0 L 5.0,5.0 L 0.0,0.0 z "
         id="path2266" />
    </marker>
    <marker
       style="overflow:visible"
       id="Arrow1Lstart"
       refX="0.0"
       refY="0.0"
       orient="auto"
       inkscape:stockid="Arrow1Lstart"
       inkscape:isstock="true">
      <path
         transform="scale(0.8) translate(12.5,0)"
         style="fill-rule:evenodd;fill:context-stroke;stroke:context-stroke;stroke-width:1.0pt"
         d="M 0.0,0.0 L 5.0,-5.0 L -12.5,0.0 L 5.0,5.0 L 0.0,0.0 z "
         id="path2263" />
    </marker>
    <clipPath
       clipPathUnits="userSpaceOnUse"
       id="clipPath3893">
      <rect
         style="fill:#ffffff;fill-opacity:0;stroke:#b9b9b9;stroke-width:7.66866;stroke-opacity:0.709804"
         id="rect3895"
         width="117.78513"
         height="117.78513"
         x="485.01483"
         y="1900" />
    </clipPath>
    <clipPath
       clipPathUnits="userSpaceOnUse"
       id="clipPath3897">
      <rect
         style="fill:#ffffff;fill-opacity:0;stroke:#b9b9b9;stroke-width:7.66866;stroke-opacity:0.709804"
         id="rect3899"
         width="117.78513"
         height="117.78513"
         x="485.01483"
         y="1900" />
    </clipPath>
  </defs>
  <sodipodi:namedview
     id="namedview2453"
     pagecolor="#ffffff"
     bordercolor="#666666"
     borderopacity="1.0"
     inkscape:pageshadow="2"
     inkscape:pageopacity="0.0"
     inkscape:pagecheckerboard="0"
     showgrid="false"
     inkscape:zoom="0.41601179"
     inkscape:cx="498.78394"
     inkscape:cy="1163.4286"
     inkscape:window-width="2160"
     inkscape:window-height="1190"
     inkscape:window-x="4313"
     inkscape:window-y="-7"
     inkscape:window-maximized="1"
     inkscape:current-layer="svg2451" />
  <path
     d="M637.6 1198.3l-171.3-1.8 2.7-11.5-1.9-2-3-1.5-32.4-9.1-6.5-3.1-3-1.9-2.5-2.1-4.2-5.1-2.3-5-1.4-6.8-0.5-5.3 0.7-16.2 2.3-15 2.1-7.9 2.7-6.8 0.5-4-0.4-2.3-1.4-2.5-2.2-2.2-9.5-4.5-2.5-1.7-3.5-3.5-2-2.6-2.2-4.5-1.4-7.1-1-10.4 0.2-18.7 1.5-11.1 4.8-14.2 3-2.3 3.9-1.9 5.3-1 7.6-0.5 12.2 0.3 3.5-0.9 2.7-1.7 3.3-3.7 1.2-4.3 12.8-84.5-0.1-4.6-2.9-5.9-5.4-4.8-6.6-7.1-4.3-6.8-0.7-1.5-6.2-18.3-0.4-4.3 0.3-5.6 2.7-17.4 2.6-9.3 0-6.4-2.9-16.1 2.8-5 0.6-0.6 0.7-3.1-2.7-6.6-1.6-7.5 1.7-4.3 2.5-3.1 3.5-2.9 3.1-1.4 3.2-1 17.7-0.6 5.3-1.1 12.9-4.6 2.8-1.7 2.5-2 3.3-3.9 0.7-4 0.3-6.6-2.5-23.5-4.7-15.1-1-5.2-5-12.7-3.5-5.1-8.3-7.8-1.8-2.6-1.3-2.5-0.6-2.6-0.1-5 0.6-4.7 2.2-5.4 3.9-7 8.1-10.8 2-1.6 6.9-4 15.7-0.1 17-4 16.4-1.1 16.5-2.9 51 3.9 52.1-7.2 17.7 0.6 47.4 9.8 78.3-6.6 78.1-16 122.9-13.6 0.1 10.1-2.4 8.8-8.3 16.5-2.9 8.8-0.4 17-2.1 6.1-4.9 6.2-5.1 0.8-20.8-10.9-6.8-1.2-6.4 2-6.3 6.3-2.2 3.1-0.9 2.1-0.3 6.5-1.3 3.9-8.2 12.7-6.6 14.9 0.3 6.2 4.6 7.5 22 22.9 3 4.1 0.9 5.2-1.1 7.7-3 7.3-4 3-4.8 2.3-5 4.8-2.1 5.3-2 28.2-3.3 6.5-10.5 12.6-8.5 15.7-5.8 5.4-19.5-2.2-12.6 3.4-23.3 9.6-5.3 3.9-2.8 6.6-0.8 7.5 1.2 6.4 4 10.2 2.6 10-2.3 8.6-10.6 5.9-5.7-0.3-6.3-1.2-5.3 1.6-2.4 8.1 0.4 2.3 1.7 4.1-0.4 1.7-19.8 26.1-2.4 2.1-5.2 1.8-2.3 1.7-6.3 10.2-1.3 9.1 2.2 9.1 4.1 10.4 1.2 5.5-0.1 21.3-2 6.8-6.7 12.8-10.8 33.7-4.9 10.3-8 5.5-22.1 5.8-3.8 0-3.3-1.5-3.1-2.2-3.6-1.7-3.5-0.4-10 0.3-3.4 0.7-3.5 2.2-2.7 2.9-3.2 2.3-4.3 0.6-25-2 1 8.7-0.7 20.8-1.8 9-1 2-3.7 5.5-0.8 0.7 0.6 2.7 3 1.3 1.2 2.3-0.1 5-4.1 9.3-1.2 5.1 0.4 2.9 1.7 5-0.4 3-1.7 1.7-5.5 2.5-1.8 2.5-0.1 3.8z"
     id="BEN2169"
     name="Borgou"
     style="stroke-width:6;stroke-miterlimit:4;stroke-dasharray:none" />
  <path
     d="M998.9 586.5l-122.9 13.6-78.1 16-78.3 6.6-47.4-9.8-17.7-0.6-52.1 7.2-51-3.9-16.5 2.9-16.4 1.1-17 4-15.7 0.1 3.7-2.1-1.6-105.1 0.6-5.4 1.1-4.1 3.3-5.7 6.5-7.5 19.3-16.1-10.6-10.3-3.8-2.6-2.4-0.4-6-3.1-4.1-0.7-3-0.1-16-23-63.1-114-1.5-1.7 42.6-43.8 23.7-19.4 17.4-9.8 4.5-4.4 1.1-3.1-0.2-3.7 0.2-5.8 3.5-9.3 12.4-14.1 4.6-8.6 11.7-32-0.7-3.4-3.7-5.7-0.5-3.7 1.9-4.2 2.7-0.8 3.1 0.5 2.8-0.8 2.2-2.5 2.5-4.8 2.2-2.4 3.3-0.3 3.4 1.2 2.4-0.5 0.2-5.7-0.7-4.1-2.1-1.5-3.1-0.8-3.5-1.6-3.3-2.7-2.3-2.7-1.8-3.3-11-31.1-3.1-18.5-0.3-7.5 2.8-5.8 7.9-3.6 4.4-0.6 7.5 0.3 4.1-0.4 3.5-4.6 1.7-1.2 2.4 0.6 1.8 1.9 1.7 0.5 1.8-3.4 1.5-4.1 2.3-1 3 0.5 3.9 0.1 0.9 0.8 1.5 3.3 2.4-0.2 1.9-1.1 2.9-2.8 1.5-1 11.5-3.2 1.3 0.3 2.8 1.6 1.6 0.2 2-1 3.9-2.9 2.2-0.4 11.4 3.1 3-1.8 4.5-7.2 1.1-2.5 1.5-5 1.8-2 3.5-1.4 3.4 2.4 3.4-0.9 3-2.4 5.2-6.3 3.6-2.3 3.1-0.7 6.6 0.3 3.3-0.7 7.7-0.3 3.8-5 15.6 14 6.6 3.6 3.3 3.5 2.5 4.1 2 7.5 2.7 2.7 3.6 1.9 3.8 1.4 10.8 1.3 2.7 0.8 1.2 1.8 3.2 6.1 13.1 19.5 55.8 51.2 1 1.7 4.4 3.4 1 1.8 0.8 7 1.6 7.6 2.4 6 7.4 12.6 4.6 5.4 2.7 2.5 4 2.7 4.5 1.2 4.4-2 4.5-2.8 3.9 0.8 3.4 2 3.7 1.2 14.5 9.1 11.9 4.2 3.6 2.5 2.6 2.5 10.9 15.6 5.4 4.4 1.2 2.6 1.6 5.3 1.3 2.5 0.6 2.9 1.1 2.6 2.7 1.5 3.1 5.2 2.2 1.9-7.1 7.5-22.5 38.6-3.9 14.9-2 5.1-6.5 17.8 0.5 7.6 4.9 9 58.1 82.4 7.8 7.5 2.7 0.4 3.1-0.5 3 0.1 2.7 2.7-3.3 12.8 0 7.1 1.3 6.6 2.4 6.1 3.3 5.7 6.7 29.5-0.4 9.7-7 17.4-0.4 5.7 1.6 3.9 2.6 2.8 2.9 2.4 2.4 2.8 1.6 3.6 3.1 10.8 3 3.7 4.2 1.2 4.6 0.9 4.1 2.4 3 6.4 1.6 9.6 0 8z"
     id="BEN2170"
     name="Alibori"
     style="stroke-width:6;stroke-miterlimit:4;stroke-dasharray:none" />
  <path
     d="M637.6 1198.3l7.1 89.6-2.6 11-2.6 3.9-6.4 7.3-1.7 4.1-0.1 2.9 0.8 6.1 0 3-2.5 13.6-0.4 6.3 1.2 7.8 2.5 7.2 6.4 13.7 2.2 6.9-0.2 7.2-2.5 6.1-3.4 5.4-2.5 5.6-0.9 6-0.7 19.6-4.1 20.7-1.2 20.6-1.2 3-3.3 6.2-0.7 2.5 0.3 2.7 2.7 4 3.6 9.4 7.8 8.7 2.9 4.7 0.9 4.7-3.1 44.2-66.9-0.4-4.3 0.2-4.9 13.6-0.7 9.3 2.2 8.5-0.8 3.6-4.7 1.5-3.2 2.1-10.2 14.5-3.8 7.2 0.9 7.8 2.3 8.1-58.2-26.6-22.9-7.3-18.8-1.7-17.1 0.4-15.4-2.6-12.3-8.4-12.1-10.8-17.7-7.4-14.5-3.1-65.6 3.9-6.4-0.6-0.4-122.5 1.3-89.7-3.4-28.2-1.7-3-1.9-0.6-0.9-1.4 1.6-8 0-5.7 0.5-2.8 10.7-17.7 1.2-5.8-1.4-3.2-8.4-10.6-1.6-3.7-0.5-3.9-0.1-9.8 5.8 0.5 17.5 0.6 11.4-0.9 28.2-7.6 5.3-0.9 3.9-0.3 5.5 2 2.8 1.7 2.4 2.1 8.8 9.5 2.8 1.8 3.5 1.2 2 0.3 9.9-0.1 3.5 0.9 2.5 2 4.9 6.3 2.3 2.3 5.9 3.4 9.5 2.9 1.4 0.8 3.8 3.1 3.3 1 7.9-0.1 3.9 0.7 8.9 3.3 3.9 0.6 7.7-0.3 5.5-1.6 3.9-1.8 2.8-1.8 4.6-3.5 2.5-4-1.8-1.8-2.3-7.9 4.3-28.2-5.3-29.3-2.3-4.5-3-3.9 2.4-10.2 171.3 1.8z"
     id="BEN2171"
     name="Collines"
     style="stroke-width:6;stroke-miterlimit:4;stroke-dasharray:none" />
  <path
     d="M554.8 1975.6l-15.3 1.9-6.9 1.9-5.7 3.8-4.1 3.8-3 8-17.1 1.6-26 5.8-77.5 8.9 0.2-2.8-1.2-5.9-2.7-8.5-5-7.3-1-10 1.6-6.8 9-23.1 0.9-3.9 0.3-6.7-1.1-18.5-0.3-8.9 0.4-3 1-2.8 2.4-4 4.3-4.8 0.8-2.2 0.6-3.5-0.3-6 1.7-8.4 4.3-8.9-0.3-6.4-0.6-4.1 0.5-2.7 1.2-3.3 4.6-8.2 2.7-3.1 1.5-2.9 5.1-13.1 2-3.9 1.6-4.9-3-8 97.6-0.4 11.1 18.1 3.2 13.3 1 18.9 1.7 44.8 2.3 29.7 3.6 6.4 1.8 0.4 3.3 1.5 3.8 2.7 1.4 14.9-1.3 8-5.1 12.6z"
     id="BEN2174"
     name="Atlantique"
     style="stroke-width:6;stroke-miterlimit:4;stroke-dasharray:none" />
  <path
     d="M560.1 1991.3l-40.3 3.7 3-8 4.1-3.8 5.7-3.8 6.9-1.9 15.3-1.9-1.1 6.8 2.5 2.1 3.2 1.2 0.7 5.6z"
     id="BEN2175"
     name="Littoral"
     style="stroke-width:6;stroke-miterlimit:4;stroke-dasharray:none" />
  <path
     d="M430.4 1804.7l3 8-1.6 4.9-2 3.9-5.1 13.1-1.5 2.9-2.7 3.1-4.6 8.2-1.2 3.3-0.5 2.7 0.6 4.1 0.3 6.4-4.3 8.9-19.8-9.9-10-2.9-10.8-0.4-17.7 3.8-20.4 7.6-30.5 7.2-7.1-0.1-5.5-0.7-19.1-9.2 2.6-3.4 1.3-5-1.9-7.9-2.5-6.7-1.4-5.6-0.2-5.6 2.4-13.7-0.6-4.6-3-3.5-5.3-4-3.6-5.4-6.3-23.2 24.5 0.1 5.9-1.7-0.3-48-0.5-128.5 10.5 2.2 6.9 8.3 2.4 4.1 17 36.3 1.9 8.4 1.1 2.5 1.9 2.7 0.6 2.2 0.5 6.2 1.3 2.6 2.5 3.2 5.1 3.7 12.5 16.3 2.8 5.6 4.1 2.6 5 8.7 4.2 15.3 3.1 14.2 4 6.8 4.1 2.5 5.2 4 6.8 10.4 5.2 7.5 5.3 2.7 4.4 6.7 1.5 5.7 0.7 1.5 1.7 1.7 11.1 8.2 2.8 1.2 2.1 0.2 3.4-1.4 5.4-3 2.3 2z"
     id="BEN2176"
     name="Couffo"
     style="stroke-width:6;stroke-miterlimit:4;stroke-dasharray:none" />
  <path
     d="M571.8 1780.6l-0.6 16.6 3.2 16.5 15.5 37.8 6.6 38.3 6.3 10.2 15.7 13.3 5 5.4 12.7 21.5-1 3.2-3.7 21.3-0.1 19.9-71.3 6.7-0.7-5.6-3.2-1.2-2.5-2.1 1.1-6.8 5.1-12.6 1.3-8-1.4-14.9-3.8-2.7-3.3-1.5-1.8-0.4-3.6-6.4-2.3-29.7-1.7-44.8-1-18.9-3.2-13.3-11.1-18.1 0.5-6.6 3.6-6.4 5.3-7.2 5.2-2.8 9.1-0.9 20.1 0.2z"
     id="BEN2177"
     name="Ouémé"
     style="stroke-width:6;stroke-miterlimit:4;stroke-dasharray:none" />
  <path
     d="M541.8 1639l1.8 6.2 0 14.6 1.1 2.9 1.8 2.4 1.5 3.2 0 5.1 6.1 23.2 5 10.8 15.3 10.5 1.9 2.1 0.1 1.8-0.4 5.5 7.2 36.4 1.6 14.6-1.1 1.6-1.4 0.7-4.3 0.4-6.2-0.4-20.1-0.2-9.1 0.9-5.2 2.8-5.3 7.2-3.6 6.4-0.5 6.6-97.6 0.4-2.3-2-5.4 3-3.4 1.4-2.1-0.2-2.8-1.2-11.1-8.2-1.7-1.7-0.7-1.5-1.5-5.7-4.4-6.7-5.3-2.7-5.2-7.5-6.8-10.4-5.2-4-4.1-2.5-4-6.8-3.1-14.2-4.2-15.3-5-8.7-4.1-2.6-2.8-5.6-12.5-16.3-5.1-3.7-2.5-3.2-1.3-2.6-0.5-6.2-0.6-2.2-1.9-2.7-1.1-2.5-1.9-8.4-17-36.3-2.4-4.1-6.9-8.3-10.5-2.2-0.2-28.1 6.4 0.6 65.6-3.9 14.5 3.1 17.7 7.4 12.1 10.8 12.3 8.4 15.4 2.6 17.1-0.4 18.8 1.7 22.9 7.3 58.2 26.6z"
     id="BEN2178"
     name="Zou"
     style="stroke-width:6;stroke-miterlimit:4;stroke-dasharray:none" />
  <path
     d="M635.9 1563l-0.8 10.7 1.7 12.8 6.5 12.2 9.6 11.5 7.2 12-0.9 13.6-1 4.8-1 0.7-7-1.4-3.4-0.1-2.5 1.5-0.8 3.6 6.8 80.4-0.3 4.5-1.1 3.1-2.6 3.4-3 6.2-1.4 2.2-0.3 2.2 1.2 4.3 2.8 3.5 8.5 7 1.9 3.1-1.3 3.5-3.3 1.8-4.1 1.3-3.8 1.8-8.4 11.7 1 11.9 4.4 12.5 1.6 13.7-3.4 13.7-0.9 7.1 1.6 6.4 2.5 3.3 2.8 2 3.3 1 4 0.4 1.9 1.5 0.7 3.3 1 15-1.8 3.7-4 2.7-5.8 5.2-3.8 7-0.1 6.7 2.8 13.8-0.6 6.9-6.1 17.5-12.7-21.5-5-5.4-15.7-13.3-6.3-10.2-6.6-38.3-15.5-37.8-3.2-16.5 0.6-16.6 6.2 0.4 4.3-0.4 1.4-0.7 1.1-1.6-1.6-14.6-7.2-36.4 0.4-5.5-0.1-1.8-1.9-2.1-15.3-10.5-5-10.8-6.1-23.2 0-5.1-1.5-3.2-1.8-2.4-1.1-2.9 0-14.6-1.8-6.2-2.3-8.1-0.9-7.8 3.8-7.2 10.2-14.5 3.2-2.1 4.7-1.5 0.8-3.6-2.2-8.5 0.7-9.3 4.9-13.6 4.3-0.2 66.9 0.4z"
     id="BEN2179"
     name="Plateau"
     style="stroke-width:6;stroke-miterlimit:4;stroke-dasharray:none" />
  <path
     d="M410.8 1874.2l-1.7 8.4 0.3 6-0.6 3.5-0.8 2.2-4.3 4.8-2.4 4-1 2.8-0.4 3 0.3 8.9 1.1 18.5-0.3 6.7-0.9 3.9-9 23.1-1.6 6.8 1 10 5 7.3 2.7 8.5 1.2 5.9-0.2 2.8-33.5 3.8-85.9 19.9-2.3-6.8 6.7-3.6 41.6-9.9 6.8-0.4-6.1-23.9-6.3-24.5-8.4-13.5-2.8-2.1-6.9-3.6-2.2-1.8-0.7-2.8 0.8-7-0.4-3.3-2-2.8-5.4-4.4-0.9-2.3-0.4-3.7-2.3-0.9-3.2 0.3-3.1-0.3-2.5-1.5-2.7-2.2-2.6-2.6-1.9-2.7-1.1-3.3 0.8-5.8-0.1-2.5-3.5-6.5-4.2-3.5-2.1-3.6 2.7-7.4 4.8-6.5 19.1 9.2 5.5 0.7 7.1 0.1 30.5-7.2 20.4-7.6 17.7-3.8 10.8 0.4 10 2.9 19.8 9.9z"
     id="BEN2180"
     name="Mono"
     style="stroke-width:6;stroke-miterlimit:4;stroke-dasharray:none" />
  <path
     d="M408.2 321.8l1.5 1.7 63.1 114 16 23 3 0.1 4.1 0.7 6 3.1 2.4 0.4 3.8 2.6 10.6 10.3-19.3 16.1-6.5 7.5-3.3 5.7-1.1 4.1-0.6 5.4 1.6 105.1-3.7 2.1-6.9 4-2 1.6-8.1 10.8-3.9 7-2.2 5.4-0.6 4.7 0.1 5 0.6 2.6 1.3 2.5 1.8 2.6 8.3 7.8 3.5 5.1 5 12.7 1 5.2 4.7 15.1 2.5 23.5-0.3 6.6-0.7 4-3.3 3.9-2.5 2-2.8 1.7-12.9 4.6-5.3 1.1-17.7 0.6-3.2 1-3.1 1.4-3.5 2.9-2.5 3.1-1.7 4.3 1.6 7.5-92.1-3-12.2 4.6-11.4 6.6-10.7 8.8-13.7 6.9-16.3 3.9-20.5-2.2-13.8-3.2-15.8-1.9-13.6-0.4-18.4 3.6-4.1 1.6 0-2.6-4.2-11.2-80.7-54-77.1-51.7-24.5-16.4-2.6-5-0.3-7.6 4.5-33.9 4.8-18.4 0.2-12.9-2.6-29.7 4.7-11.1 17.6-16.9 4.2-6.1 1-3.4 0.5-7.5 0.7-3.5 5-9.8-0.4-3.5-2.8-6.8-0.7-3.5 0.9-6.6 8.3-20.3 9.9 5.5 4.4 0.6 5.8 0 1.3-1.7 0.8-3.9-0.3-3.9-1.8-1.7-2.6-1.3-1.2-3-0.1-3.7 0.3-3.3 1.2-0.8 2.7-4.2 1.9-4 2.2-2.9 1.4-0.6 1.5 0.5 7.1 1.2 3.9 3.1 2.6 1.4 2.3 4 2.1-0.1 4.8-2.1 9.9 1.1 3.3 1.1 3.2 4.9 2.4 2.2 1.1-1.5 0.3-5.3-3.7-3.8-2-3.5-0.5-3.6-0.1-3.7-0.7-3.9-4.6-2.1-0.2-1.5 0.6-4.1-0.4-1.4-3-0.7-2.1 1.9-1.2 0.4-0.3-5 1.6-0.7 10.7-2.4 1.9-1.4 2.2-6 1.5-1.7 3.4 0.1 6.5 3.1 3.3 1.1-1.6-5.7-1.3-11.2-6.1-10.1 1.6-4.1 3.4-3.2 3.4-5.2 3.1 2.5 2.4 3.8-0.4 1.6 2.8 0.1 3.4-1.9 2.8-0.6 6.2 0.3 5.2 1.5 10.8 5.1 4.1-7.6 0.5-2.6-0.7-3.3-3.2-3.1-0.7-2.6 1.6-4 3.6 1.8 3.8 4.3 2.1 3.6 2.2-2.7 2.2-1 2.4 1 2.2 2.7 5.7-4.9-0.7-4.2-3.1-4.5-1.9-5.7 2.8-6.3 6.5-4.2 7.3-3.2 5.4-3.3-3.1-7.1 0.4-2.8 2.7-3.9 4.2-3.2 4-1.3 3.4-1.8 1.8-4.8 5.3 3 6.3 1.3 30.5 2.5-0.7 2.2-1.3 6.8 5.6-0.3 6.9 12.7 6.3-2.2 5.5-3 15-3.2 6.2-3 5.1-1.6 14.3 1.1 6.1-0.5 12.8-5.1 6.2-1.3 5.6 1.7 3.1-2.1 4 0.6 8.4 4 13.7 5.3 11.5 0.9 8.8-4.3 1.6-1.5z"
     id="BEN2181"
     name="Atacora"
     style="stroke-width:6;stroke-miterlimit:4;stroke-dasharray:none" />
  <path
     d="M433 784l2.7 6.6-0.7 3.1-0.6 0.6-2.8 5 2.9 16.1 0 6.4-2.6 9.3-2.7 17.4-0.3 5.6 0.4 4.3 6.2 18.3 0.7 1.5 4.3 6.8 6.6 7.1 5.4 4.8 2.9 5.9 0.1 4.6-12.8 84.5-1.2 4.3-3.3 3.7-2.7 1.7-3.5 0.9-12.2-0.3-7.6 0.5-5.3 1-3.9 1.9-3 2.3-4.8 14.2-1.5 11.1-0.2 18.7 1 10.4 1.4 7.1 2.2 4.5 2 2.6 3.5 3.5 2.5 1.7 9.5 4.5 2.2 2.2 1.4 2.5 0.4 2.3-0.5 4-2.7 6.8-2.1 7.9-2.3 15-0.7 16.2 0.5 5.3 1.4 6.8 2.3 5 4.2 5.1 2.5 2.1 3 1.9 6.5 3.1 32.4 9.1 3 1.5 1.9 2-2.7 11.5-2.4 10.2 3 3.9 2.3 4.5 5.3 29.3-4.3 28.2 2.3 7.9 1.8 1.8-2.5 4-4.6 3.5-2.8 1.8-3.9 1.8-5.5 1.6-7.7 0.3-3.9-0.6-8.9-3.3-3.9-0.7-7.9 0.1-3.3-1-3.8-3.1-1.4-0.8-9.5-2.9-5.9-3.4-2.3-2.3-4.9-6.3-2.5-2-3.5-0.9-9.9 0.1-2-0.3-3.5-1.2-2.8-1.8-8.8-9.5-2.4-2.1-2.8-1.7-5.5-2-3.9 0.3-5.3 0.9-28.2 7.6-11.4 0.9-17.5-0.6-5.8-0.5-0.6-43.9-1.4-107.3-1.7-9-2.6-7.9-6.7-11.8-46-48.5-7.8-12.1-4.7-13.1-2.2-33.4-3.8-9.3-5.5 2.7-4.8-4.9-3.3-8-1-6.7 1.3-4.3 5.8-8.9 2-4.2 0.4-3.3-0.1-6.6 0.7-3.3 0.5-4-2.5-15.4-1-61.5-0.4-24.2 4.1-1.6 18.4-3.6 13.6 0.4 15.8 1.9 13.8 3.2 20.5 2.2 16.3-3.9 13.7-6.9 10.7-8.8 11.4-6.6 12.2-4.6 92.1 3z"
     id="BEN2182"
     name="Donga"
     style="stroke-width:6;stroke-miterlimit:4;stroke-dasharray:none" />
  <circle
     cx="805.6"
     cy="858.1"
     id="0" />
  <circle
     cx="924.4"
     cy="526.6"
     id="1" />
  <circle
     cx="51.2"
     cy="563.2"
     id="2" />
  <g
     style="fill:#7c7c7c;stroke:#ffffff;stroke-width:2;stroke-linecap:round;stroke-linejoin:round"
     id="g3964"
     transform="matrix(1.4041451,0,0,1.5052306,763.84879,1653.4332)">
    <path
       d="m 554.8,1975.6 -15.3,1.9 -6.9,1.9 -5.7,3.8 -4.1,3.8 -3,8 -17.1,1.6 -26,5.8 -77.5,8.9 0.2,-2.8 -1.2,-5.9 -2.7,-8.5 -5,-7.3 -1,-10 1.6,-6.8 9,-23.1 0.9,-3.9 0.3,-6.7 -1.1,-18.5 -0.3,-8.9 0.4,-3 1,-2.8 2.4,-4 4.3,-4.8 0.8,-2.2 0.6,-3.5 -0.3,-6 1.7,-8.4 4.3,-8.9 -0.3,-6.4 -0.6,-4.1 0.5,-2.7 1.2,-3.3 4.6,-8.2 2.7,-3.1 1.5,-2.9 5.1,-13.1 2,-3.9 1.6,-4.9 -3,-8 97.6,-0.4 11.1,18.1 3.2,13.3 1,18.9 1.7,44.8 2.3,29.7 3.6,6.4 1.8,0.4 3.3,1.5 3.8,2.7 1.4,14.9 -1.3,8 z"
       id="BEN2174-7"
       clip-path="url(#clipPath3897)"
       transform="translate(-481.1805,-1896.1657)" />
    <path
       d="m 78.919499,95.13433 -40.3,3.7 3,-8 4.1,-3.8 5.7,-3.8 6.9,-1.9 15.3,-1.9 -1.1,6.8 2.5,2.1 3.2,1.2 z"
       id="BEN2175-3"
       name="Littoral" />
    <path
       d="m 571.8,1780.6 -0.6,16.6 3.2,16.5 15.5,37.8 6.6,38.3 6.3,10.2 15.7,13.3 5,5.4 12.7,21.5 -1,3.2 -3.7,21.3 -0.1,19.9 -71.3,6.7 -0.7,-5.6 -3.2,-1.2 -2.5,-2.1 1.1,-6.8 5.1,-12.6 1.3,-8 -1.4,-14.9 -3.8,-2.7 -3.3,-1.5 -1.8,-0.4 -3.6,-6.4 -2.3,-29.7 -1.7,-44.8 -1,-18.9 -3.2,-13.3 -11.1,-18.1 0.5,-6.6 3.6,-6.4 5.3,-7.2 5.2,-2.8 9.1,-0.9 z"
       id="BEN2177-3"
       clip-path="url(#clipPath3893)"
       transform="translate(-481.1805,-1896.1657)" />
    <circle
       cx="324.41946"
       cy="-1038.0657"
       id="0-4"
       r="0" />
    <circle
       cx="443.21951"
       cy="-1369.5657"
       id="1-5"
       r="0" />
    <circle
       cx="-429.9805"
       cy="-1332.9657"
       id="2-2"
       r="0" />
    <rect
       style="fill:#ffffff;fill-opacity:0;stroke:#b9b9b9;stroke-width:7.66866;stroke-opacity:0.709804"
       id="rect3923"
       width="117.78516"
       height="117.78516"
       x="3.8343301"
       y="3.8343301" />
  </g>
  <path
     style="fill:none;stroke:#000000;stroke-width:2.78551181;stroke-linecap:butt;stroke-linejoin:miter;stroke-miterlimit:4;stroke-dasharray:none;stroke-opacity:1;marker-end:url(#Arrow1Mend);marker-mid:url(#Arrow2Lend);marker-start:url(#marker2541)"
     d="m 553.7,1982.4 c 267.48861,-185.4402 267.48861,-185.4402 267.48861,-185.4402 v 0 z"
     id="path1420"
     inkscape:transform-center-x="-10.498104"
     inkscape:transform-center-y="-11.053295" />
</svg>
