<?xml version="1.0" encoding="UTF-8" standalone="no"?>
<svg
   version="1.1"
   height="75.566177"
   width="75.163643"
   id="svg3733"
   inkscape:version="1.1.1 (3bf5ae0d25, 2021-09-20)"
   sodipodi:docname="benin-test.svg"
   viewBox="210 335 127.77894 128.46326"
   xmlns:inkscape="http://www.inkscape.org/namespaces/inkscape"
   xmlns:sodipodi="http://sodipodi.sourceforge.net/DTD/sodipodi-0.dtd"
   xmlns="http://www.w3.org/2000/svg"
   xmlns:svg="http://www.w3.org/2000/svg"
   xmlns:rdf="http://www.w3.org/1999/02/22-rdf-syntax-ns#"
   xmlns:cc="http://creativecommons.org/ns#"
   xmlns:dc="http://purl.org/dc/elements/1.1/">
  <sodipodi:namedview
     pagecolor="#ffffff"
     bordercolor="#666666"
     borderopacity="1"
     objecttolerance="10"
     gridtolerance="10"
     guidetolerance="10"
     inkscape:pageopacity="0"
     inkscape:pageshadow="2"
     inkscape:window-width="2160"
     inkscape:window-height="1190"
     id="namedview3878"
     showgrid="false"
     inkscape:zoom="1.7062791"
     inkscape:cx="240.58198"
     inkscape:cy="-5.8607059"
     inkscape:window-x="4313"
     inkscape:window-y="-7"
     inkscape:window-maximized="1"
     inkscape:current-layer="svg3733"
     inkscape:pagecheckerboard="0"
     fit-margin-top="0"
     fit-margin-left="0"
     fit-margin-right="0"
     fit-margin-bottom="0"
     scale-x="1.10001"
     viewbox-x="200"
     viewbox-y="335"
     viewbox-width="503.50857"
     width="95.16364px" />
  <metadata
     id="metadata24111">
    <rdf:RDF>
      <cc:Work
         rdf:about="">
        <dc:format>image/svg+xml</dc:format>
        <dc:type
           rdf:resource="http://purl.org/dc/dcmitype/StillImage" />
        <cc:license
           rdf:resource="http://web.resource.org/cc/PublicDomain" />
      </cc:Work>
      <cc:License
         rdf:about="http://web.resource.org/cc/PublicDomain">
        <cc:permits
           rdf:resource="http://web.resource.org/cc/Reproduction" />
        <cc:permits
           rdf:resource="http://web.resource.org/cc/Distribution" />
        <cc:permits
           rdf:resource="http://web.resource.org/cc/DerivativeWorks" />
      </cc:License>
    </rdf:RDF>
  </metadata>
  <defs
     id="defs1930" />
  <style
     type="text/css"
     id="style_css_sheet">
/*
 * Below are Cascading Style Sheet (CSS) definitions in use in this file,
 * which allow easily changing how countries are displayed.
 *
 */

/*
 * Circles around small countries
 *
 * Change opacity to 1 to display all circles.
 *
 */
.circle
{
   opacity:0;
   fill:#b9b9b9;
   fill-opacity:1;
   stroke:black;
   stroke-width:0.5;
   stroke-miterlimit:3.97446823;
   stroke-dasharray:none;
   stroke-opacity:1;
}


/*
 * Land
 */
.land
{
   fill: #b9b9b9;
   fill-opacity: 1;
   stroke:white;
   stroke-opacity: 1;
   stroke-width:0.5;
   stroke-miterlimit: 3.97446823;
   stroke-dasharray: none;
}

/*
 * Styles for coastlines of islands with no borders
 */
.coast
{
   stroke-width: 0.3;
}

/*
 * Additional style rules
 *
 * The following are examples of colouring countries.  You can substitute these with your own styles to colour the countries on the map.
 *
 * Color a few countries:
 *
 * .gb, .au, .nc
 * {
 *    fill:       #ff0000;
 * }
 *
 * Color a few small country circles (and the countries):
 *
 * .ms, .ky
 * {
 *    opacity:    1;
 *    fill:       #ff0000;
 * }
 *
 * Remove european territories (i.e. Madeira, Reunion etc.)
 *
 * .sh, .pt-30, .es-cn, .yt, .re
 * {
 *    opacity:    0;
 * }
 *
 */

</style>
  <g
     style="fill:#000080;fill-opacity:1;stroke:#b9b9b9;stroke-width:0;stroke-miterlimit:3.97447;stroke-dasharray:none;stroke-opacity:1"
     id="sl"
     class="land coast sl"
     transform="matrix(1.59433,0,0,1.59433,-1823.1102,-756.17673)" />
  <g
     style="fill:#000080;fill-opacity:1;stroke:#b9b9b9;stroke-width:0;stroke-miterlimit:3.97447;stroke-dasharray:none;stroke-opacity:1"
     id="gw"
     class="land coast gw"
     transform="matrix(1.59433,0,0,1.59433,-1823.1102,-756.17673)" />
  <g
     style="fill:#000080;fill-opacity:1;stroke:#b9b9b9;stroke-width:0;stroke-miterlimit:3.97447;stroke-dasharray:none;stroke-opacity:1"
     id="mr"
     class="land coast mr"
     transform="matrix(1.59433,0,0,1.59433,-1823.1102,-756.17673)" />
  <g
     style="fill:#000080;fill-opacity:1;stroke:#b9b9b9;stroke-width:0;stroke-miterlimit:3.97447;stroke-dasharray:none;stroke-opacity:1"
     id="gn"
     class="land coast gn"
     transform="matrix(1.59433,0,0,1.59433,-1823.1102,-756.17673)" />
  <g
     style="fill:#000080;fill-opacity:1;stroke:#b9b9b9;stroke-width:0;stroke-miterlimit:3.97447;stroke-dasharray:none;stroke-opacity:1"
     id="ng"
     class="land coast ng"
     transform="matrix(1.59433,0,0,1.59433,-1823.1102,-756.17673)" />
  <path
     id="gm"
     style="fill:#b9b9b9;fill-opacity:1;stroke:#b9b9b9;stroke-width:0.6;stroke-miterlimit:0;stroke-dasharray:none;stroke-dashoffset:0;stroke-opacity:1"
     class="land gm"
     d="m 47.8807,342.2657 c 2.25757,-1.76811 1.9403,-1.66926 3.07068,0.82108 0.85615,1.8861 3.52028,-0.64889 4.85154,0.32844 -2.85703,-1.47476 5.89743,-2.34208 6.42515,-2.64021 -2.25916,-0.14031 -4.97271,-0.051 -7.07404,0.87209 -1.80797,0.79398 -2.85066,1.32011 -3.98901,-0.77484 -1.014,-1.86696 1.02196,-1.89406 2.31656,-1.79522 3.40708,0.25669 6.86519,0.0925 10.28024,0.0925 0.88166,0 0.51019,-2.75978 2.53339,-2.18582 1.62781,0.46235 3.21576,-1.53215 4.88981,-0.65368 0.84659,0.44482 1.0411,1.54013 1.87812,2.03756 0.80833,0.47989 1.56404,-0.39061 2.40585,0.01 0.89123,0.42409 0.61381,1.7713 1.60389,2.19061 1.05066,0.44482 2.38352,-0.3922 3.35766,-0.68556 1.15748,-0.34756 3.95075,-0.1116 3.769,1.67405 -0.16581,1.64056 -2.79837,2.22409 -4.09105,2.41062 -5.43922,0.78489 -11.20288,-5.48905 -11.99766,-3.99206 -0.922,1.73692 -1.1409,2.32003 -4.51514,2.27004 -1.19431,-0.0177 -4.48772,0.70006 -3.7623,2.51441 0.1419,0.35394 -10.65028,-0.86037 -11.0967,1.69853 -0.65208,-1.26909 -1.1079,-2.78268 -0.85599,-4.19207 m 212.58796,36.61811 c 0.54558,-1.25208 0.67536,-3.1358 1.55144,-4.09504 0.8214,-0.89944 1.08271,-0.74881 1.84401,-1.536 1.57456,-1.62777 4.08036,-6.21673 6.18073,-4.05398 0.65001,0.66933 7.14723,-0.94265 8.40834,-3.15253 0.80849,-1.41667 1.90315,-3.32258 1.86967,-5.01257 -0.0207,-1.02197 -1.31452,-3.39277 0.33704,-3.73922 1.04301,-0.2188 2.49928,0.0646 2.95366,-0.60533 1.65204,-2.4355 3.75002,0.24071 4.98116,1.62955 0.87768,0.98998 1.41131,1.81927 2.27065,2.83008 1.01399,1.18937 2.40983,2.37367 3.41904,3.78624 0.5612,0.78601 -0.68237,2.74544 -0.86253,3.52507 -0.41134,1.79202 1.28503,3.27156 2.16669,4.62036 1.02516,1.56882 0.20248,3.2078 0.87051,4.66023 0.79876,1.74101 1.81594,3.05576 0.69672,4.92909 -0.59309,0.99327 -1.88849,0.0666 -2.28372,1.20205 -0.60282,1.73151 1.82152,2.96042 -0.30069,5.34006 -0.9558,1.07175 -2.26682,1.36453 -2.96832,2.6097 -0.65208,1.16067 -0.87609,2.31889 -1.83109,3.50029 -1.8287,2.26713 0.9735,5.38129 -2.93261,6.34427 -1.30735,0.32205 -2.09495,-0.26763 -2.33091,1.24539 -0.22002,1.4078 -0.98195,2.75728 -0.9059,4.17758 0.18622,3.48201 0.13233,6.96464 -0.12117,10.41735 -0.1132,1.52652 1.43219,4.56614 1.17741,6.72807 -0.22464,1.90497 -0.26226,3.57183 -0.54765,5.23738 -0.42314,2.47035 0.50397,3.47092 0.31966,4.78058 -0.2063,1.46745 -1.12958,3.65127 -0.96138,4.66286 -1.58986,0.0311 -4.33259,0.37763 -5.89503,0.68852 -2.43295,0.48468 -4.87546,0.9279 -7.33392,1.26271 0.58193,-0.52613 1.2659,-0.79397 2.05668,-0.80354 -0.10522,-1.23879 -0.96217,-2.56123 -1.56961,-3.6103 -0.94544,-1.63259 -1.19336,-4.34933 -1.45961,-6.17803 0.24903,-0.0234 1.54921,-0.39933 1.38069,-3.74275 -0.30675,-6.08434 -0.051,-12.27475 -0.0701,-18.40973 -0.016,-3.46924 -0.16374,-6.10708 -2.09607,-9.05818 -1.83348,-2.79646 -1.24708,-6.05181 -1.34928,-9.16341 -0.0797,-2.43702 -3.73328,-3.60732 -5.5387,-5.29318 -1.6868,-1.5752 -1.24948,-3.74189 -1.1256,-5.72364 m -149.67591,52.23025 c 1.65651,-0.61063 1.71359,-3.23394 2.89339,-4.43288 2.16191,-2.19699 4.77693,-4.07925 6.83202,-6.38784 1.34721,-1.51302 0.40177,-3.53304 1.45563,-4.87387 1.56085,-1.98335 2.54678,-0.85598 3.58883,-3.78972 0.41995,-1.1822 8e-4,-1.35808 0.28236,-1.61058 -2.17674,-0.72519 2.18917,-0.68465 3.28894,-0.30262 1.07267,0.37263 1.69478,-0.8705 2.72631,-0.80992 1.42055,0.0845 2.48715,1.76812 3.4852,2.57803 -0.67121,0.85775 -0.32046,1.69478 0.0303,2.57325 0.25829,0.6473 -0.16262,2.15873 0.55961,1.44606 0.77007,3.37041 0.40496,6.39645 -0.7015,9.64251 2.16191,-0.80833 4.34933,-0.38105 4.48007,2.29424 2.60035,-1.0411 3.6829,-1.81435 4.52152,-4.50717 0.24712,-0.79398 0.47192,-2.34367 1.53055,-2.49991 1.16865,-0.17378 2.21835,2.33474 2.63129,3.23872 1.49069,3.262 1.49181,5.01701 0.95436,8.51691 -0.23819,1.55087 -1.21918,2.88788 -1.91415,3.08395 -0.9271,0.32715 -1.46439,1.30276 -1.61219,1.43242 0.10682,0.37872 0.7546,1.02512 2.6096,1.06793 -0.92025,3.36157 5.83142,0.62358 6.52049,3.12494 0.24569,0.89161 -0.21922,2.12388 1.63451,3.34359 1.4628,0.9625 2.90838,2.19257 3.44854,3.71765 1.25441,3.54198 0.0207,5.55568 -0.48532,7.39576 -1.12831,4.10513 -2.64324,6.95724 -0.77644,10.82905 -1.89725,0.35713 -3.39209,-0.41774 -4.92424,-1.29143 -2.02002,-1.15111 -4.47688,-1.31214 -6.31515,-2.82356 -3.34649,-2.74703 -7.69902,-3.99858 -10.80158,-7.07883 -3.46289,-3.44056 -6.21948,-7.54277 -9.74614,-10.91478 -1.10806,-1.06023 -9.28538,-3.89176 -7.36102,-5.73002 -1.48751,0.14986 -3.32099,-2.14438 -4.59167,-2.75501 -2.54615,-1.22444 -2.32454,-2.64499 -4.24411,-4.47687 M 249.00543,373.0299 c 2.3612,0.62178 4.77996,0.85452 7.02462,1.86058 1.82327,0.81719 4.68095,0.32339 6.03884,-0.31554 -0.93906,2.6434 -2.93947,7.14724 -0.80785,9.70295 1.20691,1.44766 5.6248,3.08663 5.81612,5.05084 0.28379,2.93676 -0.37467,6.34065 1.12241,9.02231 1.67723,3.00532 2.48667,5.05722 2.4229,8.62533 -0.11001,6.21151 -0.0733,12.38794 0.0925,18.60424 0.0255,0.97094 0.31727,4.66819 -1.39663,4.61558 0.57874,1.79841 0.2519,3.83915 1.11125,5.55624 0.69831,1.39823 1.73303,2.69442 1.87015,4.31426 -2.53021,0.23596 -5.05881,1.37591 -7.34987,2.41222 -0.0159,-1.1798 -2.95748,-2.66253 -3.74189,-3.36722 -1.68042,-1.51143 -2.98203,-2.54594 -4.04386,-4.49262 -1.44127,-2.64659 1.3606,-5.24236 1.27451,-7.93838 -0.0574,-1.79681 -2.0535,-1.98334 -1.68999,-3.71638 0.43685,-2.09017 1.61506,-3.2604 1.34243,-5.56102 -0.14509,-1.21807 -0.39061,-2.48078 -0.016,-3.68769 0.23756,-0.75571 1.30895,-1.45084 1.05545,-2.29583 -0.70948,-2.36439 -3.093,-3.39593 -3.94597,-5.55784 2.67369,-0.25668 0.89602,-4.04162 1.69637,-5.75712 0.44004,-0.94225 0.5357,-2.52542 0.0622,-3.47405 -0.91355,-1.8271 -2.25757,0.16103 -3.59203,-0.067 0.74296,-1.00443 0.0255,-2.21452 1.72188,-1.95305 -0.36032,-1.89247 0.98051,-5.14331 0.34278,-6.72648 -1.0969,-2.72471 0.85297,-3.01807 -1.95465,-4.61559 -1.462,-0.83224 -3.5139,-3.67652 -3.33055,-5.41753 0.14349,-1.36794 1.42852,-2.22569 0.88485,-3.70363 -0.21842,-0.5899 -1.54969,-0.6186 -2.01683,-1.11762 M 42.141111,323.43985 c -0.701505,-0.0175 -1.312134,0.21205 -1.83348,0.68876 -0.20248,-1.95625 3.458102,-2.57006 4.590076,-3.69726 2.466433,-2.46005 4.444993,-5.76509 5.889453,-8.90752 0.69194,-1.50505 4.02569,-15.84764 7.53321,-12.55535 1.57679,1.48114 9.95978,-0.01 11.30221,-1.5736 2.07263,-2.417 10.21328,0.29495 11.93037,2.34685 2.31975,2.77095 2.60992,3.89495 6.4108,4.28237 2.06785,0.21046 4.36527,4.25527 3.92843,6.25616 -0.20248,0.9263 2.80761,2.55889 3.33853,3.53781 0.66324,1.22285 0.98848,2.645 1.94986,3.69088 0.94225,1.02515 2.85704,1.14951 3.48042,2.41062 0.91037,1.84305 3.67653,2.86502 3.93003,5.01577 0.11479,0.96297 -1.47795,2.09176 -0.37308,3.07865 0.91674,0.81948 1.56723,1.35358 1.70753,2.76138 0.14987,1.4891 1.45084,5.09388 0.23915,6.21948 -1.25952,0.27422 -1.37272,0.88645 -0.3364,1.83826 0.2535,0.70151 0.65686,1.29141 1.21009,1.76652 1.09371,0.61541 0.0319,1.80797 1.57042,2.24322 0.83064,-3.25881 3.45013,2.40106 3.90451,3.29548 0.67759,1.33446 1.04748,2.34048 0.66803,3.88857 -0.42888,1.75377 0.73498,4.00655 0.13073,5.44145 -1.98334,-0.85297 -4.14047,0.48149 -6.24021,0.11479 -2.18582,-0.38104 -3.44789,0.8964 -5.51319,1.17821 -2.11089,0.28805 -5.50203,-3.46285 -7.27174,-2.28786 -1.38308,0.91833 -0.87656,-1.67188 -1.17502,-1.76014 -1.86808,-0.55241 -1.23465,-0.8795 -2.8124,-0.88224 l -20.15695,-0.0351 c -2.63718,-0.005 -3.74237,0.1529 -5.73018,1.72245 -1.74261,1.37591 -4.13426,1.24837 -6.72648,1.15749 -2.24498,-0.0788 -3.81189,1.26038 -5.90843,1.59678 -1.04907,0.169 -2.16048,-0.18261 -3.08519,0.4599 -0.21204,-0.51975 -1.31373,-1.64853 -0.73817,-2.27989 1.44606,-1.58795 2.27032,-2.37396 4.18193,-1.16067 1.44286,0.91674 3.23649,-0.5054 4.77023,-0.5357 1.12241,-0.0223 1.67883,0.84181 2.82356,0.4783 0.88804,-0.28219 1.30576,-0.0941 2.13002,0.17379 1.46519,0.4767 1.35997,-3.21736 3.01488,-3.79292 -2.46005,0.17698 -1.03312,2.26236 -2.53498,3.32897 -1.29141,0.91833 -4.74473,-0.30612 -5.16563,-1.83667 -0.89602,3.85349 -8.58387,1.04907 -6.88751,-0.91834 -0.72063,1.03472 -0.66962,2.76457 -2.16829,3.09938 -0.25828,-0.94544 0,-1.70912 0.79717,-2.29424 -2.04872,0.4512 -0.91036,-2.62746 -0.46076,-4.00017 0.6744,-2.0551 3.0018,-2.17807 4.83975,-2.18293 l 6.56529,-0.0174 c 1.21089,0.67297 -1.39648,-0.43313 0.74216,-1.83971 1.86712,-1.22803 3.79929,-0.38902 5.63436,-0.90877 2.03915,-0.57874 0.95309,-3.48233 3.6558,-1.79942 3.78175,2.35487 7.57115,4.8153 11.94807,3.3588 1.67293,-0.5567 3.5434,-2.19057 1.39982,-3.3343 -2.68135,-1.43059 -3.22453,0.61415 -5.32203,0.5154 -2.13114,-0.10028 -1.5768,-3.28272 -4.02569,-2.3054 -0.9263,0.36988 -1.77433,-0.91416 -2.07581,-1.53375 -0.62163,-1.27737 -2.60482,-0.83326 -3.79754,-0.0996 -1.70003,1.04543 -2.07295,-0.60183 -2.96673,0.32628 -0.65272,0.6777 -0.41995,1.54093 -1.25282,2.00522 l -11.95907,-0.0614 c 0.48627,-0.9853 -0.46475,-1.6523 -1.66528,-1.77985 0.1961,-0.95181 0.81151,-1.33605 1.72188,-0.91833 -0.21205,-0.97892 -0.13712,-1.93552 0.2232,-2.8698 -0.69513,1.31533 -1.5465,2.29743 -3.093,2.52542 -0.41452,-1.27706 3.30186,-4.555 4.59167,-4.70646 -1.4046,-0.59469 -5.17519,2.80443 -5.16563,4.1325 0.002,-3.77218 -2.306992,-10.60389 -6.311949,-12.0611 M 283.09216,417.7986 c 1.4333,-4.97431 -0.63295,-10.89406 1.55607,-15.59414 0.5341,-1.14951 2.55571,-0.13233 3.51549,-1.2372 1.64057,-1.89247 0.14828,-4.18512 1.83189,-6.07918 1.10168,-1.24039 1.0395,-3.20301 2.38352,-3.98583 1.40939,-0.82267 3.51391,-2.57643 2.82516,-4.57891 -0.5341,-1.55448 -1.24358,-2.84269 0.83064,-3.26838 2.91125,-0.59628 0.56121,-4.75907 0.25988,-6.00744 -0.3093,-1.27227 0.13233,-2.39149 -0.5341,-3.62231 -0.57237,-1.05704 -1.46041,-1.89726 -2.01045,-2.96865 -1.12719,-2.19698 0.51018,-4.05597 1.16067,-6.09831 0.78441,-2.46005 0.23277,-5.08272 0.40974,-7.63524 0.21364,-3.08344 1.0411,-3.71958 3.19982,-5.84163 1.8574,-1.8271 2.66253,-4.5837 2.59717,-7.12506 -0.0542,-2.14437 1.42692,-3.42143 2.96386,-4.70008 1.81115,-1.50505 4.03684,-1.91958 6.3263,-2.01046 2.99574,-0.11957 4.60921,-1.20053 7.35624,-1.89565 1.60867,-0.40815 3.70681,1.43808 5.03648,2.10451 2.28946,1.14951 4.67299,0.4783 6.66111,2.40266 1.75377,1.69955 2.5876,3.72754 3.77857,5.78263 0.45119,0.77963 1.06342,1.60709 1.96421,1.90044 1.89247,0.61701 2.16032,-1.50823 3.67015,-1.67404 5.0333,-0.55642 6.68502,-5.06838 11.94631,-1.33286 0.72702,0.51497 1.53534,1.12241 2.00886,1.89406 0.22958,0.37467 1.60868,0.18654 2.00886,0.40177 2.19379,1.17502 3.06749,2.8124 5.90539,2.91922 1.6597,0.0638 5.1194,0.97254 6.56067,0.33162 2.03915,-0.90717 2.73747,-3.55057 4.48485,-4.86908 4.20584,-3.17272 10.56244,-3.44535 15.59096,-2.96864 2.63702,0.25031 4.99503,0.95819 7.33232,2.1906 1.95784,1.03313 4.42267,2.55412 6.72329,1.70913 2.20974,-0.81152 3.35447,-3.33853 5.172,-4.70806 0.99646,-0.75093 1.96741,-1.45243 3.25563,-1.52259 1.96262,-0.10522 0.60138,-0.50994 1.6868,-1.23401 4.18049,-2.78853 5.51702,1.16606 7.04056,4.00236 1.29491,2.41055 3.89527,2.60595 3.27427,9.28782 -0.0686,0.73881 1.07841,3.68349 1.73208,4.20962 0.80674,0.64889 1.418,0.0478 2.41366,0.40772 5.1736,1.87024 0.46666,6.97323 2.03437,9.40176 1.99881,3.09632 -4.41247,5.47574 -6.73525,5.23274 -3.50099,-0.3663 -4.75286,7.26681 -5.66481,10.02819 -0.51816,1.56882 -0.81343,3.22692 -1.28854,4.79255 -0.53091,1.74898 -2.49481,1.482 -2.53945,3.45737 -0.0399,1.76811 0.39157,4.01512 -0.96999,5.58394 -1.15111,1.32648 -2.80443,1.92131 -4.35252,2.7121 1.72187,0.33799 0.0159,4.74472 -0.11161,5.74118 -0.35553,2.85544 -2.19858,4.48485 -5.05402,4.59167 0.26625,1.49389 -0.88485,1.82391 -1.68043,2.77254 -0.99326,1.18299 -0.18239,2.93516 -0.45821,4.34455 -0.63932,3.26997 -2.26745,6.7094 -4.31999,9.40336 -1.7662,2.31802 1.49787,3.73846 -2.57803,6.39485 -1.71821,1.11988 -0.69035,2.33729 -1.2946,3.94597 -0.39858,1.06023 -1.79059,2.06829 -2.33203,3.06416 -0.52453,0.96457 -2.25916,0.3938 -2.98937,0.10204 -0.89633,-0.35811 -0.69082,-3.01474 -0.7514,-3.81031 -0.0686,-0.92152 -3.22565,-1.75724 -3.65931,-2.81906 -0.69034,-1.68999 -1.52864,-1.12212 -1.98781,-3.08155 -0.35075,1.2069 -0.43844,3.34331 -1.97697,3.67971 -1.9403,0.42409 -2.7711,-1.66072 -4.33658,-1.1543 -2.82021,0.91231 -3.41983,5.31226 -5.25252,6.51747 -2.38065,1.56545 -9.98879,9.34221 -8.97544,10.37401 1.62319,1.65256 -1.29587,5.90156 -1.304,7.09203 -0.0159,2.02644 -0.77787,3.69743 -3.23713,7.62149 -0.97732,-0.25031 -1.88386,-1.63956 -1.43266,-2.56109 -1.04588,0.67759 -1.85102,-0.35713 -2.29584,-1.14951 1.014,3.77378 1.95943,4.62834 -2.42178,5.26448 -1.73304,0.2519 -7.43596,1.39185 -5.83844,-2.1651 -0.74615,1.44446 -0.78122,1.83029 -2.51904,1.72188 -1.92436,-0.11958 -1.59274,-0.61701 -3.4597,-1.83667 0.87529,0.63932 1.93233,3.9364 -0.14827,3.10416 -1.39345,-0.55642 0.66962,-3.90292 -1.79681,-2.645 0.68875,1.38388 1.28184,2.69761 0.68556,4.2473 -1.14154,-0.48308 -2.45527,-4.59805 -2.05669,-5.85438 -1.31372,1.13676 0.86573,4.45456 0.18335,6.00744 -0.95022,2.1651 -0.94225,-2.91603 -0.88485,-3.36723 -0.21683,0.63295 -0.5612,4.11178 -0.68556,1.03153 -0.0303,0.90877 -0.15625,1.93074 -0.79717,2.64021 -0.0335,-0.82427 -0.26147,-1.58954 -0.68556,-2.29583 0.49105,0.98689 0.4512,2.57643 -1.06023,2.44092 -2.7263,-0.24394 -1.97697,0.38104 -2.73427,-2.21134 0.0287,2.45049 -1.87972,4.57892 -2.29584,1.03313 0.0287,2.30061 -0.57077,0.79238 -2.24641,-0.0271 -1.65332,-0.80832 -2.76616,-2.42019 -3.60478,-3.99061 -0.78919,-1.47475 -1.77608,-3.08343 -1.35837,-4.80052 0.27901,-1.14792 0.43047,-2.20018 -1.17662,-1.7442 -0.29654,-1.24677 -0.16421,-1.94668 1.11125,-2.20336 2.47281,-0.49743 0.16103,-1.38707 1.9961,-2.50151 -1.30894,0.10204 -2.46642,1.87972 -3.75464,1.58796 -4.11019,-0.93109 1.51302,-2.36758 2.49512,-2.50629 -0.66483,-0.80514 -1.43011,-0.91993 -2.29583,-0.34438 0.0351,-0.49902 0.0717,-0.99645 0.1116,-1.49388 -0.25031,1.4333 -2.06147,2.46802 -2.75819,0.68875 -0.63135,-1.61028 1.30416,-2.32135 2.18423,-3.21417 -1.04269,0.42409 -1.98175,1.14951 -2.75819,1.95305 -1.5736,-3.58246 -5.05562,-7.54596 -8.9697,-8.54242 -1.90204,-0.48468 -4.18033,-0.73339 -6.14295,-0.61382 -1.53215,0.0957 -3.7674,0.7605 -5.08592,-0.37147 1.66767,0.32683 4.11816,-0.78282 5.05403,-2.18105 -1.70593,-0.0797 -2.91603,1.92914 -4.59167,0.57396 -0.59787,0.72064 -0.75252,1.52418 -0.46236,2.41063 -2.74862,0.36032 -5.55145,-0.16581 -8.27457,0.45916 -0.0909,-1.72187 0.87848,-3.23808 0.92471,-4.93604 0.0478,-1.75695 -0.73817,-3.04677 -0.30133,-4.86271 0.71586,-2.95748 0.77963,-8.64127 -0.955,-11.31974 m 57.61909,47.75337 c 0.38264,-0.22958 0.76528,-0.45917 1.14791,-0.68875 -0.80991,0.0112 -1.57519,0.20248 -2.29583,0.57237 0.38264,0.0399 0.76528,0.0765 1.14792,0.11638 m -3.093,0.68875 c 1.45721,-0.0972 1.97856,-0.99486 0.79716,-1.95146 -0.49902,0.55642 -0.76368,1.20532 -0.79716,1.95146 M 69.005528,375.32565 c 1.589547,-1.98016 1.431708,-5.22462 3.445347,-6.91302 1.364746,-1.14313 4.00974,-1.3759 5.640739,-2.22728 1.626217,-0.84977 3.309829,0.18016 4.977499,-0.70628 1.096899,-0.58353 2.02448,-1.6332 1.86696,-2.93517 -0.234845,-1.94098 -3.669669,-2.71047 -3.109262,-4.2141 0.502692,-1.34883 3.23633,-0.94918 3.604461,-2.31155 0.412931,-1.52794 -0.737696,-3.7222 -0.321257,-4.19612 l 5.764459,-0.0159 c 0.831284,0.21523 1.764764,0.84968 2.36774,0.89541 0.449601,0.13631 -0.56535,2.73974 1.195747,1.67017 1.208502,-0.73394 3.712399,0.952 4.377709,1.48083 0.0925,0.0732 2.66764,0.86125 2.60227,0.86763 1.67883,-0.16103 2.87043,-1.44079 4.69275,-1.24195 2.65233,0.28942 5.28664,-0.85813 7.20286,-0.0112 -0.92582,1.85409 -2.30253,3.22396 0.19132,5.31998 1.41625,1.19026 3.53272,-3.35753 5.18349,-2.72983 3.97992,1.5134 1.40779,6.28646 4.90097,2.31146 4.47576,-5.09323 7.20796,0.74093 8.90401,0.31183 1.01288,-0.25624 1.67596,-1.21255 2.59717,-1.98173 0.7522,-0.62807 2.59094,-0.80603 2.94775,-1.40461 0.68987,-1.15747 -2.12364,-3.89388 1.77465,-2.89052 0.83432,0.21474 2.84429,1.16743 2.68645,2.73906 -0.0526,0.52058 0.66181,3.18865 1.02994,3.53622 1.85468,1.75154 -0.35554,6.35282 1.92754,5.1194 0.29431,2.29019 4.54416,2.39714 4.09583,5.12575 -1.01383,0.0481 -1.42182,-0.0172 -2.07262,0.77008 -0.89921,1.08778 -1.43012,2.52223 -1.79841,3.86147 1.18778,-0.19453 1.87796,-1.17464 3.24127,-1.3217 2.21325,-0.23874 1.55017,2.59611 1.49899,4.1712 -0.0383,1.15904 -0.55227,3.06097 1.58604,4.24948 0.40289,0.22395 2.18934,1.39515 2.46691,2.44351 0.37339,1.41094 -0.97844,2.09062 -2.06673,2.89792 -0.70342,0.52176 -0.71059,2.90132 -0.70071,3.98307 0.0191,2.00618 0.71968,6.48018 3.50992,4.6982 -0.63136,3.15837 -0.29336,2.6992 1.49867,4.82126 -2.15553,0.32364 -2.16351,2.11089 -2.75819,3.78812 3.26359,0.53729 2.95589,3.34172 3.77856,5.85438 -1.68313,-0.58293 -6.60914,-2.50922 -7.22215,-0.87166 -0.80418,2.14816 2.42162,4.28672 3.44359,5.80771 -1.22221,-0.62743 -2.08347,1.70753 -2.06609,1.79074 0.26497,1.27106 0.70294,0.85609 0.45613,1.63973 -0.25094,0.79618 -1.64487,2.82866 -1.62542,2.99726 -0.3372,-0.29316 -2.08219,-1.14329 -3.04006,-0.29935 -0.51226,0.45131 0.13073,-0.89847 -1.40955,-1.6654 -1.49628,-0.52864 -1.98606,2.66688 -2.35259,3.39823 -1.06278,2.12048 -1.84975,2.56252 -4.19979,3.50317 -0.13073,-2.67688 -2.31815,-3.10256 -4.48007,-2.29424 0.59788,-1.75217 0.97366,-3.55207 1.03616,-5.41275 0.0239,-0.70939 -0.21316,-4.58802 -0.42967,-4.22626 -0.14509,0.26643 -0.43382,0.9722 -0.46475,-1.3439 0,-0.3552 -0.83352,-1.63364 -0.0654,-2.63982 -3.68753,-4.22691 -3.95442,-1.95231 -4.5389,-2.25244 -1.2423,0.99542 -1.63435,0.35901 -3.34379,0.18406 -1.17805,-0.12053 -2.44953,0.17669 -3.43323,0.76659 -0.60584,0.3651 -3.18069,1.71869 -3.44375,2.29583 -0.25015,-2.31593 2.91699,-5.30711 2.40266,-6.00424 -2.01922,-2.73721 1.07202,-3.56653 -2.07598,-5.58306 -0.94799,-0.60723 0.33082,-1.64603 -0.13552,-2.5044 -3.35559,-6.16625 -4.63025,-10.94969 -12.18116,-9.81223 -2.03357,0.30634 -2.52956,0.94169 -4.32095,1.35026 -3.14976,0.71832 -4.13426,-0.8941 -5.4829,2.1893 -1.08,2.46938 -1.96326,5.33172 -3.520285,6.0283 -1.404764,0.62846 -1.502337,1.14067 -2.151389,2.53239 -0.771177,1.65389 -2.744798,0.31813 -3.878367,1.35763 -0.132329,-1.06979 0.556421,-1.84782 1.610273,-1.95146 -0.232772,-0.44322 -0.540477,-0.82586 -0.924711,-1.14791 -0.283791,0.36988 -0.550044,0.75252 -0.797165,1.14791 -0.09885,-0.76368 -0.135518,-1.52736 -0.111603,-2.29583 -0.419309,0.0383 -0.840212,0.0765 -1.259521,0.11479 0.360319,-1.42055 -1.710716,-1.68999 -0.813108,-3.09778 -2.107704,2.12524 -1.077767,-3.3752 -1.83348,-3.90292 0.111604,0.92152 -0.403365,1.25792 -1.25952,1.03153 0.366696,-0.80992 0.632949,-1.65173 0.797165,-2.52542 -0.494243,1.68999 -1.607085,1.10328 -2.646588,0.34597 -1.477944,-1.07777 -0.707883,-1.84145 -1.259521,-3.32896 -0.786004,0.2822 -1.316916,0.81789 -1.59433,1.60708 -0.175376,-2.89211 -6.291226,-2.64658 -4.59167,-6.31354 -0.521346,0.18813 -1.058635,0.30292 -1.610273,0.34437 0.907173,-1.6852 1.527368,-3.56332 2.056685,-5.3968 -0.695128,0.69672 -1.227634,1.49867 -1.59433,2.41222 -0.189725,-1.86696 -0.931088,-0.90877 -1.49867,0 -0.269442,-1.25952 -0.448007,-3.92684 1.147918,-4.47688 -1.281842,0.70788 -2.619485,0.67281 -4.024089,0.68556 m -0.224322,0.23073 c -0.688751,0.87369 -0.623383,2.31178 0.685561,2.52542 -0.350752,-0.92949 -0.159433,-1.73304 0.573959,-2.41063 -0.419309,-0.0383 -0.840212,-0.0765 -1.25952,-0.11479 M 254.04192,327.68715 c -1.6884,-1.9961 0.28379,-5.63436 0.1116,-7.92063 2.03277,0.71266 4.53906,0.51018 6.67227,0.5341 2.51426,0.0287 3.15199,-1.25952 4.64269,-2.98618 1.79362,-2.07901 3.8806,-1.56085 6.44269,-1.76014 3.26519,-0.25509 6.52081,-0.55323 9.79875,-0.6186 1.5465,-0.0303 3.06111,-0.0303 4.59805,0.14987 3.02763,0.35394 0.17537,-0.9279 1.59752,-1.28982 2.27032,-0.58193 5.24375,2.48078 6.23383,-0.11319 0.86891,-2.27671 3.53781,-2.59239 4.43542,-4.65226 0.91834,-2.11249 0.88804,-4.37644 2.05509,-6.43631 2.43614,-4.29672 1.89247,-9.0542 2.13641,-13.96474 0.35075,-6.9991 0.23915,-14.00937 0.20088,-21.01486 -0.0239,-4.35412 0.35713,-5.48768 4.68255,-6.49371 3.82958,-0.89123 7.7899,-1.10168 11.60832,-2.04074 4.50557,-1.10806 7.47262,-5.53711 10.66606,-8.64127 4.6395,-4.51036 9.08131,-9.42249 14.19432,-13.40194 10.42054,-8.11035 21.97944,-15.45543 33.10945,-22.55498 5.24376,-3.34491 10.27865,-7.00708 15.52081,-10.35358 4.90734,-3.13286 11.49033,0.0829 16.71495,1.50824 4.56616,1.24836 8.24428,4.22019 11.3612,7.69423 1.34561,1.49708 1.76014,1.56723 3.40549,0.43685 2.3325,-1.60071 4.83879,-2.88574 7.27492,-4.31745 1.15589,6.08715 2.10611,12.04517 2.58123,18.20885 0.18972,2.45048 1.62781,4.13888 2.8937,6.13657 0.72224,1.13995 1.38069,2.3341 1.87015,3.59522 0.46076,1.18139 -0.83702,2.13799 0.18176,3.30664 1.31213,1.50345 3.51549,2.7837 4.07032,4.81647 0.67919,2.48715 -2.15075,5.05562 -2.38193,7.54437 -0.68875,7.4232 -1.86696,14.82089 -1.86696,22.29351 0,3.22055 -0.32843,6.42675 -0.4225,9.64411 -0.0749,2.58759 0.27901,5.75074 -0.58511,8.23152 -0.74615,2.138 -2.87936,3.96032 -4.25846,5.70611 -2.23685,2.83153 -4.67298,5.49725 -6.94171,8.30327 -3.72755,4.61399 -6.89229,9.89919 -8.96492,15.43949 -0.49903,1.33605 -1.0969,2.63702 -2.01045,3.74987 -0.43685,0.53091 -1.34721,0.38263 -1.67724,1.02993 -1.03472,2.0248 1.4636,7.76279 1.78884,9.99167 -1.09849,0 -2.51107,-0.27742 -3.49796,0.36669 -1.04747,0.68397 -0.8721,1.41896 -2.06466,1.94509 -2.65615,1.17024 -4.57891,2.25119 -6.59414,4.37324 -3.10257,3.26838 -4.9488,1.84624 -8.71621,0.31568 -4.40991,-1.79043 -8.37182,-2.02958 -13.07988,-2.15394 -4.02568,-0.10522 -7.49813,0.62976 -10.56084,3.39752 -1.04269,0.94225 -1.80797,2.0232 -2.60195,3.16474 -1.37112,1.97538 -2.19858,0.72064 -4.18033,0.90239 -4.6395,0.42569 -6.63082,-1.91957 -10.50504,-3.46766 -2.83313,-1.13357 -6.0728,-5.12577 -9.48786,-3.3194 -1.29141,0.68238 -2.26714,1.81435 -3.52666,2.54615 -0.96935,0.5628 -2.49831,-0.28698 -2.93356,0.65208 -1.79203,3.85987 -4.90735,-0.92312 -5.63596,-2.5302 -1.71869,-3.78973 -4.3589,-5.24057 -8.20442,-5.9341 -2.18902,-0.3938 -3.84234,-2.24482 -6.07759,-2.44889 -1.98016,-0.18175 -2.76616,1.87334 -4.87387,1.83029 -3.80407,-0.0749 -7.27971,-0.3938 -10.05862,2.76776 -0.91355,1.03791 -1.87175,1.5449 -1.9977,2.97023 -0.20886,2.3628 -0.2806,4.34934 -1.69477,6.33906 -1.90682,2.68645 -4.23614,4.46093 -4.1054,8.03064 0.0287,0.75093 -0.38264,8.37342 -0.84819,8.11195 -2.26394,-1.27706 -7.13941,-9.88644 -9.51177,-9.59787 -0.74614,0.0909 -1.05544,0.99965 -1.7155,1.25155 -0.87688,0.33481 -2.83472,0.0893 -3.42302,0.98689 -0.30293,0.46076 1.01718,4.276 0.11638,4.2473 -0.80673,-0.0255 -2.65934,-3.41984 -3.04039,-4.04482 -1.24198,-2.03914 -0.2806,-2.45845 1.42055,-3.13923 -0.54366,-1.13517 -0.65048,-2.71355 -1.71868,-3.53304 -1.93074,-1.47794 -3.1217,1.59912 -5.12418,1.24517 -3.72754,-0.66005 -9.80991,-6.54791 -8.08007,-10.45402 1.0427,0.75731 2.06626,0.78601 3.20461,0.23118 -0.55642,-0.46873 -7.7899,-5.54667 -8.02905,-5.05562 0.52772,-1.07936 -2.14916,-3.10416 -2.49991,-4.31107 -0.59947,-2.07582 -0.11798,-4.00655 -2.09335,-5.44623 M 48.693764,240.21574 c -0.325243,-2.19539 -0.137112,-3.7111 0.740088,-5.82447 0.245208,-0.59087 1.060867,-2.01598 2.605135,-2.09616 l 44.455341,-0.0509 c 2.260922,-1.19107 0.707722,-11.01565 0.557062,-14.7972 -0.27582,-3.80088 -0.660056,-6.27664 2.38703,-9.16044 2.55172,-2.415 2.46754,-1.79946 10.57455,-5.11417 l 1.78087,-34.80784 39.66549,-0.46497 0.53315,-17.65068 c 15.10149,10.16066 29.92127,20.62613 44.48866,31.53932 -7.00549,0 -14.06614,0 -21.07003,0 l 8.64685,116.24408 c 0.71171,1.90129 2.66939,2.72084 2.84349,3.16507 1.15796,2.95656 -0.36622,3.85043 -0.47543,6.12865 -0.12755,2.66971 -0.39141,5.07424 -1.16928,5.36084 l -25.3304,0.0303 c -14.38803,0.49788 -20.55091,2.46863 -21.82255,-1.7866 -0.61382,3.8519 -6.31976,4.48169 -9.13392,3.36403 -4.44435,-1.76513 -7.2821,-1.02109 -9.10362,3.98264 -1.0344,-1.70815 -2.54041,-3.16478 -4.08308,-4.65226 -1.8279,-1.76254 -3.58995,-2.70779 -4.56074,-2.16953 -3.64926,2.02333 1.44398,12.1972 -7.51902,11.55473 0.0462,0.16285 -2.41732,-1.74263 -3.06988,-2.99023 -0.80625,-1.54165 -1.73702,-1.05042 -3.284,-2.37088 -1.675644,-1.43029 -1.557823,-3.7641 -2.932295,-4.67778 -3.680352,-2.44651 -2.22154,-2.47704 -2.563364,-4.13607 -0.421063,-2.04294 -2.500388,-4.64486 -3.541007,-4.65983 -5.414982,-0.078 -5.803042,-4.47219 -9.314395,-6.16401 -1.77146,-0.85353 -3.315409,-1.30453 -5.703556,-1.38256 -3.719253,-0.12149 -4.998384,3.51325 -13.535064,2.8758 -1.799521,-0.1344 -1.559415,-1.33632 -3.092044,-0.90103 -1.487988,0.54465 -3.237606,5.3337 -3.830697,6.58898 0,-8.2937 5.459305,-15.05844 6.246904,-23.18793 0.473516,-4.8946 -0.20248,-9.03348 -0.816297,-13.82603 -0.221612,-1.72826 -0.16581,-3.62392 -1.264304,-5.0891 -0.958192,-1.27866 -2.62905,-2.18743 -2.80602,-3.92843 1.278652,0.39858 2.686446,-0.55005 2.534984,-1.95146 -0.864126,0.23117 -1.554471,0.88007 -1.849422,1.72187 0.314083,-1.66448 1.656508,-2.83312 2.386712,-4.29512 0.471921,-0.94544 -0.212046,-2.45686 0.341186,-3.08981 2.495127,-2.85705 -1.324888,-7.92383 -2.265543,-10.75217 -0.389016,0.68237 -0.655269,1.40939 -0.797165,2.18104 -2.531796,-1.91638 -1.927545,-5.87988 -4.480067,-7.80583 -0.406554,1.69317 -1.018776,3.33533 -1.374312,5.04605 m 6.759959,16.07091 c 0.809919,-1.02196 0.970947,-2.30699 1.036314,-3.55854 -0.926305,0.88166 -1.717093,2.26554 -1.036314,3.55854 m 156.465997,184.1261 c -0.73339,-3.91089 -0.99486,-7.04375 0.71904,-10.73303 1.47316,-3.17272 0.57268,-4.28232 1.75408,-7.46301 0.87529,-2.35483 4.03988,-5.62399 4.98053,-7.66951 1.27865,-2.78051 0.26721,-6.90707 -0.57619,-9.76411 -0.3364,-1.13835 -0.8222,-1.86579 -1.28615,-2.92921 -0.49743,-1.13995 0.23995,-2.34026 0.32604,-3.5089 0.1977,-2.68326 -1.10407,-4.57276 -0.55243,-7.15717 0.5899,-2.76297 -0.55164,-5.72843 -1.06183,-8.41647 -0.24074,-1.27706 -1.58635,-2.71195 -0.80194,-4.05757 0.617,-1.05863 1.48272,-2.56209 1.09211,-3.84552 6.68774,0.59817 12.84361,-0.42934 19.95942,0.0411 1.43585,0.0949 5.68331,-0.274 6.02178,0.55513 0.62785,1.53805 3.13334,-0.91129 4.43862,-1.85899 1.3276,-0.96396 5.139,-0.16058 4.30262,1.54724 -1.27531,2.60376 -1.5685,5.18774 2.17132,7.99913 3.09475,2.3265 1.34991,1.37519 1.87636,3.78266 0.25478,1.16557 0.40114,1.07375 0.29033,2.41179 -0.1116,1.35574 -0.13871,3.54976 -0.4936,5.26607 -1.69637,-0.26147 -0.97892,0.94704 -1.72188,1.95306 1.02994,0.17538 1.76492,-0.99327 2.7263,-0.72542 1.39664,0.39061 1.37878,2.40718 1.05067,3.43419 -0.6312,1.97617 0.72558,7.07145 -1.94349,6.58936 0.66962,1.70115 2.46962,2.74863 3.50434,4.20266 1.23879,1.741 0.16724,2.26865 -0.55021,3.8853 -0.8721,1.96421 0.79828,4.54762 -0.30802,6.39878 -1.32234,2.21293 -1.45355,3.3086 0.36574,5.19469 0.8603,0.89173 -0.0973,3.12516 -0.50174,4.14872 -0.97892,2.4744 -1.22508,3.58058 0.1859,6.04541 0.88964,1.55766 2.78482,2.92938 4.20377,4.03106 0.38742,0.30133 2.81447,1.73144 2.85911,1.90682 0.34119,1.31213 -1.80956,1.94667 -2.14756,3.05154 -0.46076,1.50346 -1.49867,2.78052 -3.30026,2.57644 -1.00603,-0.11479 -1.32649,-2.36598 -1.87334,-3.0372 -1.1798,-1.44605 -3.17272,-0.89282 -4.73197,-1.55925 1.25314,1.01399 3.31142,0.38901 4.65225,1.37431 2.65137,1.94668 -1.4062,3.18069 -2.72152,3.41187 -5.0046,0.87847 -8.17094,3.71957 -12.32417,6.19716 -2.38352,1.42055 -5.02852,1.38706 -7.56828,2.42497 -1.53694,0.62976 -3.28432,0.97095 -4.60124,2.02959 -1.09371,0.88007 -1.9977,2.0503 -3.26041,2.71036 -1.30256,0.68237 -2.33888,0.45279 -3.30823,-0.56121 -1.31851,-1.3759 -2.7566,-1.55606 -4.4992,-2.07741 -1.82391,-0.54686 -3.29388,-0.11686 -4.42426,-1.9774 1.49388,-0.043 0.75092,-0.25785 2.24481,-0.2148 -0.66483,-1.93393 1.57887,-8.08348 -2.50421,-6.9531 1.37957,-2.44411 -1.20037,-6.64016 -2.66301,-8.66018 M 48.693764,356.72938 c 1.111248,-0.77165 2.563682,-0.18653 3.757835,-0.72382 1.281842,-0.57556 2.472806,-1.30416 3.926835,-1.34243 3.073868,-0.0829 5.863946,0.7302 8.434006,-1.49229 2.26076,-1.95784 5.106639,-1.3775 7.836132,-1.3775 4.143663,0 8.285733,0 12.429396,0 -0.350752,1.61027 1.438086,3.47883 0,4.8914 -0.779627,0.76687 -2.916029,0.5915 -3.225329,1.76493 -0.438441,1.66448 5.492467,2.95748 2.547739,6.27687 -1.517802,1.70912 -3.746675,0.79238 -5.656683,1.11603 -1.793621,0.30293 -3.933212,1.72347 -5.776257,2.27671 -3.169528,0.95022 -1.650132,6.49849 -4.888216,7.66554 -0.776439,-2.98937 -1.197342,-3.38158 -3.890165,-4.70647 0.240744,-0.43684 0.505402,-0.85775 0.797165,-1.26271 -2.30859,1.72666 -0.110009,-5.3426 3.204603,-2.75659 -0.798759,-2.2496 -2.828341,-0.74934 -4.001768,0.23118 -1.128786,-2.01364 -1.328077,-3.36882 1.147917,-4.2473 2.109299,-0.74774 2.85704,1.51302 4.814877,1.3775 -1.050663,-0.4225 -1.669264,-1.76333 -0.685562,-2.64021 -0.766873,-0.26147 -1.492293,-0.16262 -2.17626,0.29336 -1.125597,0.61381 -2.064658,-0.1419 -3.228519,0.051 -1.13038,0.18813 -1.852611,1.05066 -2.694417,1.72187 -1.092116,0.87051 -2.566872,0.73499 -3.842336,1.03313 0.07972,-2.08379 1.825508,-2.755 3.220547,-3.90292 -1.981752,-0.19451 -3.552167,1.86855 -5.516382,1.44127 -3.827986,-0.83224 -1.371124,-4.22497 0.46395,-5.46058 -0.733392,0.0781 -1.462,0.19292 -2.184232,0.34438 -0.381045,0.46076 -0.800354,0.88166 -1.259521,1.2643 -1.420548,0.059 -2.211335,-1.61824 -3.558544,-1.83667 M 65.448578,372.915 c 0.34278,-1.10806 -0.03986,-1.41417 -1.147918,-0.91833 0.382639,0.3077 0.766873,0.61222 1.147918,0.91833 m -5.626391,-0.22958 c 0.636138,-0.51019 1.057041,-1.16067 1.259521,-1.95146 -0.833835,0.32046 -1.39185,1.02356 -1.259521,1.95146 m -2.982991,-4.93605 c -0.154651,0.38264 -0.307706,0.76369 -0.462356,1.14792 0.961381,0.48468 1.568821,-0.0781 1.721876,-1.03153 -0.420903,-0.0223 -0.840212,-0.0622 -1.25952,-0.11639 m 0.113197,-5.05084 c -0.578742,0.0367 -1.152701,0.1132 -1.721876,0.22959 0.105225,1.68042 2.200175,1.41098 1.721876,-0.22959 m -1.945083,11.93835 c 0.420903,-0.33003 0.878476,-0.59788 1.371124,-0.80514 -0.919928,-1.93711 -3.250839,-0.6473 -1.371124,0.80514 m -1.036314,-11.24959 c 1.052258,-0.52294 0.897608,-0.90558 -0.462356,-1.14792 0.153056,0.38264 0.307706,0.76528 0.462356,1.14792 m -0.701505,4.93604 c -0.03667,-0.30452 -0.07493,-0.61222 -0.111603,-0.91674 -0.43047,0.24553 -0.813109,0.55164 -1.147918,0.91674 0.419309,0 0.840212,0 1.259521,0 M 103.5547,322.98067 c 2.15394,-0.51816 3.11532,0.6473 4.86749,-1.59912 1.47795,-1.89565 0.8147,-5.97714 1.53694,-8.33994 1.63897,-5.3968 9.13551,3.5442 9.90557,5.2326 1.43171,-3.92524 3.81523,-6.076 8.32878,-4.24411 2.96705,1.20372 9.25668,0.99008 9.91035,-3.10416 1.68999,4.09424 10.02037,2.26395 13.28077,2.01523 7.97484,-0.60903 16.15694,-0.17697 24.15251,-0.17697 2.81558,0 6.28501,-0.328 9.06934,-0.0437 2.04553,0.2089 1.45244,-3.19196 1.65093,-4.94023 0.2248,-1.97968 2.15203,-5.79304 0.0829,-7.10752 -3.57401,-2.27061 -2.61741,-4.27669 -2.59398,-7.16173 l -8.33675,-111.72427 21.12057,0.0112 c 21.83562,16.36365 42.32563,32.65563 62.98225,48.88382 2.48221,1.79493 7.14786,3.59231 6.80109,7.32923 -0.10841,1.16958 -0.27374,2.2117 1.82057,3.05191 1.0183,0.4085 2.14979,0.6939 3.01392,1.27105 1.44287,0.96298 1.20532,2.69442 2.35802,3.84712 1.09689,1.0969 2.2421,1.24735 3.65691,1.49207 1.02755,0.17772 0.26801,-0.94493 2.10786,-0.0308 1.31947,0.65568 1.89231,2.40308 3.40055,2.87819 2.35004,0.74296 5.49853,0.94031 7.67479,2.22693 1.58795,0.93906 1.12671,5.35274 0.45071,6.88968 -0.94065,2.13799 -2.31177,4.16619 1.09053,4.65246 3.5984,0.51656 7.67414,-1.3996 11.2295,-1.84123 -0.46204,9.79397 0.93523,20.19616 -0.33385,29.89708 -0.14668,1.11452 0.19801,1.87407 -0.64013,7.18319 -0.2739,1.73546 0.33944,-0.47804 -2.09256,4.62515 -0.7471,1.56739 -0.70389,3.46289 -1.38467,5.07954 -0.65686,1.55766 -2.17467,2.03277 -3.41665,2.99256 -1.52737,1.17821 -0.48627,2.73108 -2.58122,2.37395 -0.4783,-0.0813 -4.65863,-1.19734 -4.84995,-0.47351 -0.50222,1.89406 -13.56584,1.25365 -15.546,1.41149 -4.84835,0.38583 -4.74823,-0.20937 -8.17923,3.54209 -1.07617,1.17821 -3.19344,1.59593 -4.70327,1.26271 -0.87369,-0.15943 -2.87298,-0.17879 -3.75943,-0.1564 -1.57839,-0.0303 -1.47635,-1.24336 -1.47635,0.73202 -1.14473,-0.43206 -2.23748,-0.98066 -3.36723,-1.45403 -2.71721,-1.13856 -3.36945,0.76995 -4.39955,0.01 -1.00251,-0.7403 -2.71833,-1.71018 -4.97192,0.29836 -2.34813,2.09284 -5.75569,3.83945 -7.09684,4.73782 -2.25358,1.50937 -3.90786,2.69818 -6.21262,3.27847 -1.89455,0.47701 -0.35235,4.48963 -3.15837,3.2604 -1.72666,-0.75571 -3.30106,-1.80521 -5.13135,-0.53772 -1.55607,1.07937 -2.39708,3.06314 -2.96625,4.76748 -0.32525,0.97414 -0.76624,2.53738 -1.22381,3.4605 -0.39699,-0.27289 -2.93739,-0.89281 -3.94501,-1.05944 0.90239,1.61028 0.0303,3.99061 0.23915,5.74119 -1.55288,-0.0542 -2.79646,-0.30771 -2.40744,1.60708 -1.64854,-0.16422 -6.40921,-2.57484 -6.31355,-4.59326 -3.02221,7.23905 -5.26288,3.82561 -3.73551,6.40601 0.84515,1.42773 0.87704,2.50981 0.53665,3.74073 -0.13871,0.50234 -3.76852,-0.13424 -2.88685,1.3865 1.62494,2.80329 0.90765,5.82145 -2.23924,8.47918 -1.46375,1.23622 -3.20843,0.73459 -4.97973,1.05665 -1.65492,0.29973 -2.58282,2.09654 -4.37644,2.00726 3.18547,0.79994 0.87688,2.46081 1.84353,3.02264 1.63993,0.9533 0.24154,5.17131 -0.66356,6.67846 -0.29862,0.49743 -2.00663,0.70627 -1.90379,1.18498 0.51879,2.41382 0.83256,5.39681 -0.83065,7.56988 -0.6677,0.87248 -2.61629,0.84021 -3.55854,1.10168 -1.97219,0.54845 -0.95022,3.16794 -3.44216,2.93995 -2.76138,-0.2535 -0.94863,-5.75872 -1.88769,-7.46147 -1.07298,0.44323 -1.27546,2.36121 -2.29583,2.64021 -1.06342,0.29017 -1.87015,-1.17502 -2.64659,-1.60708 -0.0622,1.30416 0.63614,4.57573 -1.33605,4.54703 -1.47635,-0.0239 -3.55057,0.0909 -2.32932,2.11089 -1.80797,0.80036 -6.33427,-1.4333 -6.09034,-3.67333 -0.92949,0.41293 -2.43294,-0.0638 -3.14083,0.78759 -1.10965,1.33605 -0.96457,2.92719 -3.17271,3.11533 1.6294,-3.03401 -3.75146,-3.48202 -3.76422,-6.06324 0,-1.65013 0.41453,-3.57608 0.0271,-5.18157 -0.55324,-2.28946 -3.59203,0.38742 -4.64907,0.33799 0.40337,-1.46997 1.57201,-5.35216 3.79451,-4.59167 0.80354,-2.21452 -3.75306,-3.03241 -4.01772,-5.16563 -1.44765,0.82268 -1.31691,-0.80513 -1.18458,-1.73144 0.29654,-2.09176 -0.54367,-2.8969 -1.42852,-4.64906 -0.69672,-1.38069 0.18016,-3.33694 -1.44128,-4.14526 -0.63135,-0.31568 -2.83472,-1.53694 -3.48839,-0.92153 -0.71904,0.676 1.59752,2.37715 0.0399,3.11214 -1.76493,0.83224 -3.15518,2.24481 -4.93764,3.13445 -1.23561,0.61701 -2.61949,-1.16067 -3.63029,-1.5736 -2.18423,-0.89123 -3.86785,-0.7318 -5.41594,1.11284 -3.89176,4.6395 -1.75695,-0.88645 -5.13693,-2.02958 -2.19539,-0.74137 -4.51514,6.27847 -6.66749,0.86253 -0.68875,-1.73144 2.17307,-3.31621 0.7876,-5.27086 -0.79717,-1.12559 -0.17219,-3.80885 0.25987,-4.98706 0.5086,-1.39026 -3.72435,-9.31248 -4.59964,-5.87192 -0.99486,-0.28219 -2.57803,-3.36403 -3.01647,-4.29991 -0.3938,-0.8418 0.87848,-2.5286 0.83065,-4.19468 -0.0702,-2.5031 0.21523,-3.56811 -1.55607,-5.53711 -0.61541,-0.68396 -1.25952,-1.50026 -0.84978,-2.48556 0.69832,-1.68839 0.21205,-1.6868 -0.46395,-3.3465 m -14.349031,79.08857 c 0.982107,-0.90079 2.243222,-0.11319 3.33215,-0.80354 1.055446,-0.66802 0.771655,-2.49194 2.059874,-2.86979 2.123647,-0.62339 3.558547,-4.72719 4.223377,-6.5798 1.11285,-3.0946 4.39079,-0.8163 6.69938,-2.3612 1.97537,-1.3233 7.5061,-1.42534 9.48148,0.0351 1.89885,1.40301 2.82356,3.79929 4.05757,5.74278 0.64411,1.01399 1.3504,2.05031 1.77927,3.18069 0.31408,0.82745 -0.61382,1.83347 -0.0383,2.42497 0.70948,0.7302 1.49867,0.56121 1.57201,1.79203 0.0574,0.96297 -0.30611,2.63383 0.43206,3.40868 1.03472,1.08892 -2.45048,4.61399 -2.25438,6.47776 0.26307,-0.57715 2.83631,-1.93233 3.44375,-2.29584 2.36121,-1.41895 1.97522,0.5264 1.40301,2.3054 -0.65367,2.03238 -3.63539,1.4776 -3.90228,4.42647 -0.25573,2.82609 -0.35059,2.68987 -1.90905,4.33916 -1.24055,1.3128 -2.45766,2.61725 -4.22976,3.9077 -2.38623,1.7377 -3.45889,6.15503 -4.51036,5.83586 -1.12177,-0.3405 -10.39981,-5.33205 -11.88094,-6.58041 2.58919,0.73499 0.55482,-0.48786 -0.11161,-0.91674 1.10647,-0.77165 2.54455,-0.77644 3.55536,-1.72187 -2.13002,0.26465 -5.231,0.59149 -3.44375,-2.52542 -1.40142,3.21257 -3.144022,-0.39859 -4.344552,-0.23278 -0.849778,0.11798 -1.589547,-5.51797 -1.618245,-6.19716 -1.755358,0.40815 -4.507171,-1.05066 -3.220547,-3.32896 0.760495,0.59947 1.562443,1.13517 2.407438,1.60709 -2.008856,-1.00921 0.943844,-2.7279 2.072629,-2.64021 -0.459167,-0.76369 -0.247121,-0.56758 -0.111603,-1.4923 -1.036314,2.08379 -2.04712,1.014 -3.33215,0.22959 -0.17697,0.41293 -0.33162,0.83224 -0.462355,1.26271 -1.49867,-2.52861 -0.247121,-3.49956 1.945082,-4.01771 -0.846589,-1.11922 -2.520635,-1.02038 -3.094594,-2.41223 m 4.701679,19.5162 c -0.111603,0.26785 -0.223206,0.53569 -0.334809,0.80354 1.556066,0.48468 3.077057,1.14951 4.703277,1.3775 0.28219,-0.61222 0.49264,-1.46041 -0.19929,-1.89885 -1.1814,-0.75411 -2.868205,-0.20248 -4.169178,-0.28219 m 51.897078,15.26738 c 0.68237,-1.47475 2.45527,-1.79681 3.07546,-3.38157 0.40974,-1.05066 0.72861,-2.7279 0.79876,-3.84871 0.12914,-2.03277 -0.67919,-5.72684 -2.15235,-7.23348 0.94225,-0.99486 2.24323,-0.48308 3.20461,0.11479 0.20726,-1.20531 2.14118,-2.51904 1.37909,-3.84552 -0.617,-1.07298 0.3938,-3.35766 1.84145,-2.58281 -1.0969,-1.62941 -3.01169,-2.64022 -3.50593,-4.65067 -0.93109,-3.78334 6.13817,-0.80832 7.2845,-0.28538 -0.82427,-2.51266 -0.51497,-5.3155 -3.77857,-5.85438 0.59469,-1.67724 0.60266,-3.46448 2.75819,-3.78813 -1.79202,-2.12205 -2.13002,-1.66288 -1.49867,-4.82125 -3.89494,2.50788 -3.72961,-6.12124 -3.22054,-8.03543 0.48994,-1.84231 1.79808,-2.3108 3.42398,-2.78944 0.88039,-0.25915 0.94289,-1.90745 1.63004,-2.49098 1.0124,-0.85775 2.20496,-0.30292 3.33215,-0.80354 -0.24233,2.23844 4.28237,4.47369 6.09034,3.67334 -1.21966,-2.02002 0.85297,-2.13481 2.32932,-2.1109 1.97219,0.0303 1.27546,-3.24127 1.33605,-4.54702 0.77644,0.43206 1.58317,1.89565 2.64659,1.60708 1.02037,-0.27901 1.22285,-2.19699 2.29583,-2.64021 0.87848,1.59114 -0.37164,6.94629 1.92276,7.51567 2.07375,0.51464 0.40385,-3.99775 6.68184,-3.80881 0.60872,0.0183 -1.33095,1.81126 3.69215,2.12842 2.36375,0.14923 2.85258,4.82022 3.17304,5.20227 1.65969,1.97853 4.74185,4.06364 7.82337,4.68892 0.0287,-2.78529 4.13091,-3.38636 6.09034,-4.1325 1.79203,-0.68238 6.42356,1.36634 7.57307,-0.34438 1.92229,2.28176 2.6992,4.76662 5.27723,7.23029 0.29177,-0.36829 0.5628,-0.75093 0.81311,-1.14792 0.7554,2.27843 -1.01017,4.45572 -0.68237,5.60567 0.5459,1.9156 1.67723,2.8395 1.93552,5.05402 0.21364,1.83348 1.3488,4.92808 0.6744,6.65473 -0.7605,1.94349 -1.74005,2.98459 -2.69028,4.74951 -1.26589,2.35005 -3.4168,3.7168 -3.34649,6.32163 0.0909,3.39165 -1.5827,5.86307 -2.27288,8.37746 -0.7302,2.66022 -0.38981,6.95011 1.24836,9.10745 1.61378,2.12524 2.3612,4.99344 1.7426,7.27812 4.08308,-1.13038 1.69159,5.06997 2.35642,7.00389 -0.82108,-0.0144 -1.62462,0.10044 -2.40744,0.34437 0.23596,-0.43844 0.50222,-0.86094 0.79717,-1.26271 -1.91957,2.88255 -3.50434,-0.74455 -3.90611,-2.18104 -1.03791,1.14792 -1.42852,2.73906 -3.2046,2.86979 -1.14952,0.0845 -2.61949,-0.45916 -3.44376,-1.26271 -0.63454,1.16865 -2.09016,0.0622 -2.64658,-0.45916 0.99964,-0.22002 2.11248,0.7573 2.86979,-0.34438 -0.33003,-0.37307 -0.71107,-0.67918 -1.14792,-0.91833 0.47511,2.29264 -0.46395,0.15784 -2.05668,0.57396 0.33002,0.68078 -3.77697,0.29176 -4.77502,0.40177 -0.51019,0.0574 -5.60885,0.96776 -5.19752,1.18937 2.55731,1.38228 7.56988,-3.03879 9.62178,-0.44323 -3.17909,0.17379 -6.22107,0.69673 -9.3348,1.24996 -0.7015,0.12436 -2.15713,0.42409 -2.60513,-0.40337 -0.63455,-1.16545 -3.7116,-0.63454 -4.81488,0.41612 1.80797,-0.72382 2.80921,-0.53091 4.59167,0.1148 -3.9093,0.448 -8.07528,0.23436 -11.75978,1.8255 -3.18228,1.37272 -6.03932,3.95394 -9.59627,4.31586 -1.81116,0.18494 -5.679,2.23206 -7.01027,3.5139 -2.99256,2.88095 -3.51709,-2.44092 -3.05155,-4.63312 0.55324,-2.60833 1.45563,-5.48769 2.17786,-7.64482 0.95979,-2.86022 0.1403,-5.98192 -2.12365,-7.88236 -1.37431,-1.1527 -3.37041,-1.67086 -3.14561,-4.08627 0.25828,-2.77095 -8.19486,-0.36032 -6.48255,-3.54579 -1.0124,0.23118 -1.92754,-0.22002 -2.63064,-0.91834 m 37.99288,-54.18171 c 0.85137,-2.20496 1.61841,-4.75778 1.10822,-7.11579 -0.55802,-2.57804 0.99438,-1.03855 1.97809,-2.97088 0.60744,-1.19575 1.95002,-4.83353 0.5384,-5.92558 -0.9499,-0.73491 0.93779,-2.39496 -1.90124,-3.15638 1.32808,0.067 2.15984,-0.97094 3.16905,-1.58954 1.64854,-1.00762 4.00799,-0.18058 5.70946,-1.21967 2.0806,-1.27068 4.59406,-6.20449 2.75691,-8.37342 -0.87576,-1.03398 0.40002,-1.72423 1.54491,-1.59114 1.73893,0.20216 1.59911,-1.37112 1.34083,-2.74225 -0.17059,-0.89601 -1.94349,-2.22728 -0.40177,-2.76456 1.18618,-0.41453 2.81877,-3.76741 3.56014,-4.79415 -0.0957,2.01842 4.66501,4.42904 6.31354,4.59326 -0.38901,-1.91479 0.85457,-1.66129 2.40744,-1.60708 -0.20885,-1.75058 0.66484,-4.13091 -0.23915,-5.74119 1.293,0.24712 2.63384,0.338 3.79451,1.03313 1.74101,-2.61151 1.52896,-8.34472 6.04889,-8.81186 2.22728,-0.22959 4.98754,3.30195 5.42598,-0.64561 0.23437,-2.11727 2.57277,-1.84474 4.02202,-2.59726 1.87812,-0.97414 3.31764,-2.39593 5.27563,-3.32577 2.34957,-1.11576 6.64039,-6.90345 9.92311,-3.94278 0.62291,0.56176 2.14597,-0.74455 3.1504,-0.44004 1.37591,0.41612 2.7601,0.89404 4.05438,1.51781 1.98686,0.95757 -1.66878,6.01523 1.3775,7.67351 1.88163,1.02431 0.40448,4.21596 1.81594,5.63595 0.79717,0.80195 2.41127,2.46889 2.14374,3.52752 1.49755,0.59512 5.43348,3.24179 7.95634,5.19666 -1.13835,0.55642 -2.16191,0.52772 -3.2046,-0.23118 -1.55399,3.96669 3.67015,8.56793 6.82373,10.06819 2.53323,1.20517 3.95809,-1.81425 5.76127,-1.28971 1.48273,0.43046 1.76875,2.77563 2.33793,3.9634 -4.03334,1.38731 -0.66643,3.69738 0.81933,6.47139 1.58317,2.95579 -2.23988,7.24464 -5.13678,7.43277 -0.71585,0.0462 -3.49955,0.85137 -4.01771,0.43684 -1.42692,-1.13835 -1.74419,-0.55801 -2.93038,0.51019 -2.34207,2.1077 -3.6703,4.87675 -6.67386,5.30593 -4.62691,0.66115 -5.45038,-0.80417 -8.18226,-1.31352 -1.30783,-0.24387 -2.54631,-0.67925 -3.90898,-0.69703 -1.20755,-0.0159 -4.33642,3.09702 -5.22956,2.70727 -2.16239,-0.94371 2.60147,-1.02694 -13.66692,-0.97444 -5.39983,0.0174 -8.60173,0.38357 -12.95042,-0.0204 0.53091,2.48839 -1.86329,3.77169 -1.18762,5.28121 0.9177,2.05018 1.36937,3.67554 1.73463,5.81757 0.31058,1.82066 0.48691,4.09357 0.27088,6.14071 -0.18941,1.79464 1.2085,3.95553 -0.0223,4.91531 -2.00886,-1.49867 -3.91727,-5.09866 -5.27723,-7.23028 -1.14951,1.71071 -5.78104,-0.338 -7.57307,0.34437 -1.95943,0.74615 -6.06164,1.34721 -6.09034,4.13251 -1.2372,-0.21205 -5.57808,-2.02976 -6.33778,-2.9705 -0.70932,-0.87825 -1.45578,-1.32584 -1.59082,-2.03251 -0.26131,-1.36768 -1.52737,-3.98583 -2.51586,-4.52471 -1.66448,-0.90741 -3.51709,0.41931 -4.12453,-2.06625" />
  <g
     style="fill:#7c7c7c;stroke:#ffffff;stroke-width:2;stroke-linecap:round;stroke-linejoin:round"
     id="g2394"
     transform="matrix(0.04146938,0,0,0.04146938,256.66552,356.98599)">
    <path
       d="m 637.6,1198.3 -171.3,-1.8 2.7,-11.5 -1.9,-2 -3,-1.5 -32.4,-9.1 -6.5,-3.1 -3,-1.9 -2.5,-2.1 -4.2,-5.1 -2.3,-5 -1.4,-6.8 -0.5,-5.3 0.7,-16.2 2.3,-15 2.1,-7.9 2.7,-6.8 0.5,-4 -0.4,-2.3 -1.4,-2.5 -2.2,-2.2 -9.5,-4.5 -2.5,-1.7 -3.5,-3.5 -2,-2.6 -2.2,-4.5 -1.4,-7.1 -1,-10.4 0.2,-18.7 1.5,-11.1 4.8,-14.2 3,-2.3 3.9,-1.9 5.3,-1 7.6,-0.5 12.2,0.3 3.5,-0.9 2.7,-1.7 3.3,-3.7 1.2,-4.3 12.8,-84.5 -0.1,-4.6 -2.9,-5.9 -5.4,-4.8 -6.6,-7.1 -4.3,-6.8 -0.7,-1.5 -6.2,-18.3 -0.4,-4.3 0.3,-5.6 2.7,-17.4 2.6,-9.3 v -6.4 l -2.9,-16.1 2.8,-5 0.6,-0.6 0.7,-3.1 -2.7,-6.6 -1.6,-7.5 1.7,-4.3 2.5,-3.1 3.5,-2.9 3.1,-1.4 3.2,-1 17.7,-0.6 5.3,-1.1 12.9,-4.6 2.8,-1.7 2.5,-2 3.3,-3.9 0.7,-4 0.3,-6.6 -2.5,-23.5 -4.7,-15.1 -1,-5.2 -5,-12.7 -3.5,-5.1 -8.3,-7.8 -1.8,-2.6 -1.3,-2.5 -0.6,-2.6 -0.1,-5 0.6,-4.7 2.2,-5.4 3.9,-7 8.1,-10.8 2,-1.6 6.9,-4 15.7,-0.1 17,-4 16.4,-1.1 16.5,-2.9 51,3.9 52.1,-7.2 17.7,0.6 47.4,9.8 78.3,-6.6 78.1,-16 122.9,-13.6 0.1,10.1 -2.4,8.8 -8.3,16.5 -2.9,8.8 -0.4,17 -2.1,6.1 -4.9,6.2 -5.1,0.8 -20.8,-10.9 -6.8,-1.2 -6.4,2 -6.3,6.3 -2.2,3.1 -0.9,2.1 -0.3,6.5 -1.3,3.9 -8.2,12.7 -6.6,14.9 0.3,6.2 4.6,7.5 22,22.9 3,4.1 0.9,5.2 -1.1,7.7 -3,7.3 -4,3 -4.8,2.3 -5,4.8 -2.1,5.3 -2,28.2 -3.3,6.5 -10.5,12.6 -8.5,15.7 -5.8,5.4 -19.5,-2.2 -12.6,3.4 -23.3,9.6 -5.3,3.9 -2.8,6.6 -0.8,7.5 1.2,6.4 4,10.2 2.6,10 -2.3,8.6 -10.6,5.9 -5.7,-0.3 -6.3,-1.2 -5.3,1.6 -2.4,8.1 0.4,2.3 1.7,4.1 -0.4,1.7 -19.8,26.1 -2.4,2.1 -5.2,1.8 -2.3,1.7 -6.3,10.2 -1.3,9.1 2.2,9.1 4.1,10.4 1.2,5.5 -0.1,21.3 -2,6.8 -6.7,12.8 -10.8,33.7 -4.9,10.3 -8,5.5 -22.1,5.8 h -3.8 l -3.3,-1.5 -3.1,-2.2 -3.6,-1.7 -3.5,-0.4 -10,0.3 -3.4,0.7 -3.5,2.2 -2.7,2.9 -3.2,2.3 -4.3,0.6 -25,-2 1,8.7 -0.7,20.8 -1.8,9 -1,2 -3.7,5.5 -0.8,0.7 0.6,2.7 3,1.3 1.2,2.3 -0.1,5 -4.1,9.3 -1.2,5.1 0.4,2.9 1.7,5 -0.4,3 -1.7,1.7 -5.5,2.5 -1.8,2.5 z"
       id="BEN2169"
       name="Borgou" />
    <path
       d="m 998.9,586.5 -122.9,13.6 -78.1,16 -78.3,6.6 -47.4,-9.8 -17.7,-0.6 -52.1,7.2 -51,-3.9 -16.5,2.9 -16.4,1.1 -17,4 -15.7,0.1 3.7,-2.1 -1.6,-105.1 0.6,-5.4 1.1,-4.1 3.3,-5.7 6.5,-7.5 19.3,-16.1 -10.6,-10.3 -3.8,-2.6 -2.4,-0.4 -6,-3.1 -4.1,-0.7 -3,-0.1 -16,-23 -63.1,-114 -1.5,-1.7 42.6,-43.8 23.7,-19.4 17.4,-9.8 4.5,-4.4 1.1,-3.1 -0.2,-3.7 0.2,-5.8 3.5,-9.3 12.4,-14.1 4.6,-8.6 11.7,-32 -0.7,-3.4 -3.7,-5.7 -0.5,-3.7 1.9,-4.2 2.7,-0.8 3.1,0.5 2.8,-0.8 2.2,-2.5 2.5,-4.8 2.2,-2.4 3.3,-0.3 3.4,1.2 2.4,-0.5 0.2,-5.7 -0.7,-4.1 -2.1,-1.5 -3.1,-0.8 -3.5,-1.6 -3.3,-2.7 -2.3,-2.7 -1.8,-3.3 -11,-31.1 -3.1,-18.5 -0.3,-7.5 2.8,-5.8 7.9,-3.6 4.4,-0.6 7.5,0.3 4.1,-0.4 3.5,-4.6 1.7,-1.2 2.4,0.6 1.8,1.9 1.7,0.5 1.8,-3.4 1.5,-4.1 2.3,-1 3,0.5 3.9,0.1 0.9,0.8 1.5,3.3 2.4,-0.2 1.9,-1.1 2.9,-2.8 1.5,-1 11.5,-3.2 1.3,0.3 2.8,1.6 1.6,0.2 2,-1 3.9,-2.9 2.2,-0.4 11.4,3.1 3,-1.8 4.5,-7.2 1.1,-2.5 1.5,-5 1.8,-2 3.5,-1.4 3.4,2.4 3.4,-0.9 3,-2.4 5.2,-6.3 3.6,-2.3 3.1,-0.7 6.6,0.3 3.3,-0.7 7.7,-0.3 3.8,-5 15.6,14 6.6,3.6 3.3,3.5 2.5,4.1 2,7.5 2.7,2.7 3.6,1.9 3.8,1.4 10.8,1.3 2.7,0.8 1.2,1.8 3.2,6.1 13.1,19.5 55.8,51.2 1,1.7 4.4,3.4 1,1.8 0.8,7 1.6,7.6 2.4,6 7.4,12.6 4.6,5.4 2.7,2.5 4,2.7 4.5,1.2 4.4,-2 4.5,-2.8 3.9,0.8 3.4,2 3.7,1.2 14.5,9.1 11.9,4.2 3.6,2.5 2.6,2.5 10.9,15.6 5.4,4.4 1.2,2.6 1.6,5.3 1.3,2.5 0.6,2.9 1.1,2.6 2.7,1.5 3.1,5.2 2.2,1.9 -7.1,7.5 -22.5,38.6 -3.9,14.9 -2,5.1 -6.5,17.8 0.5,7.6 4.9,9 58.1,82.4 7.8,7.5 2.7,0.4 3.1,-0.5 3,0.1 2.7,2.7 -3.3,12.8 v 7.1 l 1.3,6.6 2.4,6.1 3.3,5.7 6.7,29.5 -0.4,9.7 -7,17.4 -0.4,5.7 1.6,3.9 2.6,2.8 2.9,2.4 2.4,2.8 1.6,3.6 3.1,10.8 3,3.7 4.2,1.2 4.6,0.9 4.1,2.4 3,6.4 1.6,9.6 z"
       id="BEN2170"
       name="Alibori" />
    <path
       d="m 637.6,1198.3 7.1,89.6 -2.6,11 -2.6,3.9 -6.4,7.3 -1.7,4.1 -0.1,2.9 0.8,6.1 v 3 l -2.5,13.6 -0.4,6.3 1.2,7.8 2.5,7.2 6.4,13.7 2.2,6.9 -0.2,7.2 -2.5,6.1 -3.4,5.4 -2.5,5.6 -0.9,6 -0.7,19.6 -4.1,20.7 -1.2,20.6 -1.2,3 -3.3,6.2 -0.7,2.5 0.3,2.7 2.7,4 3.6,9.4 7.8,8.7 2.9,4.7 0.9,4.7 -3.1,44.2 -66.9,-0.4 -4.3,0.2 -4.9,13.6 -0.7,9.3 2.2,8.5 -0.8,3.6 -4.7,1.5 -3.2,2.1 -10.2,14.5 -3.8,7.2 0.9,7.8 2.3,8.1 -58.2,-26.6 -22.9,-7.3 -18.8,-1.7 -17.1,0.4 -15.4,-2.6 -12.3,-8.4 -12.1,-10.8 -17.7,-7.4 -14.5,-3.1 -65.6,3.9 -6.4,-0.6 -0.4,-122.5 1.3,-89.7 -3.4,-28.2 -1.7,-3 -1.9,-0.6 -0.9,-1.4 1.6,-8 v -5.7 l 0.5,-2.8 10.7,-17.7 1.2,-5.8 -1.4,-3.2 -8.4,-10.6 -1.6,-3.7 -0.5,-3.9 -0.1,-9.8 5.8,0.5 17.5,0.6 11.4,-0.9 28.2,-7.6 5.3,-0.9 3.9,-0.3 5.5,2 2.8,1.7 2.4,2.1 8.8,9.5 2.8,1.8 3.5,1.2 2,0.3 9.9,-0.1 3.5,0.9 2.5,2 4.9,6.3 2.3,2.3 5.9,3.4 9.5,2.9 1.4,0.8 3.8,3.1 3.3,1 7.9,-0.1 3.9,0.7 8.9,3.3 3.9,0.6 7.7,-0.3 5.5,-1.6 3.9,-1.8 2.8,-1.8 4.6,-3.5 2.5,-4 -1.8,-1.8 -2.3,-7.9 4.3,-28.2 -5.3,-29.3 -2.3,-4.5 -3,-3.9 2.4,-10.2 z"
       id="BEN2171"
       name="Collines" />
    <path
       d="m 554.8,1975.6 -15.3,1.9 -6.9,1.9 -5.7,3.8 -4.1,3.8 -3,8 -17.1,1.6 -26,5.8 -77.5,8.9 0.2,-2.8 -1.2,-5.9 -2.7,-8.5 -5,-7.3 -1,-10 1.6,-6.8 9,-23.1 0.9,-3.9 0.3,-6.7 -1.1,-18.5 -0.3,-8.9 0.4,-3 1,-2.8 2.4,-4 4.3,-4.8 0.8,-2.2 0.6,-3.5 -0.3,-6 1.7,-8.4 4.3,-8.9 -0.3,-6.4 -0.6,-4.1 0.5,-2.7 1.2,-3.3 4.6,-8.2 2.7,-3.1 1.5,-2.9 5.1,-13.1 2,-3.9 1.6,-4.9 -3,-8 97.6,-0.4 11.1,18.1 3.2,13.3 1,18.9 1.7,44.8 2.3,29.7 3.6,6.4 1.8,0.4 3.3,1.5 3.8,2.7 1.4,14.9 -1.3,8 z"
       id="BEN2174"
       name="Atlantique" />
    <path
       d="m 560.1,1991.3 -40.3,3.7 3,-8 4.1,-3.8 5.7,-3.8 6.9,-1.9 15.3,-1.9 -1.1,6.8 2.5,2.1 3.2,1.2 z"
       id="BEN2175"
       name="Littoral" />
    <path
       d="m 430.4,1804.7 3,8 -1.6,4.9 -2,3.9 -5.1,13.1 -1.5,2.9 -2.7,3.1 -4.6,8.2 -1.2,3.3 -0.5,2.7 0.6,4.1 0.3,6.4 -4.3,8.9 -19.8,-9.9 -10,-2.9 -10.8,-0.4 -17.7,3.8 -20.4,7.6 -30.5,7.2 -7.1,-0.1 -5.5,-0.7 -19.1,-9.2 2.6,-3.4 1.3,-5 -1.9,-7.9 -2.5,-6.7 -1.4,-5.6 -0.2,-5.6 2.4,-13.7 -0.6,-4.6 -3,-3.5 -5.3,-4 -3.6,-5.4 -6.3,-23.2 24.5,0.1 5.9,-1.7 -0.3,-48 -0.5,-128.5 10.5,2.2 6.9,8.3 2.4,4.1 17,36.3 1.9,8.4 1.1,2.5 1.9,2.7 0.6,2.2 0.5,6.2 1.3,2.6 2.5,3.2 5.1,3.7 12.5,16.3 2.8,5.6 4.1,2.6 5,8.7 4.2,15.3 3.1,14.2 4,6.8 4.1,2.5 5.2,4 6.8,10.4 5.2,7.5 5.3,2.7 4.4,6.7 1.5,5.7 0.7,1.5 1.7,1.7 11.1,8.2 2.8,1.2 2.1,0.2 3.4,-1.4 5.4,-3 z"
       id="BEN2176"
       name="Couffo" />
    <path
       d="m 571.8,1780.6 -0.6,16.6 3.2,16.5 15.5,37.8 6.6,38.3 6.3,10.2 15.7,13.3 5,5.4 12.7,21.5 -1,3.2 -3.7,21.3 -0.1,19.9 -71.3,6.7 -0.7,-5.6 -3.2,-1.2 -2.5,-2.1 1.1,-6.8 5.1,-12.6 1.3,-8 -1.4,-14.9 -3.8,-2.7 -3.3,-1.5 -1.8,-0.4 -3.6,-6.4 -2.3,-29.7 -1.7,-44.8 -1,-18.9 -3.2,-13.3 -11.1,-18.1 0.5,-6.6 3.6,-6.4 5.3,-7.2 5.2,-2.8 9.1,-0.9 z"
       id="BEN2177"
       name="Oum" />
    <path
       d="m 541.8,1639 1.8,6.2 v 14.6 l 1.1,2.9 1.8,2.4 1.5,3.2 v 5.1 l 6.1,23.2 5,10.8 15.3,10.5 1.9,2.1 0.1,1.8 -0.4,5.5 7.2,36.4 1.6,14.6 -1.1,1.6 -1.4,0.7 -4.3,0.4 -6.2,-0.4 -20.1,-0.2 -9.1,0.9 -5.2,2.8 -5.3,7.2 -3.6,6.4 -0.5,6.6 -97.6,0.4 -2.3,-2 -5.4,3 -3.4,1.4 -2.1,-0.2 -2.8,-1.2 -11.1,-8.2 -1.7,-1.7 -0.7,-1.5 -1.5,-5.7 -4.4,-6.7 -5.3,-2.7 -5.2,-7.5 -6.8,-10.4 -5.2,-4 -4.1,-2.5 -4,-6.8 -3.1,-14.2 -4.2,-15.3 -5,-8.7 -4.1,-2.6 -2.8,-5.6 -12.5,-16.3 -5.1,-3.7 -2.5,-3.2 -1.3,-2.6 -0.5,-6.2 -0.6,-2.2 -1.9,-2.7 -1.1,-2.5 -1.9,-8.4 -17,-36.3 -2.4,-4.1 -6.9,-8.3 -10.5,-2.2 -0.2,-28.1 6.4,0.6 65.6,-3.9 14.5,3.1 17.7,7.4 12.1,10.8 12.3,8.4 15.4,2.6 17.1,-0.4 18.8,1.7 22.9,7.3 z"
       id="BEN2178"
       name="Zou" />
    <path
       d="m 635.9,1563 -0.8,10.7 1.7,12.8 6.5,12.2 9.6,11.5 7.2,12 -0.9,13.6 -1,4.8 -1,0.7 -7,-1.4 -3.4,-0.1 -2.5,1.5 -0.8,3.6 6.8,80.4 -0.3,4.5 -1.1,3.1 -2.6,3.4 -3,6.2 -1.4,2.2 -0.3,2.2 1.2,4.3 2.8,3.5 8.5,7 1.9,3.1 -1.3,3.5 -3.3,1.8 -4.1,1.3 -3.8,1.8 -8.4,11.7 1,11.9 4.4,12.5 1.6,13.7 -3.4,13.7 -0.9,7.1 1.6,6.4 2.5,3.3 2.8,2 3.3,1 4,0.4 1.9,1.5 0.7,3.3 1,15 -1.8,3.7 -4,2.7 -5.8,5.2 -3.8,7 -0.1,6.7 2.8,13.8 -0.6,6.9 -6.1,17.5 -12.7,-21.5 -5,-5.4 -15.7,-13.3 -6.3,-10.2 -6.6,-38.3 -15.5,-37.8 -3.2,-16.5 0.6,-16.6 6.2,0.4 4.3,-0.4 1.4,-0.7 1.1,-1.6 -1.6,-14.6 -7.2,-36.4 0.4,-5.5 -0.1,-1.8 -1.9,-2.1 -15.3,-10.5 -5,-10.8 -6.1,-23.2 v -5.1 l -1.5,-3.2 -1.8,-2.4 -1.1,-2.9 v -14.6 l -1.8,-6.2 -2.3,-8.1 -0.9,-7.8 3.8,-7.2 10.2,-14.5 3.2,-2.1 4.7,-1.5 0.8,-3.6 -2.2,-8.5 0.7,-9.3 4.9,-13.6 4.3,-0.2 z"
       id="BEN2179"
       name="Plateau" />
    <path
       d="m 410.8,1874.2 -1.7,8.4 0.3,6 -0.6,3.5 -0.8,2.2 -4.3,4.8 -2.4,4 -1,2.8 -0.4,3 0.3,8.9 1.1,18.5 -0.3,6.7 -0.9,3.9 -9,23.1 -1.6,6.8 1,10 5,7.3 2.7,8.5 1.2,5.9 -0.2,2.8 -33.5,3.8 -85.9,19.9 -2.3,-6.8 6.7,-3.6 41.6,-9.9 6.8,-0.4 -6.1,-23.9 -6.3,-24.5 -8.4,-13.5 -2.8,-2.1 -6.9,-3.6 -2.2,-1.8 -0.7,-2.8 0.8,-7 -0.4,-3.3 -2,-2.8 -5.4,-4.4 -0.9,-2.3 -0.4,-3.7 -2.3,-0.9 -3.2,0.3 -3.1,-0.3 -2.5,-1.5 -2.7,-2.2 -2.6,-2.6 -1.9,-2.7 -1.1,-3.3 0.8,-5.8 -0.1,-2.5 -3.5,-6.5 -4.2,-3.5 -2.1,-3.6 2.7,-7.4 4.8,-6.5 19.1,9.2 5.5,0.7 7.1,0.1 30.5,-7.2 20.4,-7.6 17.7,-3.8 10.8,0.4 10,2.9 z"
       id="BEN2180"
       name="Mono" />
    <path
       d="m 408.2,321.8 1.5,1.7 63.1,114 16,23 3,0.1 4.1,0.7 6,3.1 2.4,0.4 3.8,2.6 10.6,10.3 -19.3,16.1 -6.5,7.5 -3.3,5.7 -1.1,4.1 -0.6,5.4 1.6,105.1 -3.7,2.1 -6.9,4 -2,1.6 -8.1,10.8 -3.9,7 -2.2,5.4 -0.6,4.7 0.1,5 0.6,2.6 1.3,2.5 1.8,2.6 8.3,7.8 3.5,5.1 5,12.7 1,5.2 4.7,15.1 2.5,23.5 -0.3,6.6 -0.7,4 -3.3,3.9 -2.5,2 -2.8,1.7 -12.9,4.6 -5.3,1.1 -17.7,0.6 -3.2,1 -3.1,1.4 -3.5,2.9 -2.5,3.1 -1.7,4.3 1.6,7.5 -92.1,-3 -12.2,4.6 -11.4,6.6 -10.7,8.8 -13.7,6.9 -16.3,3.9 -20.5,-2.2 -13.8,-3.2 -15.8,-1.9 -13.6,-0.4 -18.4,3.6 -4.1,1.6 v -2.6 l -4.2,-11.2 -80.7,-54 -77.1,-51.7 -24.5,-16.4 -2.6,-5 -0.3,-7.6 4.5,-33.9 4.8,-18.4 0.2,-12.9 -2.6,-29.7 4.7,-11.1 17.6,-16.9 4.2,-6.1 1,-3.4 0.5,-7.5 0.7,-3.5 5,-9.8 -0.4,-3.5 -2.8,-6.8 -0.7,-3.5 0.9,-6.6 8.3,-20.3 9.9,5.5 4.4,0.6 H 67 l 1.3,-1.7 0.8,-3.9 -0.3,-3.9 -1.8,-1.7 -2.6,-1.3 -1.2,-3 -0.1,-3.7 0.3,-3.3 1.2,-0.8 2.7,-4.2 1.9,-4 2.2,-2.9 1.4,-0.6 1.5,0.5 7.1,1.2 3.9,3.1 2.6,1.4 2.3,4 2.1,-0.1 4.8,-2.1 9.9,1.1 3.3,1.1 3.2,4.9 2.4,2.2 1.1,-1.5 0.3,-5.3 -3.7,-3.8 -2,-3.5 -0.5,-3.6 -0.1,-3.7 -0.7,-3.9 -4.6,-2.1 -0.2,-1.5 0.6,-4.1 -0.4,-1.4 -3,-0.7 -2.1,1.9 -1.2,0.4 -0.3,-5 1.6,-0.7 10.7,-2.4 1.9,-1.4 2.2,-6 1.5,-1.7 3.4,0.1 6.5,3.1 3.3,1.1 -1.6,-5.7 -1.3,-11.2 -6.1,-10.1 1.6,-4.1 3.4,-3.2 3.4,-5.2 3.1,2.5 2.4,3.8 -0.4,1.6 2.8,0.1 3.4,-1.9 2.8,-0.6 6.2,0.3 5.2,1.5 10.8,5.1 4.1,-7.6 0.5,-2.6 -0.7,-3.3 -3.2,-3.1 -0.7,-2.6 1.6,-4 3.6,1.8 3.8,4.3 2.1,3.6 2.2,-2.7 2.2,-1 2.4,1 2.2,2.7 5.7,-4.9 -0.7,-4.2 -3.1,-4.5 -1.9,-5.7 2.8,-6.3 6.5,-4.2 7.3,-3.2 5.4,-3.3 -3.1,-7.1 0.4,-2.8 2.7,-3.9 4.2,-3.2 4,-1.3 3.4,-1.8 1.8,-4.8 5.3,3 6.3,1.3 30.5,2.5 -0.7,2.2 -1.3,6.8 5.6,-0.3 6.9,12.7 6.3,-2.2 5.5,-3 15,-3.2 6.2,-3 5.1,-1.6 14.3,1.1 6.1,-0.5 12.8,-5.1 6.2,-1.3 5.6,1.7 3.1,-2.1 4,0.6 8.4,4 13.7,5.3 11.5,0.9 8.8,-4.3 z"
       id="BEN2181"
       name="Atacora" />
    <path
       d="m 433,784 2.7,6.6 -0.7,3.1 -0.6,0.6 -2.8,5 2.9,16.1 v 6.4 l -2.6,9.3 -2.7,17.4 -0.3,5.6 0.4,4.3 6.2,18.3 0.7,1.5 4.3,6.8 6.6,7.1 5.4,4.8 2.9,5.9 0.1,4.6 -12.8,84.5 -1.2,4.3 -3.3,3.7 -2.7,1.7 -3.5,0.9 -12.2,-0.3 -7.6,0.5 -5.3,1 -3.9,1.9 -3,2.3 -4.8,14.2 -1.5,11.1 -0.2,18.7 1,10.4 1.4,7.1 2.2,4.5 2,2.6 3.5,3.5 2.5,1.7 9.5,4.5 2.2,2.2 1.4,2.5 0.4,2.3 -0.5,4 -2.7,6.8 -2.1,7.9 -2.3,15 -0.7,16.2 0.5,5.3 1.4,6.8 2.3,5 4.2,5.1 2.5,2.1 3,1.9 6.5,3.1 32.4,9.1 3,1.5 1.9,2 -2.7,11.5 -2.4,10.2 3,3.9 2.3,4.5 5.3,29.3 -4.3,28.2 2.3,7.9 1.8,1.8 -2.5,4 -4.6,3.5 -2.8,1.8 -3.9,1.8 -5.5,1.6 -7.7,0.3 -3.9,-0.6 -8.9,-3.3 -3.9,-0.7 -7.9,0.1 -3.3,-1 -3.8,-3.1 -1.4,-0.8 -9.5,-2.9 -5.9,-3.4 -2.3,-2.3 -4.9,-6.3 -2.5,-2 -3.5,-0.9 -9.9,0.1 -2,-0.3 -3.5,-1.2 -2.8,-1.8 -8.8,-9.5 -2.4,-2.1 -2.8,-1.7 -5.5,-2 -3.9,0.3 -5.3,0.9 -28.2,7.6 -11.4,0.9 -17.5,-0.6 -5.8,-0.5 -0.6,-43.9 -1.4,-107.3 -1.7,-9 -2.6,-7.9 -6.7,-11.8 -46,-48.5 -7.8,-12.1 -4.7,-13.1 -2.2,-33.4 -3.8,-9.3 -5.5,2.7 -4.8,-4.9 -3.3,-8 -1,-6.7 1.3,-4.3 5.8,-8.9 2,-4.2 0.4,-3.3 -0.1,-6.6 0.7,-3.3 0.5,-4 -2.5,-15.4 -1,-61.5 -0.4,-24.2 4.1,-1.6 18.4,-3.6 13.6,0.4 15.8,1.9 13.8,3.2 20.5,2.2 16.3,-3.9 13.7,-6.9 10.7,-8.8 11.4,-6.6 12.2,-4.6 z"
       id="BEN2182"
       name="Donga" />
    <circle
       cx="805.59998"
       cy="858.09998"
       id="0"
       r="0" />
    <circle
       cx="924.40002"
       cy="526.59998"
       id="1"
       r="0" />
    <circle
       cx="51.200001"
       cy="563.20001"
       id="2"
       r="0" />
  </g>
</svg>
