<svg xmlns="http://www.w3.org/2000/svg" xmlns:xlink="http://www.w3.org/1999/xlink" width="532.551" height="279.776" version="1.2" viewBox="0 0 399.413 209.832"><defs><symbol id="a" overflow="visible"><path d="M2.61 0h5.968v-17.344h1.39c3.485 0 4.063 1.11 4.063 5.797 0 2.844-.047 9.235.406 11.547h5.797c-.39-2.313-.343-8.64-.343-11.89 0-5.282-1.328-6.907-3.532-7.954 1.453-.625 3.938-2.14 3.938-8.11v-1.452c0-6.953-3.485-9.344-9.39-9.344H2.608Zm5.968-33.813h1.688c3.421 0 4 1.797 4 4.813v1.328c0 4.235-1.157 5.406-4.297 5.406h-1.39Zm0 0"/></symbol><symbol id="b" overflow="visible"><path d="M13.797-10.375 15.312 0h6.266l-6.5-38.75H6.672L.406 0H6.5l1.328-10.375zm-5.219-5.453c.766-5.75 1.985-14.047 2.094-17.235h.234c.469 4.36 1.281 10.61 2.203 17.235zm0 0"/></symbol><symbol id="c" overflow="visible"><path d="M2.61 0h5.968v-15.953h2.328c7.36 0 9.625-4.235 9.625-10.61v-2.265c0-6.906-3.125-9.922-9.281-9.922H2.61Zm5.968-33.813h2.203c3.313 0 3.828 2.313 3.828 5.157v1.86c0 3.827-.625 5.968-4.406 5.968H8.578zm0 0"/></symbol><symbol id="d" overflow="visible"><path d="M11.313-39.328c-5.797 0-9.516 3.422-9.516 10.844v18.218c0 7.25 2.844 10.844 9.11 10.844 6.609 0 9.734-3.531 9.734-10.953v-18.11c0-7.421-3.47-10.843-9.328-10.843zm-.126 5.453c2.438 0 3.376 1.688 3.376 4.766v19.484c0 3.36-1.047 4.813-3.376 4.813-2.14 0-3.296-1.516-3.296-4.75v-19.5c0-3.25 1.156-4.813 3.296-4.813zm0 0"/></symbol><symbol id="e" overflow="visible"><path d="M6.203 0h5.984v-33.172h6.25v-5.578H0v5.578h6.203zm0 0"/></symbol><symbol id="g" overflow="visible"><path d="M.75-11.422v2.313C.75-4 2.5.578 9.688.578c7.25 0 9.156-5.219 9.156-10.734 0-6.485-1.797-8.922-7.594-13.219-3.422-2.5-3.938-3.828-3.938-6.61 0-2.546.516-4.234 2.485-4.234 1.984 0 2.437 1.625 2.437 4.344v1.922h5.922v-2.094c0-4.234-1.11-9.328-8.234-9.328-7.016 0-8.594 5.156-8.594 10.266 0 5.734 2.266 7.828 6.438 11.125 4.125 3.312 5.046 4.593 5.046 8.765 0 2.485-.624 4.688-2.953 4.688-2.265 0-3.125-1.61-3.125-4.453v-2.438zm0 0"/></symbol><symbol id="h" overflow="visible"><path d="M2.375-38.75v29.36c0 6.609 2.969 9.968 9.11 9.968 6.5 0 9.218-3.828 9.218-9.969V-38.75h-5.969v29.469c0 2.61-.75 4.469-3.14 4.469-2.313 0-3.235-1.625-3.235-4.47V-38.75Zm0 0"/></symbol><symbol id="i" overflow="visible"><path d="M2.61 0h15.203l.515-5.344h-9.75V-38.75H2.61zm0 0"/></symbol><symbol id="j" overflow="visible"><path d="M17.047-23.203H8.53v-9.969h8.985v-5.578H2.546V0h15.079l.766-5.516H8.53v-12.171h8.516zm0 0"/></symbol><symbol id="k" overflow="visible"><path d="M2.61 0h8.296C20.125 0 21.11-6.5 21.11-12.406v-14.906c0-7.204-1.968-11.438-10.203-11.438H2.61Zm5.968-33.578H10.5c3.938 0 4.516 2.266 4.516 5.797v16.187c0 4-.579 6.485-4.516 6.485H8.578Zm0 0"/></symbol><symbol id="l" overflow="visible"><path d="M17.047-23.203H8.53v-9.969h8.985v-5.578H2.546V0h15.079l.766-5.516H8.53v-12.171h8.516zm-4.453-23.781-5.64 5.859h5.64l7.36-5.86zm0 0"/></symbol><symbol id="m" overflow="visible"><path d="M.344-38.75 7.14 0h7.296L21-38.75h-6.39l-1.907 15.89c-.64 5.282-1.515 10.86-1.86 15.032h-.109c-.359-4.469-1.218-9.922-1.859-15.14L6.781-38.75Zm0 0"/></symbol><symbol id="n" overflow="visible"><path d="M22.39 0h5.688v-38.75h-8.64c-1.516 9.281-3.657 20.828-4.297 26.344h-.063c-.515-5.453-2.031-16.485-3.531-26.344H2.609V0h5.454v-13.75c0-6.672-.235-15.422-.344-19.953h.11c.937 7.078 3.077 23.61 4.359 33.703h5.624c1.672-11.188 3.829-26.906 4.688-33.64h.063c-.11 4.468-.172 12.64-.172 19.203Zm0 0"/></symbol><symbol id="o" overflow="visible"><path d="M8.172 0v-10.61c0-6.968.062-12.187-.219-16.874H8c.234 1.156.531 2.828 1.047 4.859L14.734 0h6.672v-38.75h-5.515v10.094c0 6.328 0 11.781.296 16.531h-.062c-.344-1.672-.75-4-1.453-6.844L9.516-38.75H2.609V0Zm0 0"/></symbol><symbol id="p" overflow="visible"><path d="M2.61 0h8.468c6.781 0 9.516-3.484 9.516-9.969v-2.969c0-5.624-2.61-7.078-4.36-7.765 1.75-.703 3.61-2.328 3.61-7.781v-1.438c0-5.687-2.563-8.828-9.282-8.828H2.61Zm5.796-22.969v-10.843h1.86c2.843 0 4 1.218 4 4.468v1.5c0 3.828-1.047 4.875-4.344 4.875zm0 4.813h1.516c3.828 0 4.75 1.625 4.75 5.39v2.61c0 3.781-.813 5.281-4.297 5.281H8.406Zm0 0"/></symbol><symbol id="q" overflow="visible"><path d="M2.61-38.75V0h5.968v-38.75zm0 0"/></symbol><symbol id="r" overflow="visible"><path d="m18.328 0 .813-5.281H7.953c.344-3.25 2.61-6.5 5.219-10.438 3.531-5.219 5.094-7.312 5.094-13.578 0-5.39-1.735-9.906-8.407-9.906-7.312 0-8.703 4.75-8.703 9.219v2.14h5.688v-1.968c0-2.844.75-4.235 2.718-4.235 2.266 0 2.563 1.86 2.563 5.11 0 4.062-.938 5.796-4.234 10.671C3.484-11.828 1.109-8.234 1.047-.516V0Zm0 0"/></symbol><symbol id="s" overflow="visible"><path d="M11.078-39.203c-6.375 0-9.219 4.281-9.219 10.14v18.907C1.86-4.47 3.72.469 10.734.469c7.532 0 9.329-5 9.329-10.672V-29.11c0-5.282-2.375-10.094-8.985-10.094zm-.11 5.328c2.141 0 3.016 1.563 3.016 4.234v20.25c0 2.782-.812 4.454-3.015 4.454-2.203 0-3.078-1.797-3.078-4.344v-20.235c0-2.609.812-4.359 3.078-4.359zm0 0"/></symbol></defs><path fill="#45a338" d="M35.263 26.027c0 6.84-5.547 12.387-12.387 12.387-6.844 0-12.39-5.547-12.39-12.387 0-6.844 5.546-12.386 12.39-12.386 6.84 0 12.387 5.542 12.387 12.386"/><path fill="#f5d105" d="M72.427 63.191c0 6.84-5.547 12.387-12.387 12.387-6.844 0-12.39-5.547-12.39-12.387 0-6.843 5.546-12.39 12.39-12.39 6.84 0 12.387 5.547 12.387 12.39"/><path fill="#f59119" d="M35.263 100.355c0 6.84-5.547 12.387-12.387 12.387-6.844 0-12.39-5.547-12.39-12.387 0-6.843 5.546-12.39 12.39-12.39 6.84 0 12.387 5.547 12.387 12.39"/><path fill="#d92b33" d="M72.427 137.52c0 6.84-5.547 12.386-12.387 12.386-6.844 0-12.39-5.547-12.39-12.387 0-6.843 5.546-12.39 12.39-12.39 6.84 0 12.387 5.547 12.387 12.39"/><path fill="#45a338" d="M71.532 22.144a3.1 3.1 0 0 1 0 4.356c-.617.617-1.394.902-2.219.902-.777 0-1.558-.285-2.214-.902 0 0-1.891-1.93-3.985-4.027v15.773c0 1.723-1.355 3.121-3.039 3.121a3.095 3.095 0 0 1-3.12-3.121V22.473A568.8 568.8 0 0 0 52.97 26.5c-.574.617-1.438.902-2.219.902-.82 0-1.602-.285-2.176-.902a3.03 3.03 0 0 1 0-4.356l11.5-11.457zm0 0"/><path fill="#f5d105" d="M34.774 69.094c0 1.847-1.484 3.425-3.336 3.425-.992 0-1.8-.449-2.433-.992a3.402 3.402 0 0 1-.992-2.433v-6.27L15.84 75.133c-1.399 1.308-3.563 1.308-4.824 0-1.356-1.352-1.356-3.559 0-4.82l12.171-12.266h-6.222a3.36 3.36 0 0 1-2.387-.992c-.59-.633-.996-1.399-.996-2.344 0-1.895 1.535-3.473 3.383-3.473h17.808zm0 0"/><path fill="#f59119" d="M63.942 111.816c-1.23 1.235-3.203 1.235-4.398 0-.617-.613-.902-1.355-.902-2.218 0-.7.285-1.563.902-2.137 0 0 1.89-1.934 3.95-3.988H47.79a3.121 3.121 0 0 1-3.125-3.125 3.094 3.094 0 0 1 3.125-3.122h15.703c-2.058-2.015-3.95-4.03-3.95-4.03-.616-.575-.901-1.356-.901-2.177 0-.742.285-1.562.902-2.222 1.195-1.11 3.168-1.11 4.398 0l11.47 11.55zm0 0"/><path fill="#d92b33" d="M11.708 140.039a3.077 3.077 0 0 1 0-4.395 3.08 3.08 0 0 1 2.18-.902c.777 0 1.64.328 2.215.902 0 0 1.89 2.016 3.984 4.028V123.98c0-1.765 1.355-3.16 3.121-3.16 1.684 0 3.04 1.395 3.04 3.16v15.692a119.407 119.407 0 0 0 3.983-4.028c.657-.574 1.438-.902 2.22-.902.82 0 1.6.328 2.218.902a3.148 3.148 0 0 1 0 4.395l-11.461 11.582zm0 0"/><use xlink:href="#a" width="100%" height="100%" x="202.34" y="104.559" fill="#fff" transform="translate(-96.366 -55.184)"/><use xlink:href="#b" width="100%" height="100%" x="225.366" y="104.559" fill="#fff" transform="translate(-96.366 -55.184)"/><g fill="#fff" transform="translate(-96.366 -55.184)"><use xlink:href="#c" width="100%" height="100%" x="247.754" y="104.559"/><use xlink:href="#c" width="100%" height="100%" x="269.852" y="104.559"/></g><g fill="#fff" transform="translate(-96.366 -55.184)"><use xlink:href="#d" width="100%" height="100%" x="292.414" y="104.559"/><use xlink:href="#a" width="100%" height="100%" x="315.44" y="104.559"/></g><g fill="#fff" transform="translate(-96.366 -55.184)"><use xlink:href="#e" width="100%" height="100%" x="338.466" y="104.559"/><use xlink:href="#f" width="100%" height="100%" x="357.49" y="104.559"/><use xlink:href="#g" width="100%" height="100%" x="365.668" y="104.559"/><use xlink:href="#h" width="100%" height="100%" x="386.2" y="104.559"/><use xlink:href="#a" width="100%" height="100%" x="409.922" y="104.559"/><use xlink:href="#f" width="100%" height="100%" x="432.252" y="104.559"/><use xlink:href="#i" width="100%" height="100%" x="440.43" y="104.559"/><use xlink:href="#j" width="100%" height="100%" x="459.222" y="104.559"/><use xlink:href="#f" width="100%" height="100%" x="478.652" y="104.559"/></g><g fill="#fff" transform="translate(-96.366 -55.184)"><use xlink:href="#k" width="100%" height="100%" x="202.34" y="154.555"/><use xlink:href="#l" width="100%" height="100%" x="225.888" y="154.555"/></g><use xlink:href="#m" width="100%" height="100%" x="245.956" y="154.555" fill="#fff" transform="translate(-96.366 -55.184)"/><use xlink:href="#j" width="100%" height="100%" x="267.648" y="154.555" fill="#fff" transform="translate(-96.366 -55.184)"/><g fill="#fff" transform="translate(-96.366 -55.184)"><use xlink:href="#i" width="100%" height="100%" x="286.846" y="154.555"/><use xlink:href="#d" width="100%" height="100%" x="305.638" y="154.555"/><use xlink:href="#c" width="100%" height="100%" x="328.664" y="154.555"/><use xlink:href="#c" width="100%" height="100%" x="350.762" y="154.555"/><use xlink:href="#j" width="100%" height="100%" x="372.86" y="154.555"/><use xlink:href="#n" width="100%" height="100%" x="392.29" y="154.555"/><use xlink:href="#j" width="100%" height="100%" x="423.552" y="154.555"/></g><g fill="#fff" transform="translate(-96.366 -55.184)"><use xlink:href="#o" width="100%" height="100%" x="442.75" y="154.555"/><use xlink:href="#e" width="100%" height="100%" x="467.342" y="154.555"/><use xlink:href="#f" width="100%" height="100%" x="486.366" y="154.555"/></g><g fill="#fff" transform="translate(-96.366 -55.184)"><use xlink:href="#k" width="100%" height="100%" x="202.34" y="204.551"/><use xlink:href="#h" width="100%" height="100%" x="225.888" y="204.551"/><use xlink:href="#a" width="100%" height="100%" x="249.61" y="204.551"/></g><use xlink:href="#b" width="100%" height="100%" x="272.636" y="204.551" fill="#fff" transform="translate(-96.366 -55.184)"/><use xlink:href="#p" width="100%" height="100%" x="295.024" y="204.551" fill="#fff" transform="translate(-96.366 -55.184)"/><g fill="#fff" transform="translate(-96.366 -55.184)"><use xlink:href="#i" width="100%" height="100%" x="317.412" y="204.551"/><use xlink:href="#j" width="100%" height="100%" x="336.204" y="204.551"/><use xlink:href="#f" width="100%" height="100%" x="355.634" y="204.551"/><use xlink:href="#c" width="100%" height="100%" x="363.812" y="204.551"/></g><g fill="#fff" transform="translate(-96.366 -55.184)"><use xlink:href="#d" width="100%" height="100%" x="386.374" y="204.551"/><use xlink:href="#h" width="100%" height="100%" x="409.4" y="204.551"/><use xlink:href="#a" width="100%" height="100%" x="433.122" y="204.551"/><use xlink:href="#f" width="100%" height="100%" x="455.452" y="204.551"/></g><g fill="#61b3e3" transform="translate(-96.366 -55.184)"><use xlink:href="#i" width="100%" height="100%" x="202.34" y="254.547"/><use xlink:href="#j" width="100%" height="100%" x="221.132" y="254.547"/><use xlink:href="#f" width="100%" height="100%" x="240.562" y="254.547"/><use xlink:href="#p" width="100%" height="100%" x="248.74" y="254.547"/></g><use xlink:href="#l" width="100%" height="100%" x="271.128" y="254.547" fill="#61b3e3" transform="translate(-96.366 -55.184)"/><g fill="#61b3e3" transform="translate(-96.366 -55.184)"><use xlink:href="#o" width="100%" height="100%" x="290.326" y="254.547"/><use xlink:href="#q" width="100%" height="100%" x="314.918" y="254.547"/><use xlink:href="#o" width="100%" height="100%" x="326.75" y="254.547"/><use xlink:href="#f" width="100%" height="100%" x="351.342" y="254.547"/><use xlink:href="#r" width="100%" height="100%" x="359.52" y="254.547"/></g><use xlink:href="#s" width="100%" height="100%" x="380.052" y="254.547" fill="#61b3e3" transform="translate(-96.366 -55.184)"/><use xlink:href="#r" width="100%" height="100%" x="402.788" y="254.547" fill="#61b3e3" transform="translate(-96.366 -55.184)"/><use xlink:href="#r" width="100%" height="100%" x="424.132" y="254.547" fill="#61b3e3" transform="translate(-96.366 -55.184)"/><use xlink:href="#f" width="100%" height="100%" x="444.2" y="254.547" fill="#2eb0dc" transform="translate(-96.366 -55.184)"/></svg>