<svg id="Layer_1" data-name="Layer 1" xmlns="http://www.w3.org/2000/svg" viewBox="0 0 279 116.5"><defs><style>.cls-1{fill:#fff}.cls-2{fill:#4b9e46}.cls-3{fill:#f8c11a}.cls-4{fill:#f89c27}.cls-5{fill:#e6253d}</style></defs><g id="Layer_2" data-name="Layer 2"><g id="Layer_1-2" data-name="Layer 1-2"><path class="cls-1" d="M68.3 27.4a.53.53 0 00.6.6h2a.53.53 0 00.6-.6v-2.7c0-4.5-2-5.8-5.3-7.7-3.1-1.7-4.4-5.1-4.4-8.7V6a6 6 0 016-6h4.5c3.3 0 6 3.5 6 8.1h-6.7c0-1.6-.2-2.2-.9-2.2H69a.53.53 0 00-.6.6v1.8c0 2.6 1.9 3.4 4.9 5.1 3.2 1.9 4.8 5.8 4.8 11.3v3.2a6 6 0 01-6 6h-4.4a6 6 0 01-6-6v-6.1h6.6zM87.3 27c0 .7.2 1 .6 1H90c.4 0 .6-.3.6-1V.2h6.6v27.6a6 6 0 01-6 6h-4.6a6 6 0 01-6-6V.2h6.6zM106.4 27.4a.53.53 0 00.6.6h2a.53.53 0 00.6-.6v-2.7c0-4.5-2-5.8-5.3-7.7-3.1-1.7-4.4-5.1-4.4-8.7V6a6 6 0 016-6h4.5c3.3 0 6 3.5 6 8.1h-6.6c0-1.6-.2-2.2-.9-2.2h-1.8a.53.53 0 00-.6.6v1.8c0 2.6 1.9 3.4 4.9 5.1 3.2 1.9 4.8 5.8 4.8 11.3v3.2a6 6 0 01-6 6h-4.4a6 6 0 01-6-6v-6.1h6.6zM117.4.2H135v6.6h-5.4v26.5H123V6.9h-5.5zM141.3 26.8l-.8 6.6h-6.6l5-31.8a1.83 1.83 0 011.8-1.4h7.3a1.92 1.92 0 011.8 1.4l5 31.8h-6.6l-.8-6.6zM145 7.6c0-.5-.1-.7-.3-.7h-.7c-.2 0-.3.2-.3.7l-1.5 12.6h4.4zM163.6 33.4H157V.2h6.6zM180.6 26.8h.5L180.6.3h6.6v33.2h-10.9L173.7 7h-.4l.4 26.5h-6.6V.2h11zM196.8 26.8l-.8 6.6h-6.6l5-31.8a2 2 0 011.8-1.4h7.3a1.92 1.92 0 011.8 1.4l5 31.8h-6.6l-.8-6.6zm3.7-19.2c0-.5-.1-.7-.3-.7h-.7c-.2 0-.3.2-.3.7l-1.5 12.6h4.4zM228.8 8.1v3.1c0 3.8-1.3 4.2-3.2 4.9 1.8.2 3.5.8 3.5 5v3.6c0 6.9-1.9 8.8-8.8 8.8h-7.9V.2h7.6c6.8 0 8.8 1.7 8.8 7.9zm-6.6 3.2V8.2c0-1.2-.6-1.5-2-1.5H219v6h1.4c1.3.1 1.8-.3 1.8-1.4zm.2 13.2v-3.4c0-1.4-.4-1.7-1.7-1.7H219v7.4h1.3c1.6 0 2.1-.6 2.1-2.3zM238.5 26.8h7.5v6.6h-14V.2h6.6zM262.1 6.9h-7.6v6.2h6.4v6.6h-6.4v7.1h7.5v6.6h-14.2V.2H262v6.7zM78.9 47.5V69a6 6 0 01-6 6H62.2V41.7h10.7a5.79 5.79 0 016 5.5zm-6.7 21V48.3c0-.5-.2-.6-.6-.6h-2.8V69h2.8c.5 0 .6-.1.6-.5zM96.1 48.4h-7.5v6.2H95v6.6h-6.4v7.1h7.6v6.6H81.9V41.7h14.2zM107.2 68.1c.1.7.2 1 .5 1h.6c.2 0 .4-.3.4-1l3-26.4h6.6l-5.1 32.2a1.92 1.92 0 01-1.8 1.4h-7.1a1.92 1.92 0 01-1.8-1.4l-5.1-32.2h6.8zM134.7 48.4h-7.6v6.2h6.4v6.6h-6.4v7.1h7.5v6.6h-14.2V41.7h14.2l.1 6.7zM143.8 68.3h7.5v6.6h-14.1V41.7h6.6zM158.9 41.5h4.7a6 6 0 016 6v21.9a6 6 0 01-6 6h-4.7a6 6 0 01-6-6V47.5a6 6 0 016-6zm1.2 28h2.2a.53.53 0 00.6-.6V48a.53.53 0 00-.6-.6h-2.2a.53.53 0 00-.6.6v20.9a.53.53 0 00.6.6zM189 47.5v8a5.93 5.93 0 01-5.9 6h-4V75h-6.6V41.7H183a5.73 5.73 0 016 5.5zm-6.6 7.5v-6.6c0-.5-.2-.8-.6-.8h-2.6v7.9h2.7c.3.1.5-.1.5-.5zM205.4 64.2l1.8-22.4h11.2l1.2 33.2H213l-.8-26.6h-.4l-3.2 26.1h-6.5L199 48.4h-.4l-.8 26.6h-6.6l1.3-33.2h10.9zM237 48.4h-7.6v6.2h6.4v6.6h-6.4v7.1h7.6v6.6h-14.2V41.7H237zM253 68.3h.5l-.5-26.6h6.6v33.2h-10.9l-2.6-26.6h-.4l.4 26.6h-6.6V41.7h11zM261.5 41.7H279v6.6h-5.4v26.6H267V48.4h-5.5zM78.8 88.2v6a5.5 5.5 0 01-3.2 4.9 5.39 5.39 0 013.5 5v12.4h-6.6v-12a2.49 2.49 0 00-.7-2h-2.9v14h-6.6V83.2h11.6a5.06 5.06 0 014.9 5zm-6.7 6.1v-4.7q0-.6-.3-.6h-3v6.8h2.6c.5-.2.7-.6.7-1.5zM96.1 89.9h-7.6v6.2H95v6.6h-6.4v7.1h7.6v6.6H82V83.2h14.1zM115.2 89v8a6 6 0 01-6 6h-3.9v13.5h-6.6V83.2h10.5a5.79 5.79 0 016 5.5zm-6.6 7.5v-6.6c0-.5-.2-.7-.6-.7h-2.6v7.9h2.7c.3 0 .5-.2.5-.6zM123.1 83h4.7a5.93 5.93 0 016 5.9v22a5.93 5.93 0 01-5.9 6h-4.8a5.93 5.93 0 01-6-5.9V89a5.93 5.93 0 015.9-6zm1.2 28h2.2a.53.53 0 00.6-.6v-21a.53.53 0 00-.6-.6h-2.2a.53.53 0 00-.6.6v20.9c0 .5.2.7.6.7zM153.3 88.2v6a5.5 5.5 0 01-3.2 4.9 5.39 5.39 0 013.5 5v12.4H147v-12a2.49 2.49 0 00-.7-2h-2.9v14h-6.6V83.2h11.6a5.06 5.06 0 014.9 5zm-6.7 6.1v-4.7q0-.6-.3-.6h-2.9v6.8h2.6c.4-.2.6-.6.6-1.5zM154.9 83.2h17.6v6.6H167v26.6h-6.6V89.9h-5.5z"/></g></g><path class="cls-2" d="M19.47 11.82a9.55 9.55 0 11-9.55-9.55 9.56 9.56 0 019.55 9.55"/><path class="cls-3" d="M48.1 40.46a9.55 9.55 0 11-9.54-9.55 9.54 9.54 0 019.54 9.55"/><path class="cls-4" d="M19.47 69.1a9.55 9.55 0 11-9.55-9.55 9.55 9.55 0 019.55 9.55"/><path class="cls-5" d="M48.1 97.73a9.55 9.55 0 11-9.54-9.54 9.54 9.54 0 019.54 9.54"/><path class="cls-2" d="M47.42 8.83a2.4 2.4 0 010 3.35 2.36 2.36 0 01-1.71.7 2.47 2.47 0 01-1.71-.7l-3.07-3.1v12.16a2.38 2.38 0 11-4.75 0V9.08l-3.07 3.1a2.35 2.35 0 01-1.71.7 2.25 2.25 0 01-1.68-.7 2.34 2.34 0 010-3.35L38.59 0z"/><path class="cls-3" d="M19.09 45a2.62 2.62 0 01-2.57 2.64 2.89 2.89 0 01-1.88-.77 2.62 2.62 0 01-.76-1.87v-4.82L4.5 49.66a2.66 2.66 0 01-3.72 0 2.61 2.61 0 010-3.72l9.38-9.45H5.37a2.56 2.56 0 01-1.84-.76 2.59 2.59 0 01-.77-1.81 2.66 2.66 0 012.61-2.67h13.72z"/><path class="cls-4" d="M41.57 77.93a2.37 2.37 0 01-3.39 0 2.37 2.37 0 010-3.36s1.46-1.49 3-3.07H29.12a2.41 2.41 0 010-4.82h12.1c-1.58-1.55-3-3.1-3-3.1a2.22 2.22 0 01-.7-1.68 2.52 2.52 0 01.7-1.71 2.57 2.57 0 013.39 0l8.84 8.9z"/><path class="cls-5" d="M1.32 99.68A2.4 2.4 0 013 95.59a2.5 2.5 0 011.71.7s1.46 1.55 3.07 3.1V87.3a2.38 2.38 0 114.75 0v12.09c1.61-1.55 3.07-3.1 3.07-3.1a2.66 2.66 0 011.71-.7 2.54 2.54 0 011.71.7 2.43 2.43 0 010 3.39l-8.83 8.92z"/></svg>