<?xml version="1.0" encoding="UTF-8"?>
<svg id="Layer_1" data-name="Layer 1" xmlns="http://www.w3.org/2000/svg" viewBox="0 0 56.693 56.693">
  <defs>
    <style>
      .cls-1 {
        fill: #fff;
      }

      .cls-2 {
        fill: #f2a500;
      }
    </style>
  </defs>
  <rect class="cls-2" x="0" y="0" width="56.693" height="56.693"/>
  <g>
    <path class="cls-1" d="m4.275,3.911h2.184v.744h-1.264v1.56h.904v.728h-.904v1.648h1.264v.744h-2.184V3.911Z"/>
    <path class="cls-1" d="m9.531,4.799l-.688,2.152.776,2.384h-.904l-.528-1.704-.52,1.704h-.824l.768-2.424-.688-2.112h.896l.448,1.456.448-1.456h.816Z"/>
    <path class="cls-1" d="m9.923,4.799h.328v-.888h.88v.888h.552v.672h-.552v2.911c0,.091.02.155.06.192.04.038.111.056.212.056h.28v.704h-.376c-.397,0-.672-.077-.826-.232-.153-.155-.23-.413-.23-.776v-2.856h-.328v-.672Z"/>
    <path class="cls-1" d="m13.723,5.799h-.248c-.16,0-.276.038-.348.112s-.108.189-.108.344v3.08h-.88v-4.536h.88v.464h.016c.037-.107.108-.215.212-.324s.263-.167.476-.172v1.032Z"/>
    <path class="cls-1" d="m16.707,7.543v.536c0,.411-.1.733-.3.968-.2.235-.519.352-.956.352s-.764-.128-.98-.384c-.216-.256-.324-.587-.324-.992v-1.912c0-.411.106-.743.32-.996.213-.253.542-.38.984-.38.438,0,.756.118.956.352.2.235.3.558.3.968v1.096h-1.68v1.008c0,.154.036.278.108.372.072.094.183.14.332.14.144,0,.248-.045.312-.136.064-.091.096-.216.096-.376v-.616h.832Zm-2.008-2.952v-.44l.576-.424h.4l.576.424v.44l-.768-.232-.784.232Zm.328,1.92h.832v-.536c0-.155-.032-.279-.096-.372s-.168-.14-.312-.14c-.149,0-.257.047-.324.14-.067.093-.1.217-.1.372v.536Z"/>
    <path class="cls-1" d="m18.818,5.911c0-.139-.023-.25-.068-.332-.045-.083-.143-.124-.292-.124s-.248.041-.296.124c-.048.083-.072.193-.072.332v3.424h-.88v-4.536h.88v.456h.016c.059-.128.144-.247.256-.356s.28-.164.504-.164c.377,0,.625.176.744.528h.024c.058-.128.15-.248.277-.36.126-.112.304-.168.531-.168.293,0,.509.091.648.272.139.182.208.47.208.864v3.464h-.88v-3.424c0-.139-.022-.25-.067-.332-.045-.083-.139-.124-.281-.124-.137,0-.232.039-.285.116-.053.078-.082.178-.087.3v3.464h-.88v-3.424Z"/>
    <path class="cls-1" d="m24.354,7.543v.536c0,.411-.1.733-.3.968-.2.235-.519.352-.956.352s-.764-.128-.98-.384c-.216-.256-.324-.587-.324-.992v-1.912c0-.411.106-.743.32-.996.213-.253.542-.38.984-.38.438,0,.756.118.956.352.2.235.3.558.3.968v1.096h-1.68v1.008c0,.154.036.278.108.372.072.094.183.14.332.14.144,0,.248-.045.312-.136.064-.091.096-.216.096-.376v-.616h.832Zm-1.68-1.032h.832v-.536c0-.155-.032-.279-.096-.372s-.168-.14-.312-.14c-.149,0-.257.047-.324.14-.067.093-.1.217-.1.372v.536Z"/>
    <path class="cls-1" d="m25.458,4.799h.88v.464h.016c.059-.128.146-.248.264-.36.117-.112.296-.168.536-.168.277,0,.489.091.636.272.146.182.22.472.22.872v2.376c0,.4-.08.691-.24.872-.16.181-.379.272-.656.272-.117,0-.219-.015-.304-.044-.085-.029-.157-.069-.216-.12-.059-.05-.106-.106-.144-.168-.037-.061-.069-.124-.096-.188h-.016v1.176h-.88v-5.256Zm1.672,1.12c0-.139-.027-.25-.08-.336s-.157-.128-.312-.128c-.139,0-.239.037-.3.112-.062.075-.095.173-.1.296v2.424c.005.123.039.22.1.292.061.072.161.108.3.108.155,0,.259-.042.312-.128s.08-.197.08-.336v-2.304Z"/>
    <path class="cls-1" d="m30.131,9.335v-.376h-.024c-.054.091-.136.187-.248.288-.112.101-.27.152-.472.152-.31,0-.542-.091-.696-.272s-.232-.472-.232-.872v-.344c0-.187.026-.344.08-.472.053-.128.125-.237.216-.328.091-.09.2-.169.328-.236.129-.067.267-.132.416-.196.134-.059.241-.111.324-.156s.146-.088.192-.128c.045-.04.076-.082.092-.124s.024-.091.024-.144v-.208c0-.16-.025-.276-.076-.348-.051-.072-.143-.108-.276-.108-.139,0-.238.039-.3.116s-.092.193-.092.348v.448h-.8v-.384c0-.378.092-.683.276-.912.185-.229.5-.344.948-.344.432,0,.74.108.924.324.184.216.276.532.276.948v3.328h-.88Zm-.408-.64c.16,0,.268-.045.324-.136.056-.091.084-.206.084-.344v-1.16c-.038.042-.083.08-.137.112-.053.032-.154.088-.304.168-.139.08-.232.159-.28.236-.048.078-.071.199-.071.364v.28c0,.139.024.253.075.344s.153.136.309.136Z"/>
    <path class="cls-1" d="m32.395,8.208c0,.138.024.25.075.335.051.085.153.128.309.128.154,0,.26-.042.315-.128.057-.085.084-.197.084-.335v-3.409h.88v4.536h-.88v-.472h-.016c-.054.13-.14.252-.26.366s-.3.17-.54.17c-.277,0-.488-.091-.632-.272-.145-.181-.217-.472-.217-.872v-3.456h.881v3.409Z"/>
    <path class="cls-1" d="m37.179,4.799l-.872,4.536h-.977l-.872-4.536h.904l.496,3.032h.008l.504-3.032h.809Z"/>
    <path class="cls-1" d="m39.154,5.799h-.248c-.16,0-.276.038-.348.112-.072.075-.108.189-.108.344v3.08h-.88v-4.536h.88v.464h.016c.037-.107.108-.215.212-.324.104-.109.263-.167.477-.172v1.032Z"/>
    <path class="cls-1" d="m42.146,7.543v.536c0,.411-.101.733-.3.968-.2.235-.52.352-.956.352s-.765-.128-.98-.384c-.216-.256-.324-.587-.324-.992v-1.912c0-.411.107-.743.32-.996.213-.253.541-.38.984-.38.437,0,.756.118.956.352.199.235.3.558.3.968v1.096h-1.68v1.008c0,.154.035.278.107.372.072.094.183.14.332.14.145,0,.248-.045.312-.136.063-.091.096-.216.096-.376v-.616h.832Zm-1.68-1.032h.832v-.536c0-.155-.032-.279-.097-.372-.063-.093-.168-.14-.312-.14-.149,0-.258.047-.324.14s-.1.217-.1.372v.536Z"/>
    <path class="cls-1" d="m42.554,4.799h.328v-.888h.88v.888h.553v.672h-.553v2.911c0,.091.021.155.061.192.04.038.11.056.212.056h.28v.704h-.376c-.397,0-.673-.077-.826-.232s-.23-.413-.23-.776v-2.856h-.328v-.672Z"/>
    <path class="cls-1" d="m47.282,7.543v.536c0,.411-.101.733-.3.968-.2.235-.52.352-.956.352s-.765-.128-.98-.384c-.216-.256-.324-.587-.324-.992v-1.912c0-.411.107-.743.32-.996.213-.253.541-.38.984-.38.437,0,.756.118.956.352.199.235.3.558.3.968v1.096h-1.68v1.008c0,.154.035.278.107.372.072.094.183.14.332.14.145,0,.248-.045.312-.136.063-.091.096-.216.096-.376v-.616h.832Zm-.488-3.136l-1.432.184v-.512l1.432-.304v.632Zm-1.191,2.104h.832v-.536c0-.155-.032-.279-.097-.372-.063-.093-.168-.14-.312-.14-.149,0-.258.047-.324.14s-.1.217-.1.372v.536Z"/>
  </g>
  <g>
    <path class="cls-1" d="m6.819,15.543v.536c0,.411-.1.733-.3.968-.2.235-.519.352-.956.352s-.764-.128-.98-.384c-.216-.256-.324-.587-.324-.992v-1.912c0-.411.106-.743.32-.996.213-.253.542-.38.984-.38.438,0,.756.118.956.352.2.235.3.558.3.968v1.096h-1.68v1.008c0,.154.036.278.108.372.072.094.183.14.332.14.144,0,.248-.045.312-.136.064-.091.096-.216.096-.376v-.616h.832Zm-1.68-1.032h.832v-.536c0-.155-.032-.279-.096-.372s-.168-.14-.312-.14c-.149,0-.257.047-.324.14-.067.093-.1.217-.1.372v.536Z"/>
    <path class="cls-1" d="m7.219,12.799h.328v-.888h.88v.888h.552v.672h-.552v2.911c0,.091.02.155.06.192.04.038.111.056.212.056h.28v.704h-.376c-.397,0-.672-.077-.826-.232-.153-.155-.23-.413-.23-.776v-2.856h-.328v-.672Z"/>
    <path class="cls-1" d="m10.011,12.799h.88v.464h.016c.059-.128.146-.248.264-.36.117-.112.296-.168.536-.168.277,0,.489.091.636.272.146.182.22.472.22.872v2.376c0,.4-.08.691-.24.872-.16.181-.379.272-.656.272-.117,0-.219-.015-.304-.044-.085-.029-.157-.069-.216-.12-.059-.05-.106-.106-.144-.168-.037-.061-.069-.124-.096-.188h-.016v1.176h-.88v-5.256Zm1.672,1.12c0-.139-.027-.25-.08-.336s-.157-.128-.312-.128c-.139,0-.239.037-.3.112-.062.075-.095.173-.1.296v2.424c.005.123.039.22.1.292.061.072.161.108.3.108.155,0,.259-.042.312-.128s.08-.197.08-.336v-2.304Z"/>
    <path class="cls-1" d="m14.659,13.799h-.248c-.16,0-.276.038-.348.112s-.108.189-.108.344v3.08h-.88v-4.536h.88v.464h.016c.037-.107.108-.215.212-.324s.263-.167.476-.172v1.032Z"/>
    <path class="cls-1" d="m15.099,11.911h.88v.688h-.88v-.688Zm0,.888h.88v4.536h-.88v-4.536Z"/>
    <path class="cls-1" d="m19.09,12.799l-.872,4.536h-.976l-.872-4.536h.904l.496,3.032h.008l.504-3.032h.808Z"/>
    <path class="cls-1" d="m20.994,17.335v-.376h-.024c-.053.091-.136.187-.248.288-.112.101-.27.152-.472.152-.309,0-.541-.091-.696-.272s-.232-.472-.232-.872v-.344c0-.187.026-.344.08-.472.053-.128.125-.237.216-.328.091-.09.2-.169.328-.236s.267-.132.416-.196c.133-.059.241-.111.324-.156.083-.045.147-.088.192-.128.045-.04.076-.082.092-.124s.024-.091.024-.144v-.208c0-.16-.025-.276-.076-.348-.051-.072-.143-.108-.276-.108-.139,0-.239.039-.3.116-.062.077-.092.193-.092.348v.448h-.8v-.384c0-.378.092-.683.276-.912.184-.229.5-.344.948-.344.432,0,.74.108.924.324.184.216.276.532.276.948v3.328h-.88Zm-.408-.64c.16,0,.268-.045.324-.136s.084-.206.084-.344v-1.16c-.037.042-.083.08-.136.112-.054.032-.155.088-.304.168-.139.08-.232.159-.28.236-.048.078-.072.199-.072.364v.28c0,.139.025.253.076.344.05.091.153.136.308.136Z"/>
    <path class="cls-1" d="m22.282,12.799h.328v-.888h.88v.888h.552v.672h-.552v2.911c0,.091.02.155.06.192.04.038.111.056.212.056h.28v.704h-.376c-.397,0-.672-.077-.826-.232-.153-.155-.23-.413-.23-.776v-2.856h-.328v-.672Z"/>
    <path class="cls-1" d="m24.49,11.911h.88v.688h-.88v-.688Zm0,.888h.88v4.536h-.88v-4.536Z"/>
    <path class="cls-1" d="m27.186,17.399c-.437,0-.764-.128-.98-.384-.216-.256-.324-.587-.324-.992v-1.912c0-.411.106-.743.32-.996.213-.253.542-.38.984-.38.438,0,.763.127.976.38.213.253.32.585.32.996v1.912c0,.405-.107.736-.32.992-.213.256-.539.384-.976.384Zm0-.728c.144,0,.25-.046.316-.14.066-.093.1-.217.1-.372v-2.184c0-.155-.033-.279-.1-.372-.067-.093-.172-.14-.316-.14-.149,0-.257.047-.324.14-.067.093-.1.217-.1.372v2.184c0,.154.033.278.1.372.066.094.175.14.324.14Z"/>
    <path class="cls-1" d="m30.658,13.919c0-.139-.025-.25-.076-.336s-.153-.128-.308-.128c-.155,0-.261.042-.316.128s-.084.197-.084.336v3.416h-.88v-4.536h.88v.464h.016c.059-.133.146-.255.261-.364.114-.109.292-.164.531-.164.277,0,.489.091.637.272.146.182.22.472.22.872v3.456h-.88v-3.416Z"/>
  </g>
  <g>
    <path class="cls-1" d="m5.883,21.911c0-.139-.023-.25-.068-.332-.045-.083-.143-.124-.292-.124s-.248.041-.296.124c-.048.083-.072.193-.072.332v3.424h-.88v-4.536h.88v.456h.016c.059-.128.144-.247.256-.356s.28-.164.504-.164c.377,0,.625.176.744.528h.024c.058-.128.15-.248.277-.36.126-.112.304-.168.531-.168.293,0,.509.091.648.272.139.182.208.47.208.864v3.464h-.88v-3.424c0-.139-.022-.25-.067-.332-.045-.083-.139-.124-.281-.124-.137,0-.232.039-.285.116-.053.078-.082.178-.087.3v3.464h-.88v-3.424Z"/>
    <path class="cls-1" d="m10.491,25.335v-.376h-.024c-.053.091-.136.187-.248.288-.112.101-.27.152-.472.152-.309,0-.541-.091-.696-.272s-.232-.472-.232-.872v-.344c0-.187.026-.344.08-.472.053-.128.125-.237.216-.328.091-.09.2-.169.328-.236s.267-.132.416-.196c.133-.059.241-.111.324-.156.083-.045.147-.088.192-.128.045-.04.076-.082.092-.124s.024-.091.024-.144v-.208c0-.16-.025-.276-.076-.348-.051-.072-.143-.108-.276-.108-.139,0-.239.039-.3.116-.062.077-.092.193-.092.348v.448h-.8v-.384c0-.378.092-.683.276-.912.184-.229.5-.344.948-.344.432,0,.74.108.924.324.184.216.276.532.276.948v3.328h-.88Zm-.408-.64c.16,0,.268-.045.324-.136s.084-.206.084-.344v-1.16c-.037.042-.083.08-.136.112-.054.032-.155.088-.304.168-.139.08-.232.159-.28.236-.048.078-.072.199-.072.364v.28c0,.139.025.253.076.344.05.091.153.136.308.136Z"/>
    <path class="cls-1" d="m11.779,20.799h.328v-.888h.88v.888h.552v.672h-.552v2.911c0,.091.02.155.06.192.04.038.111.056.212.056h.28v.704h-.376c-.397,0-.672-.077-.826-.232-.153-.155-.23-.413-.23-.776v-2.856h-.328v-.672Z"/>
    <path class="cls-1" d="m16.507,23.543v.536c0,.411-.1.733-.3.968-.2.235-.519.352-.956.352s-.764-.128-.98-.384c-.216-.256-.324-.587-.324-.992v-1.912c0-.411.106-.743.32-.996.213-.253.542-.38.984-.38.438,0,.756.118.956.352.2.235.3.558.3.968v1.096h-1.68v1.008c0,.154.036.278.108.372.072.094.183.14.332.14.144,0,.248-.045.312-.136.064-.091.096-.216.096-.376v-.616h.832Zm-.488-3.136l-1.432.184v-.512l1.432-.304v.632Zm-1.192,2.104h.832v-.536c0-.155-.032-.279-.096-.372s-.168-.14-.312-.14c-.149,0-.257.047-.324.14-.067.093-.1.217-.1.372v.536Z"/>
    <path class="cls-1" d="m18.603,21.799h-.248c-.16,0-.276.038-.348.112s-.108.189-.108.344v3.08h-.88v-4.536h.88v.464h.016c.037-.107.108-.215.212-.324s.263-.167.476-.172v1.032Z"/>
    <path class="cls-1" d="m19.042,19.911h.88v.688h-.88v-.688Zm0,.888h.88v4.536h-.88v-4.536Z"/>
    <path class="cls-1" d="m22.995,23.543v.536c0,.411-.1.733-.3.968-.2.235-.519.352-.956.352s-.764-.128-.98-.384c-.216-.256-.324-.587-.324-.992v-1.912c0-.411.106-.743.32-.996.213-.253.542-.38.984-.38.438,0,.756.118.956.352.2.235.3.558.3.968v1.096h-1.68v1.008c0,.154.036.278.108.372.072.094.183.14.332.14.144,0,.248-.045.312-.136.064-.091.096-.216.096-.376v-.616h.832Zm-1.68-1.032h.832v-.536c0-.155-.032-.279-.096-.372s-.168-.14-.312-.14c-.149,0-.257.047-.324.14-.067.093-.1.217-.1.372v.536Z"/>
    <path class="cls-1" d="m23.506,19.911h.88v5.424h-.88v-5.424Z"/>
    <path class="cls-1" d="m24.915,19.911h.88v5.424h-.88v-5.424Z"/>
    <path class="cls-1" d="m28.866,23.543v.536c0,.411-.1.733-.3.968-.2.235-.519.352-.956.352s-.764-.128-.98-.384c-.216-.256-.324-.587-.324-.992v-1.912c0-.411.106-.743.32-.996.213-.253.542-.38.984-.38.438,0,.756.118.956.352.2.235.3.558.3.968v1.096h-1.68v1.008c0,.154.036.278.108.372.072.094.183.14.332.14.144,0,.248-.045.312-.136.064-.091.096-.216.096-.376v-.616h.832Zm-1.68-1.032h.832v-.536c0-.155-.032-.279-.096-.372s-.168-.14-.312-.14c-.149,0-.257.047-.324.14-.067.093-.1.217-.1.372v.536Z"/>
  </g>
  <path class="cls-1" d="m46.961,36.867c-.117-.656-.341-1.207-.975-1.542-.36-.19-.401-.067-.401.245,0,.825.005,1.651-.013,2.476-.011.478.22.457.525.28.56-.324.736-.881.864-1.459m-11.254-.12h.006c0-.425,0-.851,0-1.275,0-.192-.046-.316-.292-.252-.541.139-1.088.914-1.103,1.593-.015.655.453,1.443.949,1.599.29.091.451.021.444-.318-.011-.449-.003-.898-.003-1.347m1.094-7.641h.003c0,1.464.017,2.928-.01,4.391-.008.444.14.559.565.556,2.173-.019,4.345-.015,6.517-.005.376.002.552-.09.551-.511-.012-2.928-.005-5.857,0-8.785,0-.54-.136-.572-.616-.307-.883.489-1.841.768-2.878.807-1.281.049-2.472-.223-3.574-.839-.54-.301-.569-.092-.564.371.015,1.441.006,2.881.006,4.322m.005,14.36h-.005c0,2.552.018,5.103-.014,7.655-.007.547.152.696.674.661.635-.042,1.278-.048,1.913.002.569.045.714-.15.71-.71-.025-3.261-.002-6.521-.018-9.782-.003-.476.098-.677.62-.644.496.029.418.338.419.636.01,3.237.026,6.474.019,9.71,0,.586.154.864.806.791.56-.063,1.138-.062,1.698,0,.652.074.794-.197.793-.791-.011-5.08-.003-10.16.015-15.239.002-.454-.121-.616-.599-.611-2.15.023-4.3.021-6.449-.002-.464-.005-.595.136-.591.597.021,2.575.01,5.151.01,7.726m-1.059,2.699c0-1.892-.03-3.785.019-5.676.015-.576-.175-.839-.68-1.038-1.235-.487-1.867-1.494-1.819-2.796.002-.047-.018-.107.004-.141.533-.816-.023-1.382-.446-1.982-2.152-3.053-1.928-7.794.711-10.559.133-.14.163-.622.517-.206.21.246.69.406.28.872-.752.854-1.274,1.827-1.603,2.928-.613,2.056-.339,3.99.652,5.856.043.081.112.148.158.228.55.952,1.235,1.087,2.069.404.229-.187.118-.443.119-.663.014-3.264.009-6.527.027-9.791,0-.287-.177-.655.309-.826.432-.151.736-.088,1.088.2,1.985,1.631,4.958,1.637,6.965-.02.413-.34.739-.292,1.159-.141.434.155.268.513.27.783.017,3.264.017,6.527.017,9.791,0,.364-.033.673.466.795.493.122.878.5,1.333-.176,1.652-2.449,1.724-6.124.027-8.522-.175-.247-.325-.534-.557-.716-.525-.412-.199-.656.11-.959.458-.449.584.099.731.278,1.793,2.198,2.45,4.709,1.872,7.489-.244,1.172-.72,2.284-1.481,3.233-.272.339-.387.628-.265,1.082.472,1.732-.1,2.924-1.755,3.622-.457.193-.5.467-.498.872.011,3.903-.003,7.804.026,11.706.005.586-.147.761-.743.754-2.791-.033-5.581-.032-8.372-.01-.552.004-.736-.147-.728-.714.03-1.986.012-3.974.012-5.96h.007Z"/>
  <path class="cls-1" d="m40.659,13.588c-2.341-.055-4.13,1.872-4.105,3.958.029,2.379,1.69,4.068,4.029,4.066,2.275-.002,3.957-1.602,4.02-4.009.059-2.212-1.809-4.048-3.943-4.015m-.053,9.099c-2.621.076-5.078-2.15-5.062-5.045.017-2.98,2.183-5.102,5.033-5.133,2.935-.031,5.131,2.242,5.15,5.111.018,2.695-2.267,5.13-5.12,5.067"/>
  <path class="cls-1" d="m34.252,41.608c-.097.482-.175.97-.3,1.444-.099.377-.422.177-.647.178-.211,0-.467-.05-.415-.349.104-.597.248-1.188.366-1.783.075-.374.297-.158.484-.143.414.034.598.231.512.652"/>
  <path class="cls-1" d="m51.974,37.152c.119.382-.148.48-.439.535-.342.066-.692.031-1.037.143-.622.2-.899-.036-.89-.684.002-.134.023-.257.166-.247.576.036,1.08-.286,1.647-.313.437-.021.617.124.553.566"/>
  <path class="cls-1" d="m31.409,37.299c.004.557-.138.803-.723.59-.389-.142-.835-.118-1.242-.221-.152-.038-.511-.008-.381-.353.097-.259,0-.67.434-.714.624-.062,1.183.282,1.799.316.2.011.074.283.112.383"/>
  <path class="cls-1" d="m48.157,42.692c.052.346-.063.533-.437.563-.378.031-.659-.03-.677-.478-.014-.353-.058-.695-.164-1.035-.182-.583.111-.917.723-.872.132.01.255.043.245.181-.038.577.249,1.09.31,1.641"/>
  <path class="cls-1" d="m49.571,39.351c.604.355,1.217.701,1.691,1.209.172.186-.141.41-.261.603-.125.204-.305.212-.484.091-.467-.315-.93-.635-1.385-.966-.138-.099-.252-.248-.056-.399.194-.149.165-.504.495-.539"/>
  <path class="cls-1" d="m30.343,41.373c-.324-.068-.33-.422-.526-.611-.187-.18.02-.266.152-.363.411-.3.807-.62,1.224-.911.415-.287.544.106.765.33.306.31.079.436-.147.59-.365.25-.726.506-1.092.754-.116.079-.245.138-.376.209"/>
</svg>