<?xml version="1.0" encoding="UTF-8"?>
<svg id="Layer_1" data-name="Layer 1" xmlns="http://www.w3.org/2000/svg" viewBox="0 0 56.693 56.693">
  <defs>
    <style>
      .cls-1 {
        fill: #fff;
      }

      .cls-2 {
        fill: #007d7d;
      }

      .cls-3 {
        fill: none;
      }
    </style>
  </defs>
  <rect class="cls-2" x="0" y=".002" width="56.693" height="56.691"/>
  <g>
    <path class="cls-1" d="m4.131,9.833l1.024-5.424h1.04l1.032,5.424h-.936l-.168-.992h-.968l-.16.992h-.864Zm1.144-1.72h.728l-.36-2.177h-.008l-.36,2.177Z"/>
    <path class="cls-1" d="m10.106,8.042v.536c0,.41-.099.733-.296.968s-.515.353-.952.353-.764-.129-.98-.385c-.216-.256-.324-.586-.324-.991v-1.912c0-.411.106-.743.32-.996.213-.254.542-.38.984-.38.438,0,.755.115.952.348s.296.554.296.964v.328h-.848v-.408c0-.154-.031-.277-.092-.368-.061-.09-.164-.136-.308-.136-.149,0-.257.047-.324.14-.067.094-.1.218-.1.372v2.185c0,.154.036.278.108.372.072.093.18.14.324.14.149,0,.256-.045.32-.136s.096-.216.096-.376v-.616h.824Z"/>
    <path class="cls-1" d="m13.106,8.042v.536c0,.41-.099.733-.296.968s-.515.353-.952.353-.764-.129-.98-.385c-.216-.256-.324-.586-.324-.991v-1.912c0-.411.106-.743.32-.996.213-.254.542-.38.984-.38.438,0,.755.115.952.348s.296.554.296.964v.328h-.848v-.408c0-.154-.031-.277-.092-.368-.061-.09-.164-.136-.308-.136-.149,0-.257.047-.324.14-.067.094-.1.218-.1.372v2.185c0,.154.036.278.108.372.072.093.18.14.324.14.149,0,.256-.045.32-.136s.096-.216.096-.376v-.616h.824Z"/>
    <path class="cls-1" d="m16.106,8.042v.536c0,.41-.1.733-.3.968-.2.234-.519.353-.956.353s-.764-.129-.98-.385c-.216-.256-.324-.586-.324-.991v-1.912c0-.411.106-.743.32-.996.213-.254.542-.38.984-.38.438,0,.756.117.956.352.2.234.3.558.3.968v1.097h-1.68v1.008c0,.154.036.278.108.372.072.093.183.14.332.14.144,0,.248-.045.312-.136s.096-.216.096-.376v-.616h.832Zm-1.68-1.032h.832v-.536c0-.154-.032-.278-.096-.372-.064-.093-.168-.14-.312-.14-.149,0-.257.047-.324.14-.067.094-.1.218-.1.372v.536Z"/>
    <path class="cls-1" d="m19.01,8.698c0,.368-.099.66-.296.876s-.507.324-.928.324c-.406,0-.708-.109-.908-.328s-.3-.523-.3-.912v-.473h.792v.513c0,.314.136.472.408.472.267,0,.4-.136.4-.408v-.128c0-.111-.036-.215-.108-.308-.072-.094-.209-.218-.412-.372l-.336-.264c-.234-.188-.412-.368-.532-.545-.12-.176-.18-.404-.18-.688v-.112c0-.325.096-.592.288-.8s.496-.312.912-.312c.432,0,.734.106.908.319.173.214.26.51.26.889v.248h-.784v-.288c0-.145-.029-.254-.088-.328-.059-.075-.157-.112-.296-.112s-.236.033-.292.1c-.056.067-.084.154-.084.261v.071c0,.107.032.203.096.288.064.086.173.182.328.288l.32.256c.155.123.286.231.392.324.107.094.192.188.256.284s.11.2.14.312c.029.112.044.246.044.4v.152Z"/>
    <path class="cls-1" d="m21.89,8.698c0,.368-.099.66-.296.876s-.507.324-.928.324c-.406,0-.708-.109-.908-.328s-.3-.523-.3-.912v-.473h.792v.513c0,.314.136.472.408.472.267,0,.4-.136.4-.408v-.128c0-.111-.036-.215-.108-.308-.072-.094-.209-.218-.412-.372l-.336-.264c-.234-.188-.412-.368-.532-.545-.12-.176-.18-.404-.18-.688v-.112c0-.325.096-.592.288-.8s.496-.312.912-.312c.432,0,.734.106.908.319.173.214.26.51.26.889v.248h-.784v-.288c0-.145-.029-.254-.088-.328-.059-.075-.157-.112-.296-.112s-.236.033-.292.1c-.056.067-.084.154-.084.261v.071c0,.107.032.203.096.288.064.086.173.182.328.288l.32.256c.155.123.286.231.392.324.107.094.192.188.256.284s.11.2.14.312c.029.112.044.246.044.4v.152Z"/>
    <path class="cls-1" d="m22.354,4.41h.88v.688h-.88v-.688Zm0,.888h.88v4.536h-.88v-4.536Z"/>
    <path class="cls-1" d="m23.762,4.41h.88v1.359h.016c.059-.13.146-.251.264-.365.117-.113.296-.17.536-.17.277,0,.489.091.636.271.146.182.22.472.22.872v2.376c0,.4-.08.69-.24.872-.16.182-.379.272-.656.272-.117,0-.219-.015-.304-.044-.085-.029-.157-.068-.216-.118-.059-.051-.106-.105-.144-.167-.037-.061-.069-.122-.096-.186h-.016v.45h-.88v-5.424Zm1.672,2.016c0-.139-.027-.25-.08-.336-.053-.085-.157-.128-.312-.128-.139,0-.239.037-.3.112-.062.074-.095.173-.1.296v2.424c.005.123.039.22.1.292.061.072.161.108.3.108.155,0,.259-.043.312-.128.053-.086.08-.197.08-.336v-2.305Z"/>
    <path class="cls-1" d="m26.826,4.41h.88v.688h-.88v-.688Zm0,.888h.88v4.536h-.88v-4.536Z"/>
    <path class="cls-1" d="m28.234,4.41h.88v5.424h-.88v-5.424Z"/>
    <path class="cls-1" d="m29.642,4.41h.88v.688h-.88v-.688Zm0,.888h.88v4.536h-.88v-4.536Z"/>
    <path class="cls-1" d="m30.962,5.297h.328v-.888h.88v.888h.552v.672h-.552v2.912c0,.091.02.154.06.192.04.037.111.056.212.056h.28v.704h-.376c-.397,0-.672-.077-.826-.232-.153-.154-.23-.413-.23-.775v-2.856h-.328v-.672Z"/>
    <path class="cls-1" d="m35.69,8.042v.536c0,.41-.1.733-.3.968-.2.234-.519.353-.956.353s-.764-.129-.98-.385c-.216-.256-.324-.586-.324-.991v-1.912c0-.411.106-.743.32-.996.213-.254.542-.38.984-.38.438,0,.756.117.956.352.2.234.3.558.3.968v1.097h-1.68v1.008c0,.154.036.278.108.372.072.093.183.14.332.14.144,0,.248-.045.312-.136s.096-.216.096-.376v-.616h.832Zm-.488-3.136l-1.432.184v-.512l1.432-.304v.632Zm-1.192,2.104h.832v-.536c0-.154-.032-.278-.096-.372-.064-.093-.168-.14-.312-.14-.149,0-.257.047-.324.14-.067.094-.1.218-.1.372v.536Z"/>
    <path class="cls-1" d="m39.338,8.042v.536c0,.41-.1.733-.3.968-.2.234-.519.353-.956.353s-.764-.129-.98-.385c-.216-.256-.324-.586-.324-.991v-1.912c0-.411.106-.743.32-.996.213-.254.542-.38.984-.38.438,0,.756.117.956.352.2.234.3.558.3.968v1.097h-1.68v1.008c0,.154.036.278.108.372.072.093.183.14.332.14.144,0,.248-.045.312-.136s.096-.216.096-.376v-.616h.832Zm-1.68-1.032h.832v-.536c0-.154-.032-.278-.096-.372-.064-.093-.168-.14-.312-.14-.149,0-.257.047-.324.14-.067.094-.1.218-.1.372v.536Z"/>
    <path class="cls-1" d="m39.738,5.297h.328v-.888h.88v.888h.552v.672h-.552v2.912c0,.091.02.154.06.192.04.037.111.056.212.056h.28v.704h-.376c-.397,0-.672-.077-.826-.232-.153-.154-.23-.413-.23-.775v-2.856h-.328v-.672Z"/>
  </g>
  <g>
    <path class="cls-1" d="m6.811,18.553h-.88v-1.176h-.016c-.026.063-.06.126-.1.189-.04.062-.09.118-.148.165-.059.048-.129.087-.212.118s-.183.048-.3.048c-.283,0-.503-.091-.66-.272s-.236-.472-.236-.872v-2.376c0-.4.073-.69.22-.872.147-.181.359-.271.636-.271.24,0,.418.055.536.164.117.109.205.23.264.363h.021l-.005-.464h.88v5.256Zm-1.672-1.825c0,.14.025.252.076.337.05.086.153.129.308.129.144,0,.245-.036.304-.108s.093-.17.104-.293v-2.374c0-.139-.028-.251-.084-.337-.056-.085-.161-.128-.316-.128s-.259.043-.312.128c-.053.086-.08.198-.08.337v2.31Z"/>
    <path class="cls-1" d="m8.203,16.707c0,.139.025.25.076.335.05.086.153.128.308.128s.26-.042.316-.128c.056-.085.084-.196.084-.335v-3.409h.88v4.536h-.88v-.472h-.016c-.053.13-.14.251-.26.365-.12.113-.3.171-.54.171-.278,0-.488-.091-.632-.272s-.216-.472-.216-.872v-3.456h.88v3.409Z"/>
    <path class="cls-1" d="m12.011,17.833v-.376h-.024c-.053.091-.136.187-.248.288s-.27.152-.472.152c-.309,0-.541-.091-.696-.272s-.232-.472-.232-.872v-.344c0-.187.026-.344.08-.473.053-.128.125-.236.216-.327s.2-.17.328-.236.267-.132.416-.196c.133-.059.241-.11.324-.155.083-.046.147-.089.192-.129.045-.04.076-.081.092-.124.016-.042.024-.09.024-.144v-.208c0-.16-.025-.276-.076-.348-.051-.072-.143-.108-.276-.108-.139,0-.239.039-.3.116-.062.077-.092.193-.092.348v.448h-.8v-.384c0-.379.092-.683.276-.912s.5-.344.948-.344c.432,0,.74.107.924.323.184.217.276.532.276.948v3.328h-.88Zm-.408-.64c.16,0,.268-.046.324-.137.056-.09.084-.205.084-.344v-1.16c-.037.043-.083.08-.136.112-.054.032-.155.088-.304.168-.139.08-.232.159-.28.236-.048.077-.072.198-.072.363v.28c0,.139.025.254.076.344.05.091.153.137.308.137Z"/>
    <path class="cls-1" d="m13.403,12.41h.88v5.424h-.88v-5.424Z"/>
    <path class="cls-1" d="m14.811,12.41h.88v.688h-.88v-.688Zm0,.888h.88v4.536h-.88v-4.536Z"/>
    <path class="cls-1" d="m16.131,13.297h.328v-.888h.88v.888h.552v.672h-.552v2.912c0,.091.02.154.06.192.04.037.111.056.212.056h.28v.704h-.376c-.397,0-.672-.077-.826-.232-.153-.154-.23-.413-.23-.775v-2.856h-.328v-.672Z"/>
    <path class="cls-1" d="m20.858,16.042v.536c0,.41-.1.733-.3.968-.2.234-.519.353-.956.353s-.764-.129-.98-.385c-.216-.256-.324-.586-.324-.991v-1.912c0-.411.106-.743.32-.996.213-.254.542-.38.984-.38.438,0,.756.117.956.352.2.234.3.558.3.968v1.097h-1.68v1.008c0,.154.036.278.108.372.072.093.183.14.332.14.144,0,.248-.045.312-.136s.096-.216.096-.376v-.616h.832Zm-.488-3.136l-1.432.184v-.512l1.432-.304v.632Zm-1.192,2.104h.832v-.536c0-.154-.032-.278-.096-.372-.064-.093-.168-.14-.312-.14-.149,0-.257.047-.324.14-.067.094-.1.218-.1.372v.536Z"/>
    <path class="cls-1" d="m24.498,17.833h-.88v-.456h-.016c-.026.063-.06.126-.1.189-.04.062-.09.118-.148.165-.059.048-.129.087-.212.118s-.183.048-.3.048c-.283,0-.503-.091-.66-.272s-.236-.472-.236-.872v-2.376c0-.4.073-.69.22-.872.147-.181.361-.271.644-.271.24,0,.417.055.532.165.115.111.201.233.26.368h.016v-1.357h.88v5.424Zm-1.672-1.104c0,.139.027.25.08.336.053.085.157.128.312.128s.26-.043.316-.128c.056-.086.084-.197.084-.336v-2.36c-.011-.123-.045-.222-.104-.296-.059-.075-.157-.112-.296-.112-.155,0-.259.043-.312.128-.053.086-.08.197-.08.336v2.305Z"/>
    <path class="cls-1" d="m27.562,16.042v.536c0,.41-.1.733-.3.968-.2.234-.519.353-.956.353s-.764-.129-.98-.385c-.216-.256-.324-.586-.324-.991v-1.912c0-.411.106-.743.32-.996.213-.254.542-.38.984-.38.438,0,.756.117.956.352.2.234.3.558.3.968v1.097h-1.68v1.008c0,.154.036.278.108.372.072.093.183.14.332.14.144,0,.248-.045.312-.136s.096-.216.096-.376v-.616h.832Zm-1.68-1.032h.832v-.536c0-.154-.032-.278-.096-.372-.064-.093-.168-.14-.312-.14-.149,0-.257.047-.324.14-.067.094-.1.218-.1.372v.536Z"/>
    <path class="cls-1" d="m30.466,16.698c0,.368-.099.66-.296.876s-.507.324-.928.324c-.406,0-.708-.109-.908-.328s-.3-.523-.3-.912v-.473h.792v.513c0,.314.136.472.408.472.267,0,.4-.136.4-.408v-.128c0-.111-.036-.215-.108-.308-.072-.094-.209-.218-.412-.372l-.336-.264c-.234-.188-.412-.368-.532-.545-.12-.176-.18-.404-.18-.688v-.112c0-.325.096-.592.288-.8s.496-.312.912-.312c.432,0,.734.106.908.319.173.214.26.51.26.889v.248h-.784v-.288c0-.145-.029-.254-.088-.328-.059-.075-.157-.112-.296-.112s-.236.033-.292.1c-.056.067-.084.154-.084.261v.071c0,.107.032.203.096.288.064.086.173.182.328.288l.32.256c.155.123.286.231.392.324.107.094.192.188.256.284s.11.2.14.312c.029.112.044.246.044.4v.152Z"/>
    <path class="cls-1" d="m33.93,16.698c0,.368-.099.66-.296.876s-.507.324-.928.324c-.406,0-.708-.109-.908-.328s-.3-.523-.3-.912v-.473h.792v.513c0,.314.136.472.408.472.267,0,.4-.136.4-.408v-.128c0-.111-.036-.215-.108-.308-.072-.094-.209-.218-.412-.372l-.336-.264c-.234-.188-.412-.368-.532-.545-.12-.176-.18-.404-.18-.688v-.112c0-.325.096-.592.288-.8s.496-.312.912-.312c.432,0,.734.106.908.319.173.214.26.51.26.889v.248h-.784v-.288c0-.145-.029-.254-.088-.328-.059-.075-.157-.112-.296-.112s-.236.033-.292.1c-.056.067-.084.154-.084.261v.071c0,.107.032.203.096.288.064.086.173.182.328.288l.32.256c.155.123.286.231.392.324.107.094.192.188.256.284s.11.2.14.312c.029.112.044.246.044.4v.152Z"/>
    <path class="cls-1" d="m36.954,16.042v.536c0,.41-.1.733-.3.968-.2.234-.519.353-.956.353s-.764-.129-.98-.385c-.216-.256-.324-.586-.324-.991v-1.912c0-.411.106-.743.32-.996.213-.254.542-.38.984-.38.438,0,.756.117.956.352.2.234.3.558.3.968v1.097h-1.68v1.008c0,.154.036.278.108.372.072.093.183.14.332.14.144,0,.248-.045.312-.136s.096-.216.096-.376v-.616h.832Zm-1.68-1.032h.832v-.536c0-.154-.032-.278-.096-.372-.064-.093-.168-.14-.312-.14-.149,0-.257.047-.324.14-.067.094-.1.218-.1.372v.536Z"/>
    <path class="cls-1" d="m39.042,14.297h-.248c-.16,0-.276.037-.348.112-.072.074-.108.189-.108.344v3.08h-.88v-4.536h.88v.464h.016c.037-.106.108-.215.212-.324.104-.108.263-.166.476-.172v1.032Z"/>
    <path class="cls-1" d="m42.106,13.297l-.872,4.536h-.976l-.872-4.536h.904l.496,3.032h.008l.504-3.032h.808Z"/>
    <path class="cls-1" d="m42.498,12.41h.88v.688h-.88v-.688Zm0,.888h.88v4.536h-.88v-4.536Z"/>
    <path class="cls-1" d="m46.441,16.042v.536c0,.41-.099.733-.296.968s-.515.353-.952.353-.764-.129-.98-.385c-.216-.256-.324-.586-.324-.991v-1.912c0-.411.106-.743.32-.996.213-.254.542-.38.984-.38.438,0,.755.115.952.348s.296.554.296.964v.328h-.848v-.408c0-.154-.031-.277-.092-.368-.061-.09-.164-.136-.308-.136-.149,0-.257.047-.324.14-.067.094-.1.218-.1.372v2.185c0,.154.036.278.108.372.072.093.18.14.324.14.149,0,.256-.045.32-.136s.096-.216.096-.376v-.616h.824Z"/>
    <path class="cls-1" d="m49.45,16.042v.536c0,.41-.1.733-.3.968-.2.234-.519.353-.956.353s-.764-.129-.98-.385c-.216-.256-.324-.586-.324-.991v-1.912c0-.411.106-.743.32-.996.213-.254.542-.38.984-.38.438,0,.756.117.956.352.2.234.3.558.3.968v1.097h-1.68v1.008c0,.154.036.278.108.372.072.093.183.14.332.14.144,0,.248-.045.312-.136s.096-.216.096-.376v-.616h.832Zm-1.68-1.032h.832v-.536c0-.154-.032-.278-.096-.372-.064-.093-.168-.14-.312-.14-.149,0-.257.047-.324.14-.067.094-.1.218-.1.372v.536Z"/>
    <path class="cls-1" d="m52.346,16.698c0,.368-.099.66-.296.876s-.507.324-.928.324c-.406,0-.708-.109-.908-.328s-.3-.523-.3-.912v-.473h.792v.513c0,.314.136.472.408.472.267,0,.4-.136.4-.408v-.128c0-.111-.036-.215-.108-.308-.072-.094-.209-.218-.412-.372l-.336-.264c-.234-.188-.412-.368-.532-.545-.12-.176-.18-.404-.18-.688v-.112c0-.325.096-.592.288-.8s.496-.312.912-.312c.432,0,.734.106.908.319.173.214.26.51.26.889v.248h-.784v-.288c0-.145-.029-.254-.088-.328-.059-.075-.157-.112-.296-.112s-.236.033-.292.1c-.056.067-.084.154-.084.261v.071c0,.107.032.203.096.288.064.086.173.182.328.288l.32.256c.155.123.286.231.392.324.107.094.192.188.256.284s.11.2.14.312c.029.112.044.246.044.4v.152Z"/>
  </g>
  <path class="cls-1" d="m31.815,22.98c.095-.044.189-.088.285-.13-.097.041-.19.086-.285.13"/>
  <path class="cls-1" d="m37.254,22.005c.018.002.035.004.053.005-.018,0-.035-.003-.053-.005"/>
  <path class="cls-1" d="m38.029,22.099c.084.014.168.027.252.043-.084-.016-.167-.031-.252-.043"/>
  <path class="cls-1" d="m28.86,24.986c.185-.176.376-.344.571-.506-.196.161-.385.331-.571.506"/>
  <path class="cls-1" d="m30.859,23.477c.125-.074.253-.141.38-.21-.127.069-.255.136-.38.21"/>
  <path class="cls-1" d="m29.596,24.35c.271-.217.553-.417.841-.605-.29.188-.57.39-.841.605"/>
  <polyline class="cls-1" points="34.134 22.205 34.142 22.204 34.134 22.205"/>
  <path class="cls-1" d="m38.756,22.241c.158.037.316.075.472.119-.156-.044-.313-.083-.472-.119"/>
  <path class="cls-1" d="m45.895,30.139c.024.177.039.358.054.538-.013-.182-.032-.362-.054-.538"/>
  <path class="cls-1" d="m44.938,31.842c-.063,2.066-1.025,4.296-2.876,6.681-.02-.019-.035-.043-.055-.06l-4.42-3.987-5.638-5.086c-.214-.192-.54-.177-.733.034l-4.265,4.633c-.738.708-1.834.728-2.548.04-.033-.031-.071-.058-.11-.08l-.014-.008c-.697-.711-.67-1.606.078-2.463l.341-.394q.09-.106.716-.803l3.637-4.061c2.691-3.008,6.976-4.083,10.667-2.671,3.326,1.27,5.235,4.199,5.235,8.033m-3.781,9.446c-.58.61-1.463.749-1.96.311l-5.95-5.382-.207-.188c-.211-.191-.541-.176-.735.038-.193.212-.177.543.037.736l.686.621,5.476,4.954c.023.019.048.032.071.051l.63.569c.253.224.318.512.327.715.016.394-.154.809-.469,1.14-.578.612-1.46.749-1.958.312l-6.147-5.562-.01-.008c-.212-.193-.542-.177-.736.037-.193.213-.176.543.037.737l.039.034c.011.012.016.026.027.038l.217.195,5.946,5.374c.254.223.318.512.327.714.018.395-.153.811-.467,1.142-.581.609-1.461.749-1.965.307l-1.108-.977c-.01-.008-.016-.02-.027-.029l-.109-.097c.132-.286.202-.603.187-.938-.03-.663-.36-1.318-.905-1.799-.628-.554-1.473-.772-2.215-.646-.014-.263-.084-.521-.186-.771-.153-.377-.391-.731-.716-1.018-.671-.591-1.589-.789-2.363-.605-.053-.634-.369-1.256-.891-1.716-.754-.664-1.823-.845-2.647-.528-.085-.586-.386-1.153-.869-1.58-.999-.876-2.543-.917-3.353-.063l-2.909,3.157c-.009.009-.014.019-.021.029-2.993-3.19-4.517-6.126-4.517-8.777,0-5.916,4.432-8.61,8.549-8.61,2.826,0,5.478,1.196,7.361,3.278l-3.011,3.362q-.641.714-.732.821l-.334.386c-1.127,1.293-1.115,2.841.031,3.945.033.033.07.06.11.081l.02.012c1.11,1.016,2.827.982,3.962-.112l3.938-4.277,4.84,4.366,4.839,4.365c.254.224.318.513.327.715.017.395-.153.81-.467,1.141m-8.75,8.517c-.333.352-.795.562-1.233.562-.2,0-.49-.045-.73-.255l-.005-.005,2.058-2.203.052.045c.253.224.318.513.326.715.017.394-.153.81-.468,1.141m-3.656.582c-.417.44-1.321.379-1.902-.133-.333-.293-.534-.68-.551-1.061-.009-.192.027-.469.249-.703l3.272-3.508c.191-.199.471-.309.792-.309.387,0,.793.161,1.111.441.334.295.535.683.553,1.066.008.191-.027.468-.247.7l-3.277,3.507Zm-3.764-1.812c-.417.439-1.321.38-1.9-.134-.333-.294-.535-.679-.552-1.06-.009-.192.027-.469.247-.701l3.921-4.133c.189-.199.47-.309.789-.309.388,0,.795.162,1.113.442.333.293.534.681.551,1.063.008.172-.027.412-.188.625l-.892.956-3.089,3.251Zm-3.252-2.322c-.419.439-1.321.379-1.903-.134-.333-.295-.535-.681-.551-1.062-.009-.191.027-.467.247-.698l.398-.42c.019-.018.041-.031.06-.051l.41-.443,3.052-3.22c.189-.199.47-.309.79-.309.388,0,.795.162,1.113.443.333.293.534.68.552,1.062.008.192-.027.47-.245.7l-3.923,4.132Zm-4.413-3.211c-.333-.294-.534-.68-.551-1.062-.008-.191.027-.467.252-.704l2.909-3.158c.189-.199.469-.308.789-.308.389,0,.795.161,1.113.441.333.293.534.681.551,1.063.009.191-.026.469-.249.704l-2.912,3.158c-.417.44-1.321.379-1.902-.134m28.657-11.2c0-.006-.001-.011-.001-.018,0-.024-.002-.046-.002-.07-.002-.299-.017-.594-.042-.885-.015-.18-.03-.361-.054-.538-.004-.033-.01-.065-.015-.098-.514-3.905-2.919-6.316-5.783-7.395-.002,0-.004-.002-.007-.003-.003,0-.006-.002-.009-.003-.217-.082-.435-.156-.657-.222-.065-.019-.13-.04-.196-.058-.156-.044-.314-.082-.472-.119-.159-.037-.316-.069-.476-.099-.084-.016-.168-.029-.252-.043-.24-.038-.48-.067-.722-.089-.018,0-.035-.003-.053-.005-1.043-.087-2.09-.018-3.111.199-.003,0-.005,0-.008,0-.695.149-1.377.362-2.034.645-.096.042-.19.086-.285.13-.195.091-.386.186-.576.287-.127.069-.255.136-.38.21-.144.083-.283.176-.422.268-.289.188-.571.388-.842.605-.055.044-.111.085-.164.13-.196.162-.386.33-.571.506-.006.006-.013.013-.019.019-.167.16-.337.312-.495.483-2.074-2.243-4.978-3.518-8.058-3.518-4.619,0-9.59,3.021-9.59,9.653,0,2.982,1.705,6.248,5.077,9.765-.025.146-.037.294-.031.447.03.662.359,1.318.903,1.797.481.422,1.071.659,1.675.69-.047.189-.077.385-.067.589.028.663.359,1.318.903,1.797.513.454,1.153.704,1.802.704.197,0,.383-.031.564-.077.057.627.372,1.242.888,1.695.513.454,1.153.703,1.802.703.412,0,.792-.111,1.118-.304.114.527.404,1.029.843,1.416.514.451,1.153.701,1.802.701.609,0,1.158-.225,1.548-.637l.217-.231.029.025c.378.331.882.514,1.418.514.729,0,1.454-.324,1.989-.886.388-.409.637-.909.722-1.424.357.242.777.368,1.216.368.703,0,1.442-.303,1.993-.884.507-.535.782-1.229.752-1.905-.003-.076-.02-.15-.032-.225.005,0,.009.001.015.001.702,0,1.439-.303,1.99-.883.509-.535.783-1.228.754-1.904-.013-.295-.086-.574-.208-.826.56-.1,1.112-.378,1.547-.836.508-.534.783-1.229.753-1.904-.007-.15-.03-.296-.066-.436,2.23-2.775,3.365-5.384,3.377-7.81,0-.005.003-.008.003-.013"/>
  <polyline class="cls-3" points="56.693 56.693 56.693 0 0 0"/>
</svg>