<?xml version="1.0" encoding="utf-8"?>
<!-- Generator: Adobe Illustrator 26.1.0, SVG Export Plug-In . SVG Version: 6.00 Build 0)  -->
<svg version="1.1" id="Layer_1" xmlns="http://www.w3.org/2000/svg" xmlns:xlink="http://www.w3.org/1999/xlink" x="0px" y="0px"
	 viewBox="0 0 34.53 34.53" style="enable-background:new 0 0 34.53 34.53;" xml:space="preserve">
<style type="text/css">
	.st0{fill:#A6255E;}
	.st1{fill:#FFFFFF;}
	.st2{fill:#854F97;}
	.st3{fill:#EC6624;}
	.st4{fill:#F1C119;}
	.st5{fill:#F79320;}
	.st6{fill:#FFFFFF;stroke:#FFFFFF;stroke-width:0.611;stroke-miterlimit:10;}
</style>
<g>
	<path class="st5" d="M17.26,34.53c9.53,0,17.26-7.73,17.26-17.26C34.53,7.73,26.8,0,17.26,0C7.73,0,0,7.73,0,17.27
		C0,26.8,7.73,34.53,17.26,34.53"/>
	<g>
		<g>
			<path class="st6" d="M9.44,24.18c0,0.07-0.06,0.12-0.12,0.12h-0.3c-0.22,0-0.41,0.18-0.41,0.41v2.12c0,0.01-0.02,0.59-0.64,0.59
				c-0.56,0-0.62-0.58-0.62-0.59v-2.12c0-0.22-0.18-0.41-0.41-0.41H6.62c-0.07,0-0.12-0.06-0.12-0.12v-1.4
				c0-0.61,0.38-1.16,0.95-1.38c0.14-0.05,0.25-0.19,0.26-0.34c0.02-0.15-0.06-0.3-0.19-0.38c-0.25-0.16-0.4-0.42-0.4-0.72
				c0-0.47,0.38-0.85,0.85-0.85c0.47,0,0.85,0.38,0.85,0.85c0,0.29-0.15,0.56-0.4,0.72c-0.13,0.08-0.2,0.23-0.19,0.38
				c0.02,0.15,0.12,0.29,0.26,0.34c0.57,0.22,0.95,0.77,0.95,1.38L9.44,24.18L9.44,24.18z"/>
			<path class="st6" d="M13.32,24.18c0,0.07-0.06,0.12-0.12,0.12h-0.3c-0.22,0-0.41,0.18-0.41,0.41v2.12c0,0.01-0.02,0.59-0.64,0.59
				c-0.56,0-0.62-0.58-0.62-0.59v-2.12c0-0.22-0.18-0.41-0.41-0.41H10.5c-0.07,0-0.12-0.06-0.12-0.12v-1.4
				c0-0.61,0.38-1.16,0.95-1.38c0.14-0.05,0.25-0.19,0.26-0.34c0.02-0.15-0.06-0.3-0.19-0.38c-0.25-0.16-0.4-0.42-0.4-0.72
				c0-0.47,0.38-0.85,0.85-0.85c0.47,0,0.85,0.38,0.85,0.85c0,0.29-0.15,0.56-0.4,0.72c-0.13,0.08-0.2,0.23-0.19,0.38
				c0.02,0.15,0.12,0.29,0.26,0.34c0.57,0.22,0.95,0.77,0.95,1.38L13.32,24.18L13.32,24.18z"/>
			<path class="st6" d="M17.21,24.18c0,0.07-0.06,0.12-0.12,0.12h-0.3c-0.22,0-0.41,0.18-0.41,0.41v2.12c0,0.01-0.02,0.59-0.64,0.59
				c-0.56,0-0.62-0.58-0.62-0.59v-2.12c0-0.22-0.18-0.41-0.41-0.41h-0.32c-0.07,0-0.12-0.06-0.12-0.12v-1.4
				c0-0.61,0.38-1.16,0.95-1.38c0.14-0.05,0.25-0.19,0.26-0.34c0.02-0.15-0.06-0.3-0.19-0.38c-0.25-0.16-0.4-0.42-0.4-0.72
				c0-0.47,0.38-0.85,0.85-0.85c0.47,0,0.85,0.38,0.85,0.85c0,0.29-0.15,0.56-0.4,0.72c-0.13,0.08-0.2,0.23-0.19,0.38
				c0.02,0.15,0.12,0.29,0.26,0.34c0.57,0.22,0.95,0.77,0.95,1.38L17.21,24.18L17.21,24.18z"/>
			<path class="st6" d="M21.09,24.18c0,0.07-0.06,0.12-0.12,0.12h-0.3c-0.22,0-0.41,0.18-0.41,0.41v2.12c0,0.01-0.02,0.59-0.64,0.59
				c-0.56,0-0.62-0.58-0.62-0.59v-2.12c0-0.22-0.18-0.41-0.41-0.41h-0.32c-0.07,0-0.12-0.06-0.12-0.12v-1.4
				c0-0.61,0.38-1.16,0.95-1.38c0.14-0.05,0.25-0.19,0.26-0.34c0.02-0.15-0.06-0.3-0.19-0.38c-0.25-0.16-0.4-0.42-0.4-0.72
				c0-0.47,0.38-0.85,0.85-0.85c0.47,0,0.85,0.38,0.85,0.85c0,0.29-0.15,0.56-0.4,0.72c-0.13,0.08-0.2,0.23-0.19,0.38
				c0.02,0.15,0.12,0.29,0.26,0.34c0.57,0.22,0.95,0.77,0.95,1.38L21.09,24.18L21.09,24.18z"/>
			<path class="st6" d="M24.97,24.18c0,0.07-0.06,0.12-0.12,0.12h-0.3c-0.22,0-0.41,0.18-0.41,0.41v2.12c0,0.01-0.02,0.59-0.64,0.59
				c-0.56,0-0.62-0.58-0.62-0.59v-2.12c0-0.22-0.18-0.41-0.41-0.41h-0.32c-0.07,0-0.12-0.06-0.12-0.12v-1.4
				c0-0.61,0.38-1.16,0.95-1.38c0.14-0.05,0.25-0.19,0.26-0.34c0.02-0.15-0.06-0.3-0.19-0.38c-0.25-0.16-0.4-0.42-0.4-0.72
				c0-0.47,0.38-0.85,0.85-0.85c0.47,0,0.85,0.38,0.85,0.85c0,0.29-0.15,0.56-0.4,0.72c-0.13,0.08-0.2,0.23-0.19,0.38
				c0.02,0.15,0.12,0.29,0.26,0.34c0.57,0.22,0.95,0.77,0.95,1.38L24.97,24.18L24.97,24.18z"/>
			<path class="st6" d="M28.85,24.18c0,0.07-0.06,0.12-0.12,0.12h-0.3c-0.22,0-0.41,0.18-0.41,0.41v2.12c0,0.01-0.02,0.59-0.64,0.59
				c-0.56,0-0.62-0.58-0.62-0.59v-2.12c0-0.22-0.18-0.41-0.41-0.41h-0.32c-0.07,0-0.12-0.06-0.12-0.12v-1.4
				c0-0.61,0.38-1.16,0.95-1.38c0.14-0.05,0.25-0.19,0.26-0.34c0.02-0.15-0.06-0.3-0.19-0.38c-0.25-0.16-0.4-0.42-0.4-0.72
				c0-0.47,0.38-0.85,0.85-0.85c0.47,0,0.85,0.38,0.85,0.85c0,0.29-0.15,0.56-0.4,0.72c-0.13,0.08-0.2,0.23-0.19,0.38
				c0.02,0.15,0.12,0.29,0.26,0.34c0.57,0.22,0.95,0.77,0.95,1.38L28.85,24.18L28.85,24.18z"/>
		</g>
		<path class="st6" d="M14.24,13.61c0-1.53,1.03-2.89,2.5-3.3c0.2-0.06,0.34-0.24,0.35-0.44c0.01-0.21-0.11-0.4-0.31-0.48
			c-0.92-0.37-1.52-1.25-1.52-2.23c0-1.33,1.08-2.41,2.41-2.41c1.33,0,2.41,1.08,2.41,2.41c0,0.99-0.6,1.87-1.52,2.23
			c-0.19,0.08-0.32,0.27-0.31,0.48c0.01,0.21,0.15,0.39,0.35,0.44c1.47,0.42,2.5,1.78,2.5,3.3v1.29h-6.87L14.24,13.61z"/>
		<path class="st1" d="M7.72,17.16h19.9c0.27,0,0.49-0.22,0.49-0.49c0-0.27-0.22-0.49-0.49-0.49l-19.9,0
			c-0.27,0-0.49,0.22-0.49,0.49C7.23,16.94,7.45,17.16,7.72,17.16z"/>
	</g>
</g>
</svg>
