<?xml version="1.0" encoding="UTF-8"?>
<svg id="Layer_1" data-name="Layer 1" xmlns="http://www.w3.org/2000/svg" viewBox="0 0 56.693 56.693">
  <defs>
    <style>
      .cls-1 {
        fill: #fff;
      }

      .cls-2 {
        fill: #7d1f80;
      }
    </style>
  </defs>
  <rect class="cls-2" x="0" y="0" width="56.693" height="56.691"/>
  <g>
    <path class="cls-1" d="m4.275,4.408h.92v5.424h-.92v-5.424Z"/>
    <path class="cls-1" d="m7.386,6.416c0-.139-.025-.25-.076-.336s-.153-.128-.308-.128-.26.042-.316.128-.084.197-.084.336v3.416h-.88v-4.536h.88v.464h.016c.059-.133.145-.255.26-.364s.292-.164.532-.164c.277,0,.489.091.636.272.146.182.22.472.22.872v3.456h-.88v-3.416Z"/>
    <path class="cls-1" d="m11.323,8.04v.536c0,.411-.1.733-.3.968-.2.235-.519.352-.956.352s-.764-.128-.98-.384c-.216-.256-.324-.587-.324-.992v-1.912c0-.411.106-.743.32-.996.213-.253.542-.38.984-.38.438,0,.756.118.956.352.2.235.3.558.3.968v1.096h-1.68v1.008c0,.154.036.278.108.372.072.094.183.14.332.14.144,0,.248-.045.312-.136.064-.091.096-.216.096-.376v-.616h.832Zm-.488-3.136l-1.432.184v-.512l1.432-.304v.632Zm-1.192,2.104h.832v-.536c0-.155-.032-.279-.096-.372s-.168-.14-.312-.14c-.149,0-.257.047-.324.14-.067.093-.1.217-.1.372v.536Z"/>
    <path class="cls-1" d="m14.354,5.296v3.96c0,.198-.022.38-.068.548-.046.168-.119.312-.221.432-.102.12-.236.213-.401.28-.166.066-.367.1-.602.1-.225,0-.417-.028-.578-.084-.161-.056-.292-.134-.394-.232-.102-.099-.176-.214-.225-.348-.048-.133-.072-.277-.072-.432v-.168h.808v.112c0,.139.033.244.1.316.066.072.18.108.34.108.155,0,.266-.044.332-.131.067-.088.1-.208.1-.363v-.788h-.011c-.053.126-.135.244-.245.352-.11.108-.282.162-.518.162-.284,0-.504-.089-.662-.268-.158-.179-.237-.468-.237-.868v-1.608c0-.4.073-.69.22-.872.147-.181.359-.272.636-.272.24,0,.418.055.536.164.117.109.205.231.264.364h.016v-.464h.88Zm-1.672,2.663c0,.139.025.25.076.333.05.083.153.125.308.125s.261-.042.32-.125c.059-.083.088-.194.088-.333v-1.541c0-.139-.028-.251-.084-.337s-.161-.128-.316-.128-.259.043-.312.128-.08.198-.08.337v1.541Z"/>
    <path class="cls-1" d="m16.491,9.832v-.376h-.024c-.053.091-.136.187-.248.288-.112.101-.27.152-.472.152-.309,0-.541-.091-.696-.272s-.232-.472-.232-.872v-.344c0-.187.026-.344.08-.472.053-.128.125-.237.216-.328.091-.09.2-.169.328-.236s.267-.132.416-.196c.133-.059.241-.111.324-.156.083-.045.147-.088.192-.128.045-.04.076-.082.092-.124s.024-.091.024-.144v-.208c0-.16-.025-.276-.076-.348-.051-.072-.143-.108-.276-.108-.139,0-.239.039-.3.116-.062.077-.092.193-.092.348v.448h-.8v-.384c0-.378.092-.683.276-.912.184-.229.5-.344.948-.344.432,0,.74.108.924.324.184.216.276.532.276.948v3.328h-.88Zm-.408-.64c.16,0,.268-.045.324-.136s.084-.206.084-.344v-1.16c-.037.042-.083.08-.136.112-.054.032-.155.088-.304.168-.139.08-.232.159-.28.236-.048.078-.072.199-.072.364v.28c0,.139.025.253.076.344.05.091.153.136.308.136Z"/>
    <path class="cls-1" d="m17.883,4.408h.88v5.424h-.88v-5.424Z"/>
    <path class="cls-1" d="m19.291,4.408h.88v.688h-.88v-.688Zm0,.888h.88v4.536h-.88v-4.536Z"/>
    <path class="cls-1" d="m20.61,5.296h.328v-.888h.88v.888h.552v.672h-.552v2.911c0,.091.02.155.06.192.04.038.111.056.212.056h.28v.704h-.376c-.397,0-.672-.077-.826-.232-.153-.155-.23-.413-.23-.776v-2.856h-.328v-.672Z"/>
    <path class="cls-1" d="m25.338,8.04v.536c0,.411-.1.733-.3.968-.2.235-.519.352-.956.352s-.764-.128-.98-.384c-.216-.256-.324-.587-.324-.992v-1.912c0-.411.106-.743.32-.996.213-.253.542-.38.984-.38.438,0,.756.118.956.352.2.235.3.558.3.968v1.096h-1.68v1.008c0,.154.036.278.108.372.072.094.183.14.332.14.144,0,.248-.045.312-.136.064-.091.096-.216.096-.376v-.616h.832Zm-.488-3.136l-1.432.184v-.512l1.432-.304v.632Zm-1.192,2.104h.832v-.536c0-.155-.032-.279-.096-.372s-.168-.14-.312-.14c-.149,0-.257.047-.324.14-.067.093-.1.217-.1.372v.536Z"/>
    <path class="cls-1" d="m28.978,9.832h-.88v-.456h-.016c-.026.063-.06.126-.1.189-.04.063-.09.119-.148.166-.059.047-.129.087-.212.118-.083.032-.183.047-.3.047-.283,0-.503-.091-.66-.272s-.236-.472-.236-.872v-2.376c0-.4.073-.69.22-.872.147-.181.361-.272.644-.272.24,0,.417.056.532.166s.201.233.26.368h.016v-1.358h.88v5.424Zm-1.672-1.104c0,.139.027.251.08.336.053.085.157.128.312.128s.26-.042.316-.128c.056-.085.084-.197.084-.336v-2.36c-.011-.123-.045-.221-.104-.296s-.157-.112-.296-.112c-.155,0-.259.043-.312.128-.053.085-.08.198-.08.336v2.304Z"/>
    <path class="cls-1" d="m32.042,8.04v.536c0,.411-.101.733-.3.968-.2.235-.52.352-.956.352s-.765-.128-.98-.384c-.216-.256-.324-.587-.324-.992v-1.912c0-.411.107-.743.32-.996.213-.253.541-.38.984-.38.437,0,.756.118.956.352.199.235.3.558.3.968v1.096h-1.68v1.008c0,.154.035.278.107.372.072.094.183.14.332.14.145,0,.248-.045.312-.136.063-.091.096-.216.096-.376v-.616h.832Zm-1.68-1.032h.832v-.536c0-.155-.032-.279-.097-.372-.063-.093-.168-.14-.312-.14-.149,0-.258.047-.324.14s-.1.217-.1.372v.536Z"/>
    <path class="cls-1" d="m34.73,6.296h-.248c-.16,0-.276.038-.348.112-.072.075-.108.189-.108.344v3.08h-.88v-4.536h.88v.464h.016c.037-.107.108-.215.212-.324.104-.109.263-.167.477-.172v1.032Z"/>
    <path class="cls-1" d="m37.714,8.04v.536c0,.411-.101.733-.3.968-.2.235-.52.352-.956.352s-.765-.128-.98-.384c-.216-.256-.324-.587-.324-.992v-1.912c0-.411.107-.743.32-.996.213-.253.541-.38.984-.38.437,0,.756.118.956.352.199.235.3.558.3.968v1.096h-1.68v1.008c0,.154.035.278.107.372.072.094.183.14.332.14.145,0,.248-.045.312-.136.063-.091.096-.216.096-.376v-.616h.832Zm-1.68-1.032h.832v-.536c0-.155-.032-.279-.097-.372-.063-.093-.168-.14-.312-.14-.149,0-.258.047-.324.14s-.1.217-.1.372v.536Z"/>
    <path class="cls-1" d="m40.746,5.296l-.872,4.536h-.977l-.872-4.536h.904l.496,3.032h.008l.504-3.032h.809Z"/>
    <path class="cls-1" d="m43.61,8.04v.536c0,.411-.101.733-.3.968-.2.235-.52.352-.956.352s-.765-.128-.98-.384c-.216-.256-.324-.587-.324-.992v-1.912c0-.411.107-.743.32-.996.213-.253.541-.38.984-.38.437,0,.756.118.956.352.199.235.3.558.3.968v1.096h-1.68v1.008c0,.154.035.278.107.372.072.094.183.14.332.14.145,0,.248-.045.312-.136.063-.091.096-.216.096-.376v-.616h.832Zm-1.68-1.032h.832v-.536c0-.155-.032-.279-.097-.372-.063-.093-.168-.14-.312-.14-.149,0-.258.047-.324.14s-.1.217-.1.372v.536Z"/>
    <path class="cls-1" d="m45.778,6.416c0-.139-.025-.25-.076-.336s-.153-.128-.308-.128c-.155,0-.261.042-.316.128s-.084.197-.084.336v3.416h-.88v-4.536h.88v.464h.016c.059-.133.146-.255.261-.364.114-.109.292-.164.531-.164.277,0,.489.091.637.272.146.182.22.472.22.872v3.456h-.88v-3.416Z"/>
    <path class="cls-1" d="m48.051,8.705c0,.138.024.25.075.335.051.085.153.128.309.128.154,0,.26-.042.315-.128.057-.085.084-.197.084-.335v-3.409h.88v4.536h-.88v-.472h-.016c-.054.13-.14.252-.26.366s-.3.17-.54.17c-.277,0-.488-.091-.632-.272-.145-.181-.217-.472-.217-.872v-3.456h.881v3.409Z"/>
    <path class="cls-1" d="m52.618,8.696c0,.368-.099.66-.296.876-.197.216-.507.324-.928.324-.405,0-.708-.109-.908-.328-.2-.218-.3-.522-.3-.912v-.472h.792v.512c0,.315.136.472.408.472.267,0,.399-.136.399-.408v-.128c0-.112-.036-.214-.107-.308-.072-.093-.21-.217-.412-.372l-.336-.264c-.235-.187-.412-.368-.532-.544s-.18-.405-.18-.688v-.112c0-.326.096-.592.288-.8.191-.208.495-.312.911-.312.433,0,.735.107.908.32.174.213.26.509.26.888v.248h-.783v-.288c0-.144-.029-.253-.088-.328-.06-.075-.158-.112-.297-.112s-.235.033-.292.1c-.056.067-.084.153-.084.26v.072c0,.107.032.203.097.288.063.085.173.181.328.288l.319.256c.155.123.285.23.393.324.106.094.191.188.256.284.063.096.11.2.14.312s.044.246.044.4v.152Z"/>
  </g>
  <g>
    <path class="cls-1" d="m6.819,16.04v.536c0,.411-.1.733-.3.968-.2.235-.519.352-.956.352s-.764-.128-.98-.384c-.216-.256-.324-.587-.324-.992v-1.912c0-.411.106-.743.32-.996.213-.253.542-.38.984-.38.438,0,.756.118.956.352.2.235.3.558.3.968v1.096h-1.68v1.008c0,.154.036.278.108.372.072.094.183.14.332.14.144,0,.248-.045.312-.136.064-.091.096-.216.096-.376v-.616h.832Zm-1.68-1.032h.832v-.536c0-.155-.032-.279-.096-.372s-.168-.14-.312-.14c-.149,0-.257.047-.324.14-.067.093-.1.217-.1.372v.536Z"/>
    <path class="cls-1" d="m7.219,13.296h.328v-.888h.88v.888h.552v.672h-.552v2.911c0,.091.02.155.06.192.04.038.111.056.212.056h.28v.704h-.376c-.397,0-.672-.077-.826-.232-.153-.155-.23-.413-.23-.776v-2.856h-.328v-.672Z"/>
    <path class="cls-1" d="m12.546,17.832h-.88v-.456h-.016c-.026.063-.06.126-.1.189-.04.063-.09.119-.148.166-.059.047-.129.087-.212.118-.083.032-.183.047-.3.047-.283,0-.503-.091-.66-.272s-.236-.472-.236-.872v-2.376c0-.4.073-.69.22-.872.147-.181.361-.272.644-.272.24,0,.417.056.532.166s.201.233.26.368h.016v-1.358h.88v5.424Zm-1.672-1.104c0,.139.027.251.08.336.053.085.157.128.312.128s.26-.042.316-.128c.056-.085.084-.197.084-.336v-2.36c-.011-.123-.045-.221-.104-.296s-.157-.112-.296-.112c-.155,0-.259.043-.312.128-.053.085-.08.198-.08.336v2.304Z"/>
    <path class="cls-1" d="m15.611,16.04v.536c0,.411-.1.733-.3.968-.2.235-.519.352-.956.352s-.764-.128-.98-.384c-.216-.256-.324-.587-.324-.992v-1.912c0-.411.106-.743.32-.996.213-.253.542-.38.984-.38.438,0,.756.118.956.352.2.235.3.558.3.968v1.096h-1.68v1.008c0,.154.036.278.108.372.072.094.183.14.332.14.144,0,.248-.045.312-.136.064-.091.096-.216.096-.376v-.616h.832Zm-1.68-1.032h.832v-.536c0-.155-.032-.279-.096-.372s-.168-.14-.312-.14c-.149,0-.257.047-.324.14-.067.093-.1.217-.1.372v.536Z"/>
    <path class="cls-1" d="m18.299,14.296h-.248c-.16,0-.276.038-.348.112s-.108.189-.108.344v3.08h-.88v-4.536h.88v.464h.016c.037-.107.108-.215.212-.324s.263-.167.476-.172v1.032Z"/>
    <path class="cls-1" d="m18.739,12.408h.88v.688h-.88v-.688Zm0,.888h.88v4.536h-.88v-4.536Z"/>
    <path class="cls-1" d="m22.682,16.04v.536c0,.411-.099.733-.296.968-.197.235-.515.352-.952.352s-.764-.128-.98-.384c-.216-.256-.324-.587-.324-.992v-1.912c0-.411.106-.743.32-.996.213-.253.542-.38.984-.38.438,0,.755.116.952.348s.296.553.296.964v.328h-.848v-.408c0-.154-.031-.277-.092-.368-.061-.091-.164-.136-.308-.136-.149,0-.257.047-.324.14-.067.093-.1.217-.1.372v2.184c0,.154.036.278.108.372.072.094.18.14.324.14.149,0,.256-.045.32-.136.064-.091.096-.216.096-.376v-.616h.824Z"/>
    <path class="cls-1" d="m24.81,14.423c0-.138-.025-.25-.076-.335-.051-.085-.153-.128-.308-.128s-.26.042-.316.128c-.056.085-.084.197-.084.335v3.409h-.88v-5.424h.88v1.36h.016c.059-.135.145-.258.26-.37.115-.111.292-.167.532-.167.277,0,.489.091.636.272.146.182.22.472.22.872v3.456h-.88v-3.409Z"/>
    <path class="cls-1" d="m28.747,16.04v.536c0,.411-.1.733-.3.968-.2.235-.519.352-.956.352s-.764-.128-.98-.384c-.216-.256-.324-.587-.324-.992v-1.912c0-.411.106-.743.32-.996.213-.253.542-.38.984-.38.438,0,.756.118.956.352.2.235.3.558.3.968v1.096h-1.68v1.008c0,.154.036.278.108.372.072.094.183.14.332.14.144,0,.248-.045.312-.136.064-.091.096-.216.096-.376v-.616h.832Zm-1.68-1.032h.832v-.536c0-.155-.032-.279-.096-.372s-.168-.14-.312-.14c-.149,0-.257.047-.324.14-.067.093-.1.217-.1.372v.536Z"/>
    <path class="cls-1" d="m31.65,16.696c0,.368-.099.66-.296.876-.197.216-.507.324-.928.324-.405,0-.708-.109-.908-.328-.2-.218-.3-.522-.3-.912v-.472h.792v.512c0,.315.136.472.408.472.267,0,.399-.136.399-.408v-.128c0-.112-.036-.214-.107-.308-.072-.093-.21-.217-.412-.372l-.336-.264c-.235-.187-.412-.368-.532-.544s-.18-.405-.18-.688v-.112c0-.326.096-.592.288-.8.191-.208.495-.312.911-.312.433,0,.735.107.908.32.174.213.26.509.26.888v.248h-.783v-.288c0-.144-.029-.253-.088-.328-.06-.075-.158-.112-.297-.112s-.235.033-.292.1c-.056.067-.084.153-.084.26v.072c0,.107.032.203.097.288.063.085.173.181.328.288l.319.256c.155.123.285.23.393.324.106.094.191.188.256.284.063.096.11.2.14.312s.044.246.044.4v.152Z"/>
    <path class="cls-1" d="m34.53,16.696c0,.368-.099.66-.296.876-.197.216-.507.324-.928.324-.405,0-.708-.109-.908-.328-.2-.218-.3-.522-.3-.912v-.472h.792v.512c0,.315.136.472.408.472.267,0,.399-.136.399-.408v-.128c0-.112-.036-.214-.107-.308-.072-.093-.21-.217-.412-.372l-.336-.264c-.235-.187-.412-.368-.532-.544s-.18-.405-.18-.688v-.112c0-.326.096-.592.288-.8.191-.208.495-.312.911-.312.433,0,.735.107.908.32.174.213.26.509.26.888v.248h-.783v-.288c0-.144-.029-.253-.088-.328-.06-.075-.158-.112-.297-.112s-.235.033-.292.1c-.056.067-.084.153-.084.26v.072c0,.107.032.203.097.288.063.085.173.181.328.288l.319.256c.155.123.285.23.393.324.106.094.191.188.256.284.063.096.11.2.14.312s.044.246.044.4v.152Z"/>
    <path class="cls-1" d="m37.554,16.04v.536c0,.411-.101.733-.3.968-.2.235-.52.352-.956.352s-.765-.128-.98-.384c-.216-.256-.324-.587-.324-.992v-1.912c0-.411.107-.743.32-.996.213-.253.541-.38.984-.38.437,0,.756.118.956.352.199.235.3.558.3.968v1.096h-1.68v1.008c0,.154.035.278.107.372.072.094.183.14.332.14.145,0,.248-.045.312-.136.063-.091.096-.216.096-.376v-.616h.832Zm-1.68-1.032h.832v-.536c0-.155-.032-.279-.097-.372-.063-.093-.168-.14-.312-.14-.149,0-.258.047-.324.14s-.1.217-.1.372v.536Z"/>
  </g>
  <path class="cls-1" d="m37.166,53.703c-2.879,0-5.05-1.975-5.05-4.595,0-.299.242-.542.542-.542h.702l2.989-5.975c-1.204-.348-2.084-1.345-2.896-2.265-1.298-1.47-2.33-2.643-4.463-1.622v13.913h2.616c.3,0,.542.243.542.542s-.242.542-.542.542h-6.316c-.3,0-.542-.243-.542-.542s.242-.542.542-.542h2.616v-14.04c-1.66-1.833-3.064-1.096-4.831-.172-.842.44-1.738.909-2.68,1.049l2.938,5.868h.701c.3,0,.542.243.542.542,0,2.619-2.171,4.594-5.05,4.594s-5.05-1.975-5.05-4.594c0-.299.242-.542.542-.542h.701l3.013-6.019c-.492-.176-.993-.484-1.504-.967-.217-.206-.227-.549-.021-.766.206-.218.548-.227.767-.021.533.505,1.034.762,1.542.837.061-.006.097.005.143.017.872.066,1.771-.359,2.914-.958,1.536-.803,3.397-1.775,5.333-.333v-1.974c-4.095-.279-7.341-3.7-7.341-7.864,0-4.347,3.536-7.883,7.883-7.883s7.883,3.536,7.883,7.883c0,4.165-3.246,7.585-7.341,7.864v2.389c2.58-.976,4.062.708,5.275,2.083,1.017,1.151,1.799,1.959,2.871,2.022.032-.003.065,0,.098.003.387-.01.807-.082,1.29-.282.274-.114.593.017.708.294.114.276-.018.593-.294.708-.327.135-.637.23-.931.289l2.966,5.923h.701c.3,0,.542.243.542.542,0,2.62-2.171,4.595-5.051,4.595Zm-3.925-4.053c.269,1.75,1.836,2.969,3.925,2.969s3.657-1.219,3.926-2.969h-.441c-.006,0-.013,0-.022,0h-7.387Zm-17.64-3.244c.269,1.749,1.837,2.968,3.925,2.968s3.656-1.219,3.925-2.968h-.441c-.007,0-.013,0-.022,0h-6.922c-.01,0-.016,0-.022,0h-.441Zm18.971,2.16h5.188l-2.595-5.183-2.594,5.183Zm-17.641-3.244h5.189l-2.595-5.183-2.595,5.183Zm11.517-24.848c-3.749,0-6.799,3.05-6.799,6.799s3.05,6.799,6.799,6.799,6.799-3.05,6.799-6.799-3.05-6.799-6.799-6.799Zm-1.104,10.5c-.06,0-.119-.01-.179-.03-.282-.099-.432-.408-.333-.69l2.206-6.319c.099-.283.406-.432.69-.333.282.099.432.408.333.69l-.349.999h1.719c.3,0,.542.243.542.542s-.242.542-.542.542h-2.098l-.627,1.795h2.725c.3,0,.542.243.542.542s-.242.542-.542.542h-3.103l-.474,1.356c-.078.224-.288.363-.512.363Zm-1.633-1.72h-.249c-.3,0-.542-.243-.542-.542s.242-.542.542-.542h.249c.3,0,.542.243.542.542s-.242.542-.542.542Zm1.009-2.879h-1.258c-.3,0-.542-.243-.542-.542s.242-.542.542-.542h1.258c.3,0,.542.243.542.542s-.242.542-.542.542Z"/>
</svg>