<?xml version="1.0" encoding="utf-8"?>
<!-- Generator: Adobe Illustrator 26.1.0, SVG Export Plug-In . SVG Version: 6.00 Build 0)  -->
<svg version="1.1" id="Layer_1" xmlns="http://www.w3.org/2000/svg" xmlns:xlink="http://www.w3.org/1999/xlink" x="0px" y="0px"
	 viewBox="0 0 34.53 34.53" style="enable-background:new 0 0 34.53 34.53;" xml:space="preserve">
<style type="text/css">
	.st0{fill:#A6255E;}
	.st1{fill:#FFFFFF;}
	.st2{fill:#854F97;}
	.st3{fill:#EC6624;}
	.st4{fill:#F1C119;}
	.st5{fill:#F79320;}
	.st6{fill:#FFFFFF;stroke:#FFFFFF;stroke-width:0.611;stroke-miterlimit:10;}
</style>
<g>
	<path class="st0" d="M17.26,34.53c9.53,0,17.26-7.73,17.26-17.26C34.53,7.73,26.8,0,17.26,0C7.73,0,0,7.73,0,17.27
		C0,26.8,7.73,34.53,17.26,34.53"/>
	<path class="st1" d="M13.73,22.11L13.73,22.11c-0.22-0.16-0.53-0.31-0.91-0.42c-0.75-0.23-1.74-0.36-2.79-0.36
		c-1.05,0-2.04,0.13-2.79,0.36c-0.39,0.12-0.69,0.26-0.92,0.42c-0.37,0.27-0.45,0.55-0.45,0.74v0.05v0.04
		c0,1.11,0.43,2.15,1.21,2.93c0.78,0.78,1.82,1.21,2.93,1.21c1.11,0,2.15-0.43,2.93-1.21c0.78-0.78,1.21-1.82,1.21-2.93V22.9v-0.05
		C14.17,22.66,14.1,22.37,13.73,22.11z M12.6,23.33c-0.68,0.21-1.6,0.33-2.57,0.33s-1.89-0.12-2.57-0.33
		c-0.71-0.22-0.86-0.45-0.86-0.48s0.15-0.27,0.86-0.48c0.68-0.21,1.6-0.33,2.57-0.33s1.89,0.12,2.57,0.33
		c0.71,0.22,0.86,0.45,0.86,0.48S13.31,23.12,12.6,23.33z"/>
	<path class="st1" d="M20.98,6.9c-2.01,0-3.65,1.64-3.65,3.65c0,0.06,0.01,0.11,0.02,0.17c0.01-0.11,0.01-0.23,0.03-0.34
		c0.35-1.69,1.85-2.96,3.63-2.96c1.72,0,3.16,1.19,3.58,2.78C24.41,8.35,22.87,6.9,20.98,6.9z"/>
	<path class="st1" d="M26.32,13.73L26.32,13.73c-0.42-0.63-1-1.18-1.69-1.62c-0.61,1.42-2.02,2.41-3.65,2.41
		c-1.62,0-3.01-0.98-3.63-2.37c-0.67,0.44-1.24,0.97-1.64,1.58c-0.35,0.53-0.58,1.12-0.67,1.71C15.02,15.62,15,15.8,15,15.98v4.56
		c0,1.14,0.77,2.17,2,2.72v-5.41c0-1.02,0.93-1.84,2.07-1.84c0.93,0,1.7,0.55,1.97,1.3c0.26-0.75,1.04-1.3,1.97-1.3
		c1.14,0,2.07,0.83,2.07,1.84v5.39c1.06-0.48,1.77-1.32,1.94-2.27c0.02-0.11,0.03-0.23,0.03-0.34v-4.56
		C27.04,15.26,26.79,14.45,26.32,13.73z"/>
	<path class="st1" d="M21.03,26.11C21.03,26.11,21.03,26.1,21.03,26.11c0.01,0.02,0.03,0.03,0.04,0.05
		c-0.01-0.03-0.02-0.06-0.03-0.09C21.03,26.08,21.03,26.09,21.03,26.11z"/>
	<path class="st1" d="M19.07,16.33c-0.96,0-1.74,0.68-1.74,1.51v7.67c0,0.84,0.78,1.51,1.74,1.51s1.74-0.68,1.74-1.51v-7.67
		C20.81,17.01,20.03,16.33,19.07,16.33z"/>
	<path class="st1" d="M24.17,26.64c0.07-0.05,0.13-0.12,0.19-0.18c0.24-0.26,0.39-0.58,0.39-0.94v-7.67c0-0.84-0.78-1.51-1.74-1.51
		s-1.74,0.68-1.74,1.51v7.67c0,0.84,0.78,1.51,1.74,1.51c0.23,0,0.45-0.04,0.65-0.11c0.13-0.05,0.26-0.11,0.38-0.19
		C24.08,26.71,24.12,26.67,24.17,26.64z"/>
	<path class="st2" d="M24.17,26.64c-0.04,0.03-0.09,0.07-0.14,0.1C24.08,26.71,24.12,26.67,24.17,26.64z"/>
	<path class="st2" d="M23.65,26.92c0.14-0.05,0.26-0.11,0.38-0.19C23.91,26.81,23.79,26.87,23.65,26.92z"/>
	<path class="st2" d="M24.36,26.46c-0.06,0.06-0.12,0.12-0.19,0.18C24.24,26.58,24.3,26.53,24.36,26.46z"/>
	<circle class="st1" cx="21.02" cy="10.28" r="3.77"/>
</g>
</svg>
