<?xml version="1.0" encoding="utf-8"?>
<!-- Generator: Adobe Illustrator 26.1.0, SVG Export Plug-In . SVG Version: 6.00 Build 0)  -->
<svg version="1.1" id="Layer_1" xmlns="http://www.w3.org/2000/svg" xmlns:xlink="http://www.w3.org/1999/xlink" x="0px" y="0px"
	 viewBox="0 0 34.53 34.53" style="enable-background:new 0 0 34.53 34.53;" xml:space="preserve">
<style type="text/css">
	.st0{fill:#A6255E;}
	.st1{fill:#FFFFFF;}
	.st2{fill:#854F97;}
	.st3{fill:#EC6624;}
	.st4{fill:#F1C119;}
	.st5{fill:#F79320;}
	.st6{fill:#FFFFFF;stroke:#FFFFFF;stroke-width:0.611;stroke-miterlimit:10;}
</style>
<g>
	<path class="st3" d="M17.26,34.53c9.53,0,17.26-7.73,17.26-17.26C34.53,7.73,26.8,0,17.26,0C7.73,0,0,7.73,0,17.27
		C0,26.8,7.73,34.53,17.26,34.53"/>
	<path class="st1" d="M16.95,20.52c-1.77-0.14-3.09-1.69-2.95-3.45c0.14-1.77,1.69-3.09,3.45-2.95c1.77,0.14,3.09,1.69,2.95,3.45
		C20.27,19.33,18.72,20.65,16.95,20.52 M25.63,17.98l0.02-0.84c0.67-0.23,1.34-0.51,2-0.84c-0.02-0.4-0.12-0.79-0.18-1.19
		c-0.74-0.16-1.49-0.25-2.21-0.29c-0.07-0.27-0.2-0.53-0.29-0.79c-0.11-0.26-0.25-0.51-0.37-0.76c0.5-0.52,0.95-1.07,1.38-1.68
		c-0.2-0.35-0.47-0.64-0.71-0.96c-0.73,0.2-1.43,0.47-2.09,0.77c-0.19-0.2-0.42-0.38-0.63-0.57c-0.22-0.18-0.45-0.33-0.68-0.5
		c0.2-0.69,0.34-1.39,0.45-2.13C21.99,8,21.61,7.86,21.25,7.68C20.7,8.2,20.2,8.77,19.76,9.34c-0.27-0.09-0.55-0.14-0.82-0.21
		c-0.27-0.07-0.56-0.08-0.83-0.12c-0.14-0.72-0.34-1.39-0.59-2.09c-0.4-0.02-0.8,0.01-1.2,0.04c-0.25,0.7-0.43,1.44-0.55,2.15
		c-0.28,0.04-0.55,0.12-0.82,0.19c-0.27,0.06-0.53,0.18-0.8,0.28c-0.46-0.57-0.96-1.09-1.5-1.58c-0.36,0.17-0.71,0.37-1.04,0.59
		c0.11,0.73,0.29,1.47,0.51,2.16c-0.23,0.16-0.43,0.36-0.64,0.55c-0.21,0.18-0.39,0.4-0.58,0.61c-0.67-0.29-1.35-0.52-2.06-0.7
		c-0.24,0.32-0.45,0.66-0.65,1.01c0.43,0.6,0.94,1.17,1.46,1.68c-0.13,0.25-0.22,0.52-0.31,0.79c-0.1,0.26-0.16,0.54-0.22,0.81
		c-0.73,0.06-1.45,0.17-2.15,0.34c-0.06,0.4-0.1,0.79-0.1,1.19c0.67,0.33,1.36,0.6,2.07,0.81c0.02,0.28,0.03,0.56,0.09,0.84
		c0.05,0.28,0.09,0.56,0.18,0.82c-0.6,0.38-1.21,0.83-1.75,1.3c0.15,0.37,0.28,0.75,0.47,1.1c0.76-0.02,1.48-0.1,2.21-0.25
		c0.15,0.24,0.29,0.48,0.47,0.7c0.17,0.22,0.34,0.45,0.54,0.65c-0.35,0.62-0.69,1.29-0.95,1.96c0.3,0.26,0.59,0.54,0.93,0.76
		c0.66-0.37,1.27-0.77,1.84-1.24c0.24,0.14,0.48,0.29,0.74,0.4c0.26,0.12,0.51,0.24,0.78,0.32c-0.03,0.71-0.01,1.46,0.07,2.18
		c0.39,0.09,0.78,0.2,1.17,0.24c0.41-0.65,0.76-1.27,1.05-1.96c0.28,0,0.56,0.03,0.84,0.01c0.28-0.03,0.56-0.03,0.84-0.08
		c0.31,0.64,0.67,1.28,1.08,1.9c0.39-0.1,0.78-0.2,1.15-0.33c0.07-0.76,0.07-1.5,0.02-2.22c0.25-0.13,0.51-0.25,0.75-0.39
		c0.23-0.15,0.48-0.29,0.71-0.46c0.57,0.43,1.19,0.82,1.84,1.18c0.29-0.27,0.59-0.53,0.87-0.83c-0.3-0.7-0.63-1.36-1.01-1.98
		c0.16-0.23,0.34-0.45,0.48-0.69c0.14-0.25,0.3-0.48,0.41-0.74c0.7,0.11,1.43,0.18,2.18,0.19c0.14-0.38,0.28-0.75,0.38-1.14
		c-0.59-0.49-1.2-0.91-1.82-1.28L25.63,17.98z"/>
</g>
</svg>
