<?xml version="1.0" encoding="utf-8"?>
<!-- Generator: Adobe Illustrator 26.1.0, SVG Export Plug-In . SVG Version: 6.00 Build 0)  -->
<svg version="1.1" id="Layer_1" xmlns="http://www.w3.org/2000/svg" xmlns:xlink="http://www.w3.org/1999/xlink" x="0px" y="0px"
	width="60" height="60" viewBox="0 0 34.53 34.53" style="enable-background:new 0 0 34.53 34.53;" xml:space="preserve">
<style type="text/css">
	.st0{fill:#A6255E;}
	.st1{fill:#FFFFFF;}
	.st2{fill:#854F97;}
	.st3{fill:#EC6624;}
	.st4{fill:#F1C119;}
	.st5{fill:#F79320;}
	.st6{fill:#FFFFFF;stroke:#FFFFFF;stroke-width:0.611;stroke-miterlimit:10;}
</style>
<g>
	<path class="st4" d="M17.26,34.53c9.53,0,17.26-7.73,17.26-17.26C34.53,7.73,26.8,0,17.26,0C7.73,0,0,7.73,0,17.27
		C0,26.8,7.73,34.53,17.26,34.53"/>
	<path class="st1" d="M18.3,6.8c0.25-0.23,0.5-0.31,0.76-0.24l1.84,0.51c0.26,0.07,0.44,0.27,0.54,0.6
		c0.11,0.33,0.11,0.69,0.01,1.08L16.76,26.8c-0.1,0.4-0.28,0.71-0.53,0.93c-0.25,0.23-0.5,0.31-0.76,0.24l-1.84-0.51
		c-0.26-0.07-0.44-0.27-0.54-0.6c-0.11-0.33-0.11-0.69-0.01-1.08l4.68-18.05C17.87,7.33,18.05,7.02,18.3,6.8"/>
	<path class="st1" d="M24.19,12.12c0.19,0.19,0.29,0.42,0.29,0.7v1.97c0,0.27-0.1,0.51-0.29,0.7c-0.19,0.19-0.42,0.29-0.7,0.29
		H11.04c-0.27,0-0.51-0.09-0.7-0.29c-0.19-0.19-0.29-0.42-0.29-0.7v-1.97c0-0.27,0.1-0.51,0.29-0.7c0.19-0.19,0.42-0.29,0.7-0.29
		h12.46C23.77,11.83,24,11.93,24.19,12.12"/>
	<path class="st1" d="M24.19,19.05c-0.19-0.19-0.42-0.29-0.7-0.29H11.04c-0.27,0-0.51,0.1-0.7,0.29c-0.19,0.19-0.29,0.42-0.29,0.7
		v1.97c0,0.27,0.1,0.51,0.29,0.7c0.19,0.19,0.42,0.29,0.7,0.29h12.46c0.27,0,0.5-0.09,0.7-0.29c0.19-0.19,0.29-0.42,0.29-0.7v-1.97
		C24.48,19.48,24.38,19.25,24.19,19.05"/>
</g>
</svg>
