<svg xmlns="http://www.w3.org/2000/svg" xmlns:xlink="http://www.w3.org/1999/xlink" width="57.452" height="64.791" viewBox="-1 -1 46.233 52.139"><use xlink:href="#a" width="100%" height="100%" x="444.2" y="254.547" fill="#30b1dc" transform="translate(-156.436 -11.395)"/><path fill="#46a439" d="M33.61 21.187a3.1 3.1 0 0 1 0 4.355c-.618.617-1.395.902-2.22.902-.777 0-1.558-.285-2.214-.902 0 0-1.89-1.93-3.985-4.027v15.773c0 1.723-1.355 3.121-3.039 3.121a3.095 3.095 0 0 1-3.12-3.12V21.514a568.8 568.8 0 0 0-3.985 4.027c-.574.617-1.438.902-2.219.902-.82 0-1.601-.285-2.176-.902a3.03 3.03 0 0 1 0-4.355l11.5-11.457zm0 0"/></svg>