<svg xmlns="http://www.w3.org/2000/svg" xmlns:xlink="http://www.w3.org/1999/xlink" width="64.873" height="57.456" viewBox="-1 -1 52.118 46.159"><use xlink:href="#a" width="100%" height="100%" x="444.2" y="254.547" fill="#30b1dc" transform="translate(-143.396 -85.492)"/><path fill="#f79119" d="M28.957 33.523c-1.229 1.233-3.198 1.233-4.391 0-.616-.612-.901-1.353-.901-2.215 0-.698.285-1.56.9-2.133 0 0 1.888-1.93 3.943-3.981H12.832a3.116 3.116 0 0 1-3.12-3.12 3.089 3.089 0 0 1 3.12-3.116h15.676c-2.055-2.012-3.942-4.025-3.942-4.025-.616-.573-.901-1.353-.901-2.172 0-.74.285-1.56.9-2.219 1.194-1.107 3.163-1.107 4.392 0l11.45 11.532zm0 0"/></svg>