<svg xmlns="http://www.w3.org/2000/svg" xmlns:xlink="http://www.w3.org/1999/xlink" width="57.457" height="64.942" viewBox="-1 -1 46.159 52.172"><use xlink:href="#a" width="100%" height="100%" x="444.2" y="254.547" fill="#30b1dc" transform="translate(-110.165 -152.602)"/><path fill="#da2b33" d="M10.633 28.898a3.072 3.072 0 0 1 0-4.387 3.075 3.075 0 0 1 2.176-.901c.776 0 1.638.327 2.21.9 0 0 1.888 2.013 3.979 4.021V12.866c0-1.762 1.353-3.155 3.115-3.155 1.681 0 3.034 1.393 3.034 3.155v15.665c2.094-2.008 3.978-4.02 3.978-4.02.655-.574 1.435-.901 2.215-.901.819 0 1.599.327 2.215.9a3.143 3.143 0 0 1 0 4.388L22.113 40.46zm0 0"/></svg>