<svg xmlns="http://www.w3.org/2000/svg" xmlns:xlink="http://www.w3.org/1999/xlink" width="57.233" height="57.358" viewBox="-1 -1 46.31 46.412"><use xlink:href="#a" width="100%" height="100%" x="444.2" y="254.547" fill="#30b1dc" transform="translate(-108.712 -48.75)"/><path fill="#f6d307" d="M34.522 27.614c0 1.845-1.482 3.42-3.33 3.42-.991 0-1.799-.448-2.43-.99a3.396 3.396 0 0 1-.99-2.43v-6.259L15.62 33.643c-1.396 1.307-3.557 1.307-4.816 0-1.354-1.35-1.354-3.553 0-4.812l12.151-12.245h-6.212c-.901 0-1.755-.359-2.383-.99-.589-.632-.994-1.397-.994-2.34 0-1.892 1.532-3.467 3.377-3.467h17.779zm0 0"/></svg>