<?xml version="1.0" encoding="UTF-8" standalone="no"?>
<svg
   xmlns:dc="http://purl.org/dc/elements/1.1/"
   xmlns:cc="http://creativecommons.org/ns#"
   xmlns:rdf="http://www.w3.org/1999/02/22-rdf-syntax-ns#"
   xmlns:svg="http://www.w3.org/2000/svg"
   xmlns="http://www.w3.org/2000/svg"
   xmlns:sodipodi="http://sodipodi.sourceforge.net/DTD/sodipodi-0.dtd"
   xmlns:inkscape="http://www.inkscape.org/namespaces/inkscape"
   version="1.1"
   width="24"
   height="24"
   viewBox="0 0 24 24"
   id="svg4"
   sodipodi:docname="year.svg"
   inkscape:version="1.0 (4035a4fb49, 2020-05-01)">
  <metadata
     id="metadata10">
    <rdf:RDF>
      <cc:Work
         rdf:about="">
        <dc:format>image/svg+xml</dc:format>
        <dc:type
           rdf:resource="http://purl.org/dc/dcmitype/StillImage" />
        <dc:title />
      </cc:Work>
    </rdf:RDF>
  </metadata>
  <defs
     id="defs8" />
  <sodipodi:namedview
     pagecolor="#ffffff"
     bordercolor="#666666"
     borderopacity="1"
     objecttolerance="10"
     gridtolerance="10"
     guidetolerance="10"
     inkscape:pageopacity="0"
     inkscape:pageshadow="2"
     inkscape:window-width="2303"
     inkscape:window-height="1321"
     id="namedview6"
     showgrid="false"
     inkscape:zoom="9.8333333"
     inkscape:cx="12"
     inkscape:cy="12"
     inkscape:window-x="89"
     inkscape:window-y="-9"
     inkscape:window-maximized="1"
     inkscape:current-layer="text832"
     inkscape:document-rotation="0" />
  <g
     style="font-size:12px;line-height:1;font-family:Bahnschrift;-inkscape-font-specification:Bahnschrift;text-align:end;letter-spacing:0px;word-spacing:0px;direction:rtl;text-anchor:end"
     id="text832">
    <path
       id="path831"
       style="font-style:normal;font-variant:normal;font-weight:bold;font-stretch:condensed;font-family:Bahnschrift;-inkscape-font-specification:'Bahnschrift Bold Condensed'"
       d="m 5.3554687,13.202412 v 3.263672 H 3.9023438 V 13.202412 L 2.3085938,7.9465523 H 3.8203125 L 4.6171875,11.473896 5.3789062,7.9465523 H 6.890625 Z" />
    <path
       id="path833"
       style="font-style:normal;font-variant:normal;font-weight:bold;font-stretch:condensed;font-family:Bahnschrift;-inkscape-font-specification:'Bahnschrift Bold Condensed'"
       d="M 7.3007812,7.9465523 H 8.7539063 V 16.466084 H 7.3007812 Z m 0.6445313,7.1015627 h 3.1406255 v 1.417969 H 7.9453125 Z m 0,-3.521485 h 2.8476565 v 1.41211 H 7.9453125 Z m 0,-3.5800777 H 11.085938 V 9.364521 H 7.9453125 Z" />
    <path
       id="path835"
       style="font-style:normal;font-variant:normal;font-weight:bold;font-stretch:condensed;font-family:Bahnschrift;-inkscape-font-specification:'Bahnschrift Bold Condensed'"
       d="m 13.470703,7.9465523 h 1.019531 l 2.033203,8.5195317 h -1.441406 l -1.101562,-5.583985 -1.101563,5.583985 H 11.4375 Z m -0.65039,5.8359377 h 2.320312 v 1.359375 h -2.320312 z" />
    <path
       id="path837"
       style="font-style:normal;font-variant:normal;font-weight:bold;font-stretch:condensed;font-family:Bahnschrift;-inkscape-font-specification:'Bahnschrift Bold Condensed'"
       d="m 17.818359,11.468037 h 1.535157 q 0.1875,0 0.322265,-0.06445 0.140625,-0.07031 0.210938,-0.19336 0.07031,-0.128906 0.07031,-0.304687 V 9.9563179 q 0,-0.1933594 -0.07031,-0.3339844 -0.07031,-0.140625 -0.210938,-0.2109375 -0.134765,-0.076172 -0.322265,-0.076172 H 17.818359 V 7.9406929 h 1.447266 q 0.691406,0 1.177734,0.2285156 0.492188,0.2226563 0.75,0.6621094 0.257813,0.4335938 0.257813,1.0429688 V 10.87038 q 0,0.626954 -0.257813,1.078125 -0.257812,0.445313 -0.75,0.679688 -0.492187,0.234375 -1.177734,0.234375 h -1.447266 z m -0.65039,-3.5273441 h 1.423828 v 8.5253911 h -1.423828 z m 1.833984,4.6582031 1.330078,-0.269531 1.359375,4.136719 h -1.558594 z" />
  </g>
</svg>
